  0
SECTION
  2
HEADER
  9
$ACADVER
  1
AC1014
  9
$HANDSEED
  5
FFFF
  9
$MEASUREMENT
 70
     1
  0
ENDSEC
  0
SECTION
  2
TABLES
  0
TABLE
  2
VPORT
  5
8
330
0
100
AcDbSymbolTable
 70
     4
  0
VPORT
  5
2E
330
8
100
AcDbSymbolTableRecord
100
AcDbViewportTableRecord
  2
*ACTIVE
 70
     0
 10
0.0
 20
0.0
 11
1.0
 21
1.0
 12
210.0
 22
148.5
 13
0.0
 23
0.0
 14
10.0
 24
10.0
 15
10.0
 25
10.0
 16
0.0
 26
0.0
 36
1.0
 17
0.0
 27
0.0
 37
0.0
 40
341.0
 41
1.24
 42
50.0
 43
0.0
 44
0.0
 50
0.0
 51
0.0
 71
     0
 72
   100
 73
     1
 74
     3
 75
     0
 76
     0
 77
     0
 78
     0
  0
ENDTAB
  0
TABLE
  2
LTYPE
  5
5
330
0
100
AcDbSymbolTable
 70
     1
  0
LTYPE
  5
14
330
5
100
AcDbSymbolTableRecord
100
AcDbLinetypeTableRecord
  2
BYBLOCK
 70
     0
  3

 72
    65
 73
     0
 40
0.0
  0
LTYPE
  5
15
330
5
100
AcDbSymbolTableRecord
100
AcDbLinetypeTableRecord
  2
BYLAYER
 70
     0
  3

 72
    65
 73
     0
 40
0.0
  0
LTYPE
  5
16
330
5
100
AcDbSymbolTableRecord
100
AcDbLinetypeTableRecord
  2
CONTINUOUS
 70
     0
  3
Solid line
 72
    65
 73
     0
 40
0.0
  0
ENDTAB
  0
TABLE
  2
LAYER
  5
2
100
AcDbSymbolTable
 70
2
  0
LAYER
  5
50
100
AcDbSymbolTableRecord
100
AcDbLayerTableRecord
  2
0
 70
0
  6
CONTINUOUS
  0
LAYER
  5
51
100
AcDbSymbolTableRecord
100
AcDbLayerTableRecord
  2
Layer_1
 70
0
  6
CONTINUOUS
  0
ENDTAB
  0
TABLE
  2
STYLE
  5
3
330
0
100
AcDbSymbolTable
 70
     1
  0
STYLE
  5
11
330
3
100
AcDbSymbolTableRecord
100
AcDbTextStyleTableRecord
  2
STANDARD
 70
     0
 40
0.0
 41
1.0
 50
0.0
 71
     0
 42
2.5
  3
txt
  4

  0
ENDTAB
  0
TABLE
  2
VIEW
  5
6
330
0
100
AcDbSymbolTable
 70
     0
  0
ENDTAB
  0
TABLE
  2
UCS
  5
7
330
0
100
AcDbSymbolTable
 70
     0
  0
ENDTAB
  0
TABLE
  2
APPID
  5
9
330
0
100
AcDbSymbolTable
 70
     2
  0
APPID
  5
12
330
9
100
AcDbSymbolTableRecord
100
AcDbRegAppTableRecord
  2
ACAD
 70
     0
  0
ENDTAB
  0
TABLE
  2
DIMSTYLE
  5
A
330
0
100
AcDbSymbolTable
 70
     1
  0
DIMSTYLE
105
27
330
A
100
AcDbSymbolTableRecord
100
AcDbDimStyleTableRecord
  2
ISO-25
 70
     0
  3

  4

  5

  6

  7

 40
1.0
 41
2.5
 42
0.625
 43
3.75
 44
1.25
 45
0.0
 46
0.0
 47
0.0
 48
0.0
140
2.5
141
2.5
142
0.0
143
0.03937007874016
144
1.0
145
0.0
146
1.0
147
0.625
 71
     0
 72
     0
 73
     0
 74
     0
 75
     0
 76
     0
 77
     1
 78
     8
170
     0
171
     3
172
     1
173
     0
174
     0
175
     0
176
     0
177
     0
178
     0
270
     2
271
     2
272
     2
273
     2
274
     3
340
11
275
     0
280
     0
281
     0
282
     0
283
     0
284
     8
285
     0
286
     0
287
     3
288
     0
  0
ENDTAB
  0
TABLE
  2
BLOCK_RECORD
  5
1
330
0
100
AcDbSymbolTable
 70
     1
  0
BLOCK_RECORD
  5
1F
330
1
100
AcDbSymbolTableRecord
100
AcDbBlockTableRecord
  2
*MODEL_SPACE
  0
BLOCK_RECORD
  5
1B
330
1
100
AcDbSymbolTableRecord
100
AcDbBlockTableRecord
  2
*PAPER_SPACE
  0
ENDTAB
  0
ENDSEC
  0
SECTION
  2
BLOCKS
  0
BLOCK
  5
20
330
1F
100
AcDbEntity
  8
0
100
AcDbBlockBegin
  2
*MODEL_SPACE
 70
     0
 10
0.0
 20
0.0
 30
0.0
  3
*MODEL_SPACE
  1

  0
ENDBLK
  5
21
330
1F
100
AcDbEntity
  8
0
100
AcDbBlockEnd
  0
BLOCK
  5
1C
330
1B
100
AcDbEntity
 67
     1
  8
0
100
AcDbBlockBegin
  2
*PAPER_SPACE
  1

  0
ENDBLK
  5
1D
330
1B
100
AcDbEntity
 67
     1
  8
0
100
AcDbBlockEnd
  0
ENDSEC
  0
SECTION
  2
ENTITIES
  0
LINE
  5
100
100
AcDbEntity
  8
Layer_1
 62
7
100
AcDbLine
 10
3.413844
 20
42.000000
 30
0.0
 11
4.737114
 21
42.000000
 31
0.0
  0
LINE
  5
101
100
AcDbEntity
  8
Layer_1
 62
7
100
AcDbLine
 10
4.737114
 20
42.000000
 30
0.0
 11
6.060383
 21
42.000000
 31
0.0
  0
LINE
  5
102
100
AcDbEntity
  8
Layer_1
 62
7
100
AcDbLine
 10
6.060383
 20
42.000000
 30
0.0
 11
7.383653
 21
42.000000
 31
0.0
  0
LINE
  5
103
100
AcDbEntity
  8
Layer_1
 62
7
100
AcDbLine
 10
7.383653
 20
42.000000
 30
0.0
 11
8.706922
 21
42.000000
 31
0.0
  0
LINE
  5
104
100
AcDbEntity
  8
Layer_1
 62
7
100
AcDbLine
 10
8.706922
 20
42.000000
 30
0.0
 11
10.030192
 21
42.000000
 31
0.0
  0
LINE
  5
105
100
AcDbEntity
  8
Layer_1
 62
7
100
AcDbLine
 10
10.030192
 20
42.000000
 30
0.0
 11
11.353461
 21
42.000000
 31
0.0
  0
LINE
  5
106
100
AcDbEntity
  8
Layer_1
 62
7
100
AcDbLine
 10
11.353461
 20
42.000000
 30
0.0
 11
12.676731
 21
42.000000
 31
0.0
  0
LINE
  5
107
100
AcDbEntity
  8
Layer_1
 62
7
100
AcDbLine
 10
12.676731
 20
42.000000
 30
0.0
 11
14.000000
 21
42.000000
 31
0.0
  0
LINE
  5
108
100
AcDbEntity
  8
Layer_1
 62
7
100
AcDbLine
 10
14.000000
 20
42.000000
 30
0.0
 11
15.323270
 21
42.000000
 31
0.0
  0
LINE
  5
109
100
AcDbEntity
  8
Layer_1
 62
7
100
AcDbLine
 10
15.323270
 20
42.000000
 30
0.0
 11
16.646539
 21
42.000000
 31
0.0
  0
LINE
  5
10a
100
AcDbEntity
  8
Layer_1
 62
7
100
AcDbLine
 10
16.646539
 20
42.000000
 30
0.0
 11
17.969809
 21
42.000000
 31
0.0
  0
LINE
  5
10b
100
AcDbEntity
  8
Layer_1
 62
7
100
AcDbLine
 10
17.969809
 20
42.000000
 30
0.0
 11
19.293078
 21
42.000000
 31
0.0
  0
LINE
  5
10c
100
AcDbEntity
  8
Layer_1
 62
7
100
AcDbLine
 10
19.293078
 20
42.000000
 30
0.0
 11
20.616348
 21
42.000000
 31
0.0
  0
LINE
  5
10d
100
AcDbEntity
  8
Layer_1
 62
7
100
AcDbLine
 10
20.616348
 20
42.000000
 30
0.0
 11
21.939617
 21
42.000000
 31
0.0
  0
LINE
  5
10e
100
AcDbEntity
  8
Layer_1
 62
7
100
AcDbLine
 10
21.939617
 20
42.000000
 30
0.0
 11
23.262887
 21
42.000000
 31
0.0
  0
LINE
  5
10f
100
AcDbEntity
  8
Layer_1
 62
7
100
AcDbLine
 10
23.262887
 20
42.000000
 30
0.0
 11
24.586156
 21
42.000000
 31
0.0
  0
LINE
  5
110
100
AcDbEntity
  8
Layer_1
 62
7
100
AcDbLine
 10
24.586156
 20
42.000000
 30
0.0
 11
24.936167
 21
41.979500
 31
0.0
  0
LINE
  5
111
100
AcDbEntity
  8
Layer_1
 62
7
100
AcDbLine
 10
24.936167
 20
41.979500
 30
0.0
 11
25.275846
 21
41.919300
 31
0.0
  0
LINE
  5
112
100
AcDbEntity
  8
Layer_1
 62
7
100
AcDbLine
 10
25.275846
 20
41.919300
 30
0.0
 11
25.603503
 21
41.821400
 31
0.0
  0
LINE
  5
113
100
AcDbEntity
  8
Layer_1
 62
7
100
AcDbLine
 10
25.603503
 20
41.821400
 30
0.0
 11
25.917449
 21
41.687860
 31
0.0
  0
LINE
  5
114
100
AcDbEntity
  8
Layer_1
 62
7
100
AcDbLine
 10
25.917449
 20
41.687860
 30
0.0
 11
26.215992
 21
41.520560
 31
0.0
  0
LINE
  5
115
100
AcDbEntity
  8
Layer_1
 62
7
100
AcDbLine
 10
26.215992
 20
41.520560
 30
0.0
 11
26.497442
 21
41.321480
 31
0.0
  0
LINE
  5
116
100
AcDbEntity
  8
Layer_1
 62
7
100
AcDbLine
 10
26.497442
 20
41.321480
 30
0.0
 11
26.760110
 21
41.092600
 31
0.0
  0
LINE
  5
117
100
AcDbEntity
  8
Layer_1
 62
7
100
AcDbLine
 10
26.760110
 20
41.092600
 30
0.0
 11
27.002304
 21
40.835900
 31
0.0
  0
LINE
  5
118
100
AcDbEntity
  8
Layer_1
 62
7
100
AcDbLine
 10
27.002304
 20
40.835900
 30
0.0
 11
27.222336
 21
40.553350
 31
0.0
  0
LINE
  5
119
100
AcDbEntity
  8
Layer_1
 62
7
100
AcDbLine
 10
27.222336
 20
40.553350
 30
0.0
 11
27.418513
 21
40.246900
 31
0.0
  0
LINE
  5
11a
100
AcDbEntity
  8
Layer_1
 62
7
100
AcDbLine
 10
27.418513
 20
40.246900
 30
0.0
 11
27.589147
 21
39.918540
 31
0.0
  0
LINE
  5
11b
100
AcDbEntity
  8
Layer_1
 62
7
100
AcDbLine
 10
27.589147
 20
39.918540
 30
0.0
 11
27.732547
 21
39.570230
 31
0.0
  0
LINE
  5
11c
100
AcDbEntity
  8
Layer_1
 62
7
100
AcDbLine
 10
27.732547
 20
39.570230
 30
0.0
 11
27.847022
 21
39.203970
 31
0.0
  0
LINE
  5
11d
100
AcDbEntity
  8
Layer_1
 62
7
100
AcDbLine
 10
27.847022
 20
39.203970
 30
0.0
 11
27.930882
 21
38.821700
 31
0.0
  0
LINE
  5
11e
100
AcDbEntity
  8
Layer_1
 62
7
100
AcDbLine
 10
27.930882
 20
38.821700
 30
0.0
 11
27.982442
 21
38.425410
 31
0.0
  0
LINE
  5
11f
100
AcDbEntity
  8
Layer_1
 62
7
100
AcDbLine
 10
27.982442
 20
38.425410
 30
0.0
 11
28.000002
 21
38.017210
 31
0.0
  0
LINE
  5
120
100
AcDbEntity
  8
Layer_1
 62
7
100
AcDbLine
 10
28.000002
 20
38.017210
 30
0.0
 11
28.000002
 21
35.890070
 31
0.0
  0
LINE
  5
121
100
AcDbEntity
  8
Layer_1
 62
7
100
AcDbLine
 10
28.000002
 20
35.890070
 30
0.0
 11
28.000002
 21
33.762930
 31
0.0
  0
LINE
  5
122
100
AcDbEntity
  8
Layer_1
 62
7
100
AcDbLine
 10
28.000002
 20
33.762930
 30
0.0
 11
28.000002
 21
31.635780
 31
0.0
  0
LINE
  5
123
100
AcDbEntity
  8
Layer_1
 62
7
100
AcDbLine
 10
28.000002
 20
31.635780
 30
0.0
 11
28.000002
 21
29.508640
 31
0.0
  0
LINE
  5
124
100
AcDbEntity
  8
Layer_1
 62
7
100
AcDbLine
 10
28.000002
 20
29.508640
 30
0.0
 11
28.000002
 21
27.381500
 31
0.0
  0
LINE
  5
125
100
AcDbEntity
  8
Layer_1
 62
7
100
AcDbLine
 10
28.000002
 20
27.381500
 30
0.0
 11
28.000002
 21
25.254360
 31
0.0
  0
LINE
  5
126
100
AcDbEntity
  8
Layer_1
 62
7
100
AcDbLine
 10
28.000002
 20
25.254360
 30
0.0
 11
28.000002
 21
23.127220
 31
0.0
  0
LINE
  5
127
100
AcDbEntity
  8
Layer_1
 62
7
100
AcDbLine
 10
28.000002
 20
23.127220
 30
0.0
 11
28.000002
 21
21.000080
 31
0.0
  0
LINE
  5
128
100
AcDbEntity
  8
Layer_1
 62
7
100
AcDbLine
 10
28.000002
 20
21.000080
 30
0.0
 11
28.000002
 21
18.872950
 31
0.0
  0
LINE
  5
129
100
AcDbEntity
  8
Layer_1
 62
7
100
AcDbLine
 10
28.000002
 20
18.872950
 30
0.0
 11
28.000002
 21
16.745810
 31
0.0
  0
LINE
  5
12a
100
AcDbEntity
  8
Layer_1
 62
7
100
AcDbLine
 10
28.000002
 20
16.745810
 30
0.0
 11
28.000002
 21
14.618670
 31
0.0
  0
LINE
  5
12b
100
AcDbEntity
  8
Layer_1
 62
7
100
AcDbLine
 10
28.000002
 20
14.618670
 30
0.0
 11
28.000002
 21
12.491530
 31
0.0
  0
LINE
  5
12c
100
AcDbEntity
  8
Layer_1
 62
7
100
AcDbLine
 10
28.000002
 20
12.491530
 30
0.0
 11
28.000002
 21
10.364380
 31
0.0
  0
LINE
  5
12d
100
AcDbEntity
  8
Layer_1
 62
7
100
AcDbLine
 10
28.000002
 20
10.364380
 30
0.0
 11
28.000002
 21
8.237240
 31
0.0
  0
LINE
  5
12e
100
AcDbEntity
  8
Layer_1
 62
7
100
AcDbLine
 10
28.000002
 20
8.237240
 30
0.0
 11
28.000002
 21
6.110100
 31
0.0
  0
LINE
  5
12f
100
AcDbEntity
  8
Layer_1
 62
7
100
AcDbLine
 10
28.000002
 20
6.110100
 30
0.0
 11
28.000002
 21
3.982960
 31
0.0
  0
LINE
  5
130
100
AcDbEntity
  8
Layer_1
 62
7
100
AcDbLine
 10
28.000002
 20
3.982960
 30
0.0
 11
27.982442
 21
3.574620
 31
0.0
  0
LINE
  5
131
100
AcDbEntity
  8
Layer_1
 62
7
100
AcDbLine
 10
27.982442
 20
3.574620
 30
0.0
 11
27.930882
 21
3.178320
 31
0.0
  0
LINE
  5
132
100
AcDbEntity
  8
Layer_1
 62
7
100
AcDbLine
 10
27.930882
 20
3.178320
 30
0.0
 11
27.847022
 21
2.796060
 31
0.0
  0
LINE
  5
133
100
AcDbEntity
  8
Layer_1
 62
7
100
AcDbLine
 10
27.847022
 20
2.796060
 30
0.0
 11
27.732547
 21
2.429790
 31
0.0
  0
LINE
  5
134
100
AcDbEntity
  8
Layer_1
 62
7
100
AcDbLine
 10
27.732547
 20
2.429790
 30
0.0
 11
27.589147
 21
2.081500
 31
0.0
  0
LINE
  5
135
100
AcDbEntity
  8
Layer_1
 62
7
100
AcDbLine
 10
27.589147
 20
2.081500
 30
0.0
 11
27.418513
 21
1.753140
 31
0.0
  0
LINE
  5
136
100
AcDbEntity
  8
Layer_1
 62
7
100
AcDbLine
 10
27.418513
 20
1.753140
 30
0.0
 11
27.222336
 21
1.446690
 31
0.0
  0
LINE
  5
137
100
AcDbEntity
  8
Layer_1
 62
7
100
AcDbLine
 10
27.222336
 20
1.446690
 30
0.0
 11
27.002304
 21
1.164130
 31
0.0
  0
LINE
  5
138
100
AcDbEntity
  8
Layer_1
 62
7
100
AcDbLine
 10
27.002304
 20
1.164130
 30
0.0
 11
26.760110
 21
0.907430
 31
0.0
  0
LINE
  5
139
100
AcDbEntity
  8
Layer_1
 62
7
100
AcDbLine
 10
26.760110
 20
0.907430
 30
0.0
 11
26.497442
 21
0.678560
 31
0.0
  0
LINE
  5
13a
100
AcDbEntity
  8
Layer_1
 62
7
100
AcDbLine
 10
26.497442
 20
0.678560
 30
0.0
 11
26.215992
 21
0.479480
 31
0.0
  0
LINE
  5
13b
100
AcDbEntity
  8
Layer_1
 62
7
100
AcDbLine
 10
26.215992
 20
0.479480
 30
0.0
 11
25.917449
 21
0.312180
 31
0.0
  0
LINE
  5
13c
100
AcDbEntity
  8
Layer_1
 62
7
100
AcDbLine
 10
25.917449
 20
0.312180
 30
0.0
 11
25.603503
 21
0.178640
 31
0.0
  0
LINE
  5
13d
100
AcDbEntity
  8
Layer_1
 62
7
100
AcDbLine
 10
25.603503
 20
0.178640
 30
0.0
 11
25.275846
 21
0.080740
 31
0.0
  0
LINE
  5
13e
100
AcDbEntity
  8
Layer_1
 62
7
100
AcDbLine
 10
25.275846
 20
0.080740
 30
0.0
 11
24.936167
 21
0.020540
 31
0.0
  0
LINE
  5
13f
100
AcDbEntity
  8
Layer_1
 62
7
100
AcDbLine
 10
24.936167
 20
0.020540
 30
0.0
 11
24.586154
 21
0.000000
 31
0.0
  0
LINE
  5
140
100
AcDbEntity
  8
Layer_1
 62
7
100
AcDbLine
 10
24.586154
 20
0.000000
 30
0.0
 11
23.262885
 21
0.000000
 31
0.0
  0
LINE
  5
141
100
AcDbEntity
  8
Layer_1
 62
7
100
AcDbLine
 10
23.262885
 20
0.000000
 30
0.0
 11
21.939615
 21
0.000000
 31
0.0
  0
LINE
  5
142
100
AcDbEntity
  8
Layer_1
 62
7
100
AcDbLine
 10
21.939615
 20
0.000000
 30
0.0
 11
20.616346
 21
0.000000
 31
0.0
  0
LINE
  5
143
100
AcDbEntity
  8
Layer_1
 62
7
100
AcDbLine
 10
20.616346
 20
0.000000
 30
0.0
 11
19.293076
 21
0.000000
 31
0.0
  0
LINE
  5
144
100
AcDbEntity
  8
Layer_1
 62
7
100
AcDbLine
 10
19.293076
 20
0.000000
 30
0.0
 11
17.969807
 21
0.000000
 31
0.0
  0
LINE
  5
145
100
AcDbEntity
  8
Layer_1
 62
7
100
AcDbLine
 10
17.969807
 20
0.000000
 30
0.0
 11
16.646537
 21
0.000000
 31
0.0
  0
LINE
  5
146
100
AcDbEntity
  8
Layer_1
 62
7
100
AcDbLine
 10
16.646537
 20
0.000000
 30
0.0
 11
15.323270
 21
0.000000
 31
0.0
  0
LINE
  5
147
100
AcDbEntity
  8
Layer_1
 62
7
100
AcDbLine
 10
15.323270
 20
0.000000
 30
0.0
 11
14.000000
 21
0.000000
 31
0.0
  0
LINE
  5
148
100
AcDbEntity
  8
Layer_1
 62
7
100
AcDbLine
 10
14.000000
 20
0.000000
 30
0.0
 11
12.676731
 21
0.000000
 31
0.0
  0
LINE
  5
149
100
AcDbEntity
  8
Layer_1
 62
7
100
AcDbLine
 10
12.676731
 20
0.000000
 30
0.0
 11
11.353461
 21
0.000000
 31
0.0
  0
LINE
  5
14a
100
AcDbEntity
  8
Layer_1
 62
7
100
AcDbLine
 10
11.353461
 20
0.000000
 30
0.0
 11
10.030192
 21
0.000000
 31
0.0
  0
LINE
  5
14b
100
AcDbEntity
  8
Layer_1
 62
7
100
AcDbLine
 10
10.030192
 20
0.000000
 30
0.0
 11
8.706922
 21
0.000000
 31
0.0
  0
LINE
  5
14c
100
AcDbEntity
  8
Layer_1
 62
7
100
AcDbLine
 10
8.706922
 20
0.000000
 30
0.0
 11
7.383653
 21
0.000000
 31
0.0
  0
LINE
  5
14d
100
AcDbEntity
  8
Layer_1
 62
7
100
AcDbLine
 10
7.383653
 20
0.000000
 30
0.0
 11
6.060383
 21
0.000000
 31
0.0
  0
LINE
  5
14e
100
AcDbEntity
  8
Layer_1
 62
7
100
AcDbLine
 10
6.060383
 20
0.000000
 30
0.0
 11
4.737114
 21
0.000000
 31
0.0
  0
LINE
  5
14f
100
AcDbEntity
  8
Layer_1
 62
7
100
AcDbLine
 10
4.737114
 20
0.000000
 30
0.0
 11
3.413844
 21
0.000000
 31
0.0
  0
LINE
  5
150
100
AcDbEntity
  8
Layer_1
 62
7
100
AcDbLine
 10
3.413844
 20
0.000000
 30
0.0
 11
3.063833
 21
0.020500
 31
0.0
  0
LINE
  5
151
100
AcDbEntity
  8
Layer_1
 62
7
100
AcDbLine
 10
3.063833
 20
0.020500
 30
0.0
 11
2.724154
 21
0.080700
 31
0.0
  0
LINE
  5
152
100
AcDbEntity
  8
Layer_1
 62
7
100
AcDbLine
 10
2.724154
 20
0.080700
 30
0.0
 11
2.396497
 21
0.178600
 31
0.0
  0
LINE
  5
153
100
AcDbEntity
  8
Layer_1
 62
7
100
AcDbLine
 10
2.396497
 20
0.178600
 30
0.0
 11
2.082552
 21
0.312140
 31
0.0
  0
LINE
  5
154
100
AcDbEntity
  8
Layer_1
 62
7
100
AcDbLine
 10
2.082552
 20
0.312140
 30
0.0
 11
1.784009
 21
0.479440
 31
0.0
  0
LINE
  5
155
100
AcDbEntity
  8
Layer_1
 62
7
100
AcDbLine
 10
1.784009
 20
0.479440
 30
0.0
 11
1.502558
 21
0.678520
 31
0.0
  0
LINE
  5
156
100
AcDbEntity
  8
Layer_1
 62
7
100
AcDbLine
 10
1.502558
 20
0.678520
 30
0.0
 11
1.239891
 21
0.907390
 31
0.0
  0
LINE
  5
157
100
AcDbEntity
  8
Layer_1
 62
7
100
AcDbLine
 10
1.239891
 20
0.907390
 30
0.0
 11
0.997696
 21
1.164090
 31
0.0
  0
LINE
  5
158
100
AcDbEntity
  8
Layer_1
 62
7
100
AcDbLine
 10
0.997696
 20
1.164090
 30
0.0
 11
0.777665
 21
1.446670
 31
0.0
  0
LINE
  5
159
100
AcDbEntity
  8
Layer_1
 62
7
100
AcDbLine
 10
0.777665
 20
1.446670
 30
0.0
 11
0.581487
 21
1.753120
 31
0.0
  0
LINE
  5
15a
100
AcDbEntity
  8
Layer_1
 62
7
100
AcDbLine
 10
0.581487
 20
1.753120
 30
0.0
 11
0.410853
 21
2.081480
 31
0.0
  0
LINE
  5
15b
100
AcDbEntity
  8
Layer_1
 62
7
100
AcDbLine
 10
0.410853
 20
2.081480
 30
0.0
 11
0.267453
 21
2.429770
 31
0.0
  0
LINE
  5
15c
100
AcDbEntity
  8
Layer_1
 62
7
100
AcDbLine
 10
0.267453
 20
2.429770
 30
0.0
 11
0.152978
 21
2.796040
 31
0.0
  0
LINE
  5
15d
100
AcDbEntity
  8
Layer_1
 62
7
100
AcDbLine
 10
0.152978
 20
2.796040
 30
0.0
 11
0.069117
 21
3.178300
 31
0.0
  0
LINE
  5
15e
100
AcDbEntity
  8
Layer_1
 62
7
100
AcDbLine
 10
0.069117
 20
3.178300
 30
0.0
 11
0.017561
 21
3.574600
 31
0.0
  0
LINE
  5
15f
100
AcDbEntity
  8
Layer_1
 62
7
100
AcDbLine
 10
0.017561
 20
3.574600
 30
0.0
 11
0.000000
 21
3.982940
 31
0.0
  0
LINE
  5
160
100
AcDbEntity
  8
Layer_1
 62
7
100
AcDbLine
 10
0.000000
 20
3.982940
 30
0.0
 11
0.000000
 21
6.110080
 31
0.0
  0
LINE
  5
161
100
AcDbEntity
  8
Layer_1
 62
7
100
AcDbLine
 10
0.000000
 20
6.110080
 30
0.0
 11
0.000000
 21
8.237220
 31
0.0
  0
LINE
  5
162
100
AcDbEntity
  8
Layer_1
 62
7
100
AcDbLine
 10
0.000000
 20
8.237220
 30
0.0
 11
0.000000
 21
10.364360
 31
0.0
  0
LINE
  5
163
100
AcDbEntity
  8
Layer_1
 62
7
100
AcDbLine
 10
0.000000
 20
10.364360
 30
0.0
 11
0.000000
 21
12.491510
 31
0.0
  0
LINE
  5
164
100
AcDbEntity
  8
Layer_1
 62
7
100
AcDbLine
 10
0.000000
 20
12.491510
 30
0.0
 11
0.000000
 21
14.618650
 31
0.0
  0
LINE
  5
165
100
AcDbEntity
  8
Layer_1
 62
7
100
AcDbLine
 10
0.000000
 20
14.618650
 30
0.0
 11
0.000000
 21
16.745790
 31
0.0
  0
LINE
  5
166
100
AcDbEntity
  8
Layer_1
 62
7
100
AcDbLine
 10
0.000000
 20
16.745790
 30
0.0
 11
0.000000
 21
18.872930
 31
0.0
  0
LINE
  5
167
100
AcDbEntity
  8
Layer_1
 62
7
100
AcDbLine
 10
0.000000
 20
18.872930
 30
0.0
 11
0.000000
 21
21.000060
 31
0.0
  0
LINE
  5
168
100
AcDbEntity
  8
Layer_1
 62
7
100
AcDbLine
 10
0.000000
 20
21.000060
 30
0.0
 11
0.000000
 21
23.127200
 31
0.0
  0
LINE
  5
169
100
AcDbEntity
  8
Layer_1
 62
7
100
AcDbLine
 10
0.000000
 20
23.127200
 30
0.0
 11
0.000000
 21
25.254340
 31
0.0
  0
LINE
  5
16a
100
AcDbEntity
  8
Layer_1
 62
7
100
AcDbLine
 10
0.000000
 20
25.254340
 30
0.0
 11
0.000000
 21
27.381480
 31
0.0
  0
LINE
  5
16b
100
AcDbEntity
  8
Layer_1
 62
7
100
AcDbLine
 10
0.000000
 20
27.381480
 30
0.0
 11
0.000000
 21
29.508620
 31
0.0
  0
LINE
  5
16c
100
AcDbEntity
  8
Layer_1
 62
7
100
AcDbLine
 10
0.000000
 20
29.508620
 30
0.0
 11
0.000000
 21
31.635760
 31
0.0
  0
LINE
  5
16d
100
AcDbEntity
  8
Layer_1
 62
7
100
AcDbLine
 10
0.000000
 20
31.635760
 30
0.0
 11
0.000000
 21
33.762910
 31
0.0
  0
LINE
  5
16e
100
AcDbEntity
  8
Layer_1
 62
7
100
AcDbLine
 10
0.000000
 20
33.762910
 30
0.0
 11
0.000000
 21
35.890050
 31
0.0
  0
LINE
  5
16f
100
AcDbEntity
  8
Layer_1
 62
7
100
AcDbLine
 10
0.000000
 20
35.890050
 30
0.0
 11
0.000000
 21
38.017190
 31
0.0
  0
LINE
  5
170
100
AcDbEntity
  8
Layer_1
 62
7
100
AcDbLine
 10
0.000000
 20
38.017190
 30
0.0
 11
0.017561
 21
38.425530
 31
0.0
  0
LINE
  5
171
100
AcDbEntity
  8
Layer_1
 62
7
100
AcDbLine
 10
0.017561
 20
38.425530
 30
0.0
 11
0.069117
 21
38.821820
 31
0.0
  0
LINE
  5
172
100
AcDbEntity
  8
Layer_1
 62
7
100
AcDbLine
 10
0.069117
 20
38.821820
 30
0.0
 11
0.152978
 21
39.204090
 31
0.0
  0
LINE
  5
173
100
AcDbEntity
  8
Layer_1
 62
7
100
AcDbLine
 10
0.152978
 20
39.204090
 30
0.0
 11
0.267453
 21
39.570350
 31
0.0
  0
LINE
  5
174
100
AcDbEntity
  8
Layer_1
 62
7
100
AcDbLine
 10
0.267453
 20
39.570350
 30
0.0
 11
0.410853
 21
39.918660
 31
0.0
  0
LINE
  5
175
100
AcDbEntity
  8
Layer_1
 62
7
100
AcDbLine
 10
0.410853
 20
39.918660
 30
0.0
 11
0.581487
 21
40.247020
 31
0.0
  0
LINE
  5
176
100
AcDbEntity
  8
Layer_1
 62
7
100
AcDbLine
 10
0.581487
 20
40.247020
 30
0.0
 11
0.777665
 21
40.553470
 31
0.0
  0
LINE
  5
177
100
AcDbEntity
  8
Layer_1
 62
7
100
AcDbLine
 10
0.777665
 20
40.553470
 30
0.0
 11
0.997696
 21
40.836020
 31
0.0
  0
LINE
  5
178
100
AcDbEntity
  8
Layer_1
 62
7
100
AcDbLine
 10
0.997696
 20
40.836020
 30
0.0
 11
1.239891
 21
41.092720
 31
0.0
  0
LINE
  5
179
100
AcDbEntity
  8
Layer_1
 62
7
100
AcDbLine
 10
1.239891
 20
41.092720
 30
0.0
 11
1.502558
 21
41.321600
 31
0.0
  0
LINE
  5
17a
100
AcDbEntity
  8
Layer_1
 62
7
100
AcDbLine
 10
1.502558
 20
41.321600
 30
0.0
 11
1.784009
 21
41.520680
 31
0.0
  0
LINE
  5
17b
100
AcDbEntity
  8
Layer_1
 62
7
100
AcDbLine
 10
1.784009
 20
41.520680
 30
0.0
 11
2.082552
 21
41.687980
 31
0.0
  0
LINE
  5
17c
100
AcDbEntity
  8
Layer_1
 62
7
100
AcDbLine
 10
2.082552
 20
41.687980
 30
0.0
 11
2.396497
 21
41.821520
 31
0.0
  0
LINE
  5
17d
100
AcDbEntity
  8
Layer_1
 62
7
100
AcDbLine
 10
2.396497
 20
41.821520
 30
0.0
 11
2.724154
 21
41.919420
 31
0.0
  0
LINE
  5
17e
100
AcDbEntity
  8
Layer_1
 62
7
100
AcDbLine
 10
2.724154
 20
41.919420
 30
0.0
 11
3.063833
 21
41.979620
 31
0.0
  0
LINE
  5
17f
100
AcDbEntity
  8
Layer_1
 62
7
100
AcDbLine
 10
3.063833
 20
41.979620
 30
0.0
 11
3.413844
 21
42.000000
 31
0.0
  0
ENDSEC
  0
SECTION
  2
OBJECTS
  0
DICTIONARY
  5
C
330
0
100
AcDbDictionary
  3
ACAD_GROUP
350
D
  3
ACAD_MLINESTYLE
350
17
  0
DICTIONARY
  5
D
330
C
100
AcDbDictionary
  0
DICTIONARY
  5
1A
330
C
100
AcDbDictionary
  0
DICTIONARY
  5
17
330
C
100
AcDbDictionary
  3
STANDARD
350
18
  0
DICTIONARY
  5
19
330
C
100
AcDbDictionary
  0
ENDSEC
  0
EOF
