  0
SECTION
  2
HEADER
  9
$ACADVER
  1
AC1014
  9
$HANDSEED
  5
FFFF
  9
$MEASUREMENT
 70
     1
  0
ENDSEC
  0
SECTION
  2
TABLES
  0
TABLE
  2
VPORT
  5
8
330
0
100
AcDbSymbolTable
 70
     4
  0
VPORT
  5
2E
330
8
100
AcDbSymbolTableRecord
100
AcDbViewportTableRecord
  2
*ACTIVE
 70
     0
 10
0.0
 20
0.0
 11
1.0
 21
1.0
 12
210.0
 22
148.5
 13
0.0
 23
0.0
 14
10.0
 24
10.0
 15
10.0
 25
10.0
 16
0.0
 26
0.0
 36
1.0
 17
0.0
 27
0.0
 37
0.0
 40
341.0
 41
1.24
 42
50.0
 43
0.0
 44
0.0
 50
0.0
 51
0.0
 71
     0
 72
   100
 73
     1
 74
     3
 75
     0
 76
     0
 77
     0
 78
     0
  0
ENDTAB
  0
TABLE
  2
LTYPE
  5
5
330
0
100
AcDbSymbolTable
 70
     1
  0
LTYPE
  5
14
330
5
100
AcDbSymbolTableRecord
100
AcDbLinetypeTableRecord
  2
BYBLOCK
 70
     0
  3

 72
    65
 73
     0
 40
0.0
  0
LTYPE
  5
15
330
5
100
AcDbSymbolTableRecord
100
AcDbLinetypeTableRecord
  2
BYLAYER
 70
     0
  3

 72
    65
 73
     0
 40
0.0
  0
LTYPE
  5
16
330
5
100
AcDbSymbolTableRecord
100
AcDbLinetypeTableRecord
  2
CONTINUOUS
 70
     0
  3
Solid line
 72
    65
 73
     0
 40
0.0
  0
ENDTAB
  0
TABLE
  2
LAYER
  5
2
100
AcDbSymbolTable
 70
2
  0
LAYER
  5
50
100
AcDbSymbolTableRecord
100
AcDbLayerTableRecord
  2
0
 70
0
  6
CONTINUOUS
  0
LAYER
  5
51
100
AcDbSymbolTableRecord
100
AcDbLayerTableRecord
  2
Layer_1
 70
0
  6
CONTINUOUS
  0
ENDTAB
  0
TABLE
  2
STYLE
  5
3
330
0
100
AcDbSymbolTable
 70
     1
  0
STYLE
  5
11
330
3
100
AcDbSymbolTableRecord
100
AcDbTextStyleTableRecord
  2
STANDARD
 70
     0
 40
0.0
 41
1.0
 50
0.0
 71
     0
 42
2.5
  3
txt
  4

  0
ENDTAB
  0
TABLE
  2
VIEW
  5
6
330
0
100
AcDbSymbolTable
 70
     0
  0
ENDTAB
  0
TABLE
  2
UCS
  5
7
330
0
100
AcDbSymbolTable
 70
     0
  0
ENDTAB
  0
TABLE
  2
APPID
  5
9
330
0
100
AcDbSymbolTable
 70
     2
  0
APPID
  5
12
330
9
100
AcDbSymbolTableRecord
100
AcDbRegAppTableRecord
  2
ACAD
 70
     0
  0
ENDTAB
  0
TABLE
  2
DIMSTYLE
  5
A
330
0
100
AcDbSymbolTable
 70
     1
  0
DIMSTYLE
105
27
330
A
100
AcDbSymbolTableRecord
100
AcDbDimStyleTableRecord
  2
ISO-25
 70
     0
  3

  4

  5

  6

  7

 40
1.0
 41
2.5
 42
0.625
 43
3.75
 44
1.25
 45
0.0
 46
0.0
 47
0.0
 48
0.0
140
2.5
141
2.5
142
0.0
143
0.03937007874016
144
1.0
145
0.0
146
1.0
147
0.625
 71
     0
 72
     0
 73
     0
 74
     0
 75
     0
 76
     0
 77
     1
 78
     8
170
     0
171
     3
172
     1
173
     0
174
     0
175
     0
176
     0
177
     0
178
     0
270
     2
271
     2
272
     2
273
     2
274
     3
340
11
275
     0
280
     0
281
     0
282
     0
283
     0
284
     8
285
     0
286
     0
287
     3
288
     0
  0
ENDTAB
  0
TABLE
  2
BLOCK_RECORD
  5
1
330
0
100
AcDbSymbolTable
 70
     1
  0
BLOCK_RECORD
  5
1F
330
1
100
AcDbSymbolTableRecord
100
AcDbBlockTableRecord
  2
*MODEL_SPACE
  0
BLOCK_RECORD
  5
1B
330
1
100
AcDbSymbolTableRecord
100
AcDbBlockTableRecord
  2
*PAPER_SPACE
  0
ENDTAB
  0
ENDSEC
  0
SECTION
  2
BLOCKS
  0
BLOCK
  5
20
330
1F
100
AcDbEntity
  8
0
100
AcDbBlockBegin
  2
*MODEL_SPACE
 70
     0
 10
0.0
 20
0.0
 30
0.0
  3
*MODEL_SPACE
  1

  0
ENDBLK
  5
21
330
1F
100
AcDbEntity
  8
0
100
AcDbBlockEnd
  0
BLOCK
  5
1C
330
1B
100
AcDbEntity
 67
     1
  8
0
100
AcDbBlockBegin
  2
*PAPER_SPACE
  1

  0
ENDBLK
  5
1D
330
1B
100
AcDbEntity
 67
     1
  8
0
100
AcDbBlockEnd
  0
ENDSEC
  0
SECTION
  2
ENTITIES
  0
LINE
  5
100
100
AcDbEntity
  8
Layer_1
 62
7
100
AcDbLine
 10
3.413745
 20
42.000063
 30
0.0
 11
3.063896
 21
41.979399
 31
0.0
  0
LINE
  5
101
100
AcDbEntity
  8
Layer_1
 62
7
100
AcDbLine
 10
3.063896
 20
41.979399
 30
0.0
 11
2.724381
 21
41.919455
 31
0.0
  0
LINE
  5
102
100
AcDbEntity
  8
Layer_1
 62
7
100
AcDbLine
 10
2.724381
 20
41.919455
 30
0.0
 11
2.396753
 21
41.821787
 31
0.0
  0
LINE
  5
103
100
AcDbEntity
  8
Layer_1
 62
7
100
AcDbLine
 10
2.396753
 20
41.821787
 30
0.0
 11
2.082560
 21
41.687945
 31
0.0
  0
LINE
  5
104
100
AcDbEntity
  8
Layer_1
 62
7
100
AcDbLine
 10
2.082560
 20
41.687945
 30
0.0
 11
1.783870
 21
41.520511
 31
0.0
  0
LINE
  5
105
100
AcDbEntity
  8
Layer_1
 62
7
100
AcDbLine
 10
1.783870
 20
41.520511
 30
0.0
 11
1.502751
 21
41.321558
 31
0.0
  0
LINE
  5
106
100
AcDbEntity
  8
Layer_1
 62
7
100
AcDbLine
 10
1.502751
 20
41.321558
 30
0.0
 11
1.239718
 21
41.092633
 31
0.0
  0
LINE
  5
107
100
AcDbEntity
  8
Layer_1
 62
7
100
AcDbLine
 10
1.239718
 20
41.092633
 30
0.0
 11
0.997872
 21
40.835799
 31
0.0
  0
LINE
  5
108
100
AcDbEntity
  8
Layer_1
 62
7
100
AcDbLine
 10
0.997872
 20
40.835799
 30
0.0
 11
0.777730
 21
40.553647
 31
0.0
  0
LINE
  5
109
100
AcDbEntity
  8
Layer_1
 62
7
100
AcDbLine
 10
0.777730
 20
40.553647
 30
0.0
 11
0.581360
 21
40.247204
 31
0.0
  0
LINE
  5
10a
100
AcDbEntity
  8
Layer_1
 62
7
100
AcDbLine
 10
0.581360
 20
40.247204
 30
0.0
 11
0.410828
 21
39.918544
 31
0.0
  0
LINE
  5
10b
100
AcDbEntity
  8
Layer_1
 62
7
100
AcDbLine
 10
0.410828
 20
39.918544
 30
0.0
 11
0.267684
 21
39.570244
 31
0.0
  0
LINE
  5
10c
100
AcDbEntity
  8
Layer_1
 62
7
100
AcDbLine
 10
0.267684
 20
39.570244
 30
0.0
 11
0.152962
 21
39.203857
 31
0.0
  0
LINE
  5
10d
100
AcDbEntity
  8
Layer_1
 62
7
100
AcDbLine
 10
0.152962
 20
39.203857
 30
0.0
 11
0.069246
 21
38.821968
 31
0.0
  0
LINE
  5
10e
100
AcDbEntity
  8
Layer_1
 62
7
100
AcDbLine
 10
0.069246
 20
38.821968
 30
0.0
 11
0.017570
 21
38.425611
 31
0.0
  0
LINE
  5
10f
100
AcDbEntity
  8
Layer_1
 62
7
100
AcDbLine
 10
0.017570
 20
38.425611
 30
0.0
 11
0.000000
 21
38.017362
 31
0.0
  0
LINE
  5
110
100
AcDbEntity
  8
Layer_1
 62
7
100
AcDbLine
 10
0.000000
 20
38.017362
 30
0.0
 11
0.000000
 21
35.889842
 31
0.0
  0
LINE
  5
111
100
AcDbEntity
  8
Layer_1
 62
7
100
AcDbLine
 10
0.000000
 20
35.889842
 30
0.0
 11
0.000000
 21
33.762841
 31
0.0
  0
LINE
  5
112
100
AcDbEntity
  8
Layer_1
 62
7
100
AcDbLine
 10
0.000000
 20
33.762841
 30
0.0
 11
0.000000
 21
31.635832
 31
0.0
  0
LINE
  5
113
100
AcDbEntity
  8
Layer_1
 62
7
100
AcDbLine
 10
0.000000
 20
31.635832
 30
0.0
 11
0.000000
 21
29.508846
 31
0.0
  0
LINE
  5
114
100
AcDbEntity
  8
Layer_1
 62
7
100
AcDbLine
 10
0.000000
 20
29.508846
 30
0.0
 11
0.000000
 21
27.381332
 31
0.0
  0
LINE
  5
115
100
AcDbEntity
  8
Layer_1
 62
7
100
AcDbLine
 10
0.000000
 20
27.381332
 30
0.0
 11
0.000000
 21
25.254320
 31
0.0
  0
LINE
  5
116
100
AcDbEntity
  8
Layer_1
 62
7
100
AcDbLine
 10
0.000000
 20
25.254320
 30
0.0
 11
0.000000
 21
23.127308
 31
0.0
  0
LINE
  5
117
100
AcDbEntity
  8
Layer_1
 62
7
100
AcDbLine
 10
0.000000
 20
23.127308
 30
0.0
 11
0.000000
 21
21.000323
 31
0.0
  0
LINE
  5
118
100
AcDbEntity
  8
Layer_1
 62
7
100
AcDbLine
 10
0.000000
 20
21.000323
 30
0.0
 11
0.000000
 21
18.872782
 31
0.0
  0
LINE
  5
119
100
AcDbEntity
  8
Layer_1
 62
7
100
AcDbLine
 10
0.000000
 20
18.872782
 30
0.0
 11
0.000000
 21
16.745796
 31
0.0
  0
LINE
  5
11a
100
AcDbEntity
  8
Layer_1
 62
7
100
AcDbLine
 10
0.000000
 20
16.745796
 30
0.0
 11
0.000000
 21
14.618784
 31
0.0
  0
LINE
  5
11b
100
AcDbEntity
  8
Layer_1
 62
7
100
AcDbLine
 10
0.000000
 20
14.618784
 30
0.0
 11
0.000000
 21
12.491270
 31
0.0
  0
LINE
  5
11c
100
AcDbEntity
  8
Layer_1
 62
7
100
AcDbLine
 10
0.000000
 20
12.491270
 30
0.0
 11
0.000000
 21
10.364258
 31
0.0
  0
LINE
  5
11d
100
AcDbEntity
  8
Layer_1
 62
7
100
AcDbLine
 10
0.000000
 20
10.364258
 30
0.0
 11
0.000000
 21
8.237273
 31
0.0
  0
LINE
  5
11e
100
AcDbEntity
  8
Layer_1
 62
7
100
AcDbLine
 10
0.000000
 20
8.237273
 30
0.0
 11
0.000000
 21
6.110261
 31
0.0
  0
LINE
  5
11f
100
AcDbEntity
  8
Layer_1
 62
7
100
AcDbLine
 10
0.000000
 20
6.110261
 30
0.0
 11
0.000000
 21
3.982746
 31
0.0
  0
LINE
  5
120
100
AcDbEntity
  8
Layer_1
 62
7
100
AcDbLine
 10
0.000000
 20
3.982746
 30
0.0
 11
0.017570
 21
3.574494
 31
0.0
  0
LINE
  5
121
100
AcDbEntity
  8
Layer_1
 62
7
100
AcDbLine
 10
0.017570
 20
3.574494
 30
0.0
 11
0.069246
 21
3.178148
 31
0.0
  0
LINE
  5
122
100
AcDbEntity
  8
Layer_1
 62
7
100
AcDbLine
 10
0.069246
 20
3.178148
 30
0.0
 11
0.152962
 21
2.796249
 31
0.0
  0
LINE
  5
123
100
AcDbEntity
  8
Layer_1
 62
7
100
AcDbLine
 10
0.152962
 20
2.796249
 30
0.0
 11
0.267684
 21
2.429880
 31
0.0
  0
LINE
  5
124
100
AcDbEntity
  8
Layer_1
 62
7
100
AcDbLine
 10
0.267684
 20
2.429880
 30
0.0
 11
0.410828
 21
2.081583
 31
0.0
  0
LINE
  5
125
100
AcDbEntity
  8
Layer_1
 62
7
100
AcDbLine
 10
0.410828
 20
2.081583
 30
0.0
 11
0.581360
 21
1.752917
 31
0.0
  0
LINE
  5
126
100
AcDbEntity
  8
Layer_1
 62
7
100
AcDbLine
 10
0.581360
 20
1.752917
 30
0.0
 11
0.777730
 21
1.446477
 31
0.0
  0
LINE
  5
127
100
AcDbEntity
  8
Layer_1
 62
7
100
AcDbLine
 10
0.777730
 20
1.446477
 30
0.0
 11
0.997872
 21
1.164325
 31
0.0
  0
LINE
  5
128
100
AcDbEntity
  8
Layer_1
 62
7
100
AcDbLine
 10
0.997872
 20
1.164325
 30
0.0
 11
1.239718
 21
0.907494
 31
0.0
  0
LINE
  5
129
100
AcDbEntity
  8
Layer_1
 62
7
100
AcDbLine
 10
1.239718
 20
0.907494
 30
0.0
 11
1.502751
 21
0.678550
 31
0.0
  0
LINE
  5
12a
100
AcDbEntity
  8
Layer_1
 62
7
100
AcDbLine
 10
1.502751
 20
0.678550
 30
0.0
 11
1.783870
 21
0.479610
 31
0.0
  0
LINE
  5
12b
100
AcDbEntity
  8
Layer_1
 62
7
100
AcDbLine
 10
1.783870
 20
0.479610
 30
0.0
 11
2.082560
 21
0.312182
 31
0.0
  0
LINE
  5
12c
100
AcDbEntity
  8
Layer_1
 62
7
100
AcDbLine
 10
2.082560
 20
0.312182
 30
0.0
 11
2.396753
 21
0.178832
 31
0.0
  0
LINE
  5
12d
100
AcDbEntity
  8
Layer_1
 62
7
100
AcDbLine
 10
2.396753
 20
0.178832
 30
0.0
 11
2.724381
 21
0.080671
 31
0.0
  0
LINE
  5
12e
100
AcDbEntity
  8
Layer_1
 62
7
100
AcDbLine
 10
2.724381
 20
0.080671
 30
0.0
 11
3.063896
 21
0.020717
 31
0.0
  0
LINE
  5
12f
100
AcDbEntity
  8
Layer_1
 62
7
100
AcDbLine
 10
3.063896
 20
0.020717
 30
0.0
 11
3.413745
 21
0.000079
 31
0.0
  0
LINE
  5
130
100
AcDbEntity
  8
Layer_1
 62
7
100
AcDbLine
 10
3.413745
 20
0.000079
 30
0.0
 11
4.737179
 21
0.000079
 31
0.0
  0
LINE
  5
131
100
AcDbEntity
  8
Layer_1
 62
7
100
AcDbLine
 10
4.737179
 20
0.000079
 30
0.0
 11
6.060612
 21
0.000079
 31
0.0
  0
LINE
  5
132
100
AcDbEntity
  8
Layer_1
 62
7
100
AcDbLine
 10
6.060612
 20
0.000079
 30
0.0
 11
7.383529
 21
0.000079
 31
0.0
  0
LINE
  5
133
100
AcDbEntity
  8
Layer_1
 62
7
100
AcDbLine
 10
7.383529
 20
0.000079
 30
0.0
 11
8.706962
 21
0.000079
 31
0.0
  0
LINE
  5
134
100
AcDbEntity
  8
Layer_1
 62
7
100
AcDbLine
 10
8.706962
 20
0.000079
 30
0.0
 11
10.030395
 21
0.000079
 31
0.0
  0
LINE
  5
135
100
AcDbEntity
  8
Layer_1
 62
7
100
AcDbLine
 10
10.030395
 20
0.000079
 30
0.0
 11
11.353312
 21
0.000079
 31
0.0
  0
LINE
  5
136
100
AcDbEntity
  8
Layer_1
 62
7
100
AcDbLine
 10
11.353312
 20
0.000079
 30
0.0
 11
12.676745
 21
0.000079
 31
0.0
  0
LINE
  5
137
100
AcDbEntity
  8
Layer_1
 62
7
100
AcDbLine
 10
12.676745
 20
0.000079
 30
0.0
 11
14.000179
 21
0.000079
 31
0.0
  0
LINE
  5
138
100
AcDbEntity
  8
Layer_1
 62
7
100
AcDbLine
 10
14.000179
 20
0.000079
 30
0.0
 11
15.323095
 21
0.000079
 31
0.0
  0
LINE
  5
139
100
AcDbEntity
  8
Layer_1
 62
7
100
AcDbLine
 10
15.323095
 20
0.000079
 30
0.0
 11
16.646529
 21
0.000079
 31
0.0
  0
LINE
  5
13a
100
AcDbEntity
  8
Layer_1
 62
7
100
AcDbLine
 10
16.646529
 20
0.000079
 30
0.0
 11
17.969962
 21
0.000079
 31
0.0
  0
LINE
  5
13b
100
AcDbEntity
  8
Layer_1
 62
7
100
AcDbLine
 10
17.969962
 20
0.000079
 30
0.0
 11
19.292879
 21
0.000079
 31
0.0
  0
LINE
  5
13c
100
AcDbEntity
  8
Layer_1
 62
7
100
AcDbLine
 10
19.292879
 20
0.000079
 30
0.0
 11
20.616312
 21
0.000079
 31
0.0
  0
LINE
  5
13d
100
AcDbEntity
  8
Layer_1
 62
7
100
AcDbLine
 10
20.616312
 20
0.000079
 30
0.0
 11
21.939746
 21
0.000079
 31
0.0
  0
LINE
  5
13e
100
AcDbEntity
  8
Layer_1
 62
7
100
AcDbLine
 10
21.939746
 20
0.000079
 30
0.0
 11
23.262662
 21
0.000079
 31
0.0
  0
LINE
  5
13f
100
AcDbEntity
  8
Layer_1
 62
7
100
AcDbLine
 10
23.262662
 20
0.000079
 30
0.0
 11
24.586096
 21
0.000079
 31
0.0
  0
LINE
  5
140
100
AcDbEntity
  8
Layer_1
 62
7
100
AcDbLine
 10
24.586096
 20
0.000079
 30
0.0
 11
24.935945
 21
0.020717
 31
0.0
  0
LINE
  5
141
100
AcDbEntity
  8
Layer_1
 62
7
100
AcDbLine
 10
24.935945
 20
0.020717
 30
0.0
 11
25.275976
 21
0.080671
 31
0.0
  0
LINE
  5
142
100
AcDbEntity
  8
Layer_1
 62
7
100
AcDbLine
 10
25.275976
 20
0.080671
 30
0.0
 11
25.603605
 21
0.178832
 31
0.0
  0
LINE
  5
143
100
AcDbEntity
  8
Layer_1
 62
7
100
AcDbLine
 10
25.603605
 20
0.178832
 30
0.0
 11
25.917281
 21
0.312182
 31
0.0
  0
LINE
  5
144
100
AcDbEntity
  8
Layer_1
 62
7
100
AcDbLine
 10
25.917281
 20
0.312182
 30
0.0
 11
26.215970
 21
0.479610
 31
0.0
  0
LINE
  5
145
100
AcDbEntity
  8
Layer_1
 62
7
100
AcDbLine
 10
26.215970
 20
0.479610
 30
0.0
 11
26.497608
 21
0.678550
 31
0.0
  0
LINE
  5
146
100
AcDbEntity
  8
Layer_1
 62
7
100
AcDbLine
 10
26.497608
 20
0.678550
 30
0.0
 11
26.760122
 21
0.907494
 31
0.0
  0
LINE
  5
147
100
AcDbEntity
  8
Layer_1
 62
7
100
AcDbLine
 10
26.760122
 20
0.907494
 30
0.0
 11
27.002486
 21
1.164325
 31
0.0
  0
LINE
  5
148
100
AcDbEntity
  8
Layer_1
 62
7
100
AcDbLine
 10
27.002486
 20
1.164325
 30
0.0
 11
27.222111
 21
1.446477
 31
0.0
  0
LINE
  5
149
100
AcDbEntity
  8
Layer_1
 62
7
100
AcDbLine
 10
27.222111
 20
1.446477
 30
0.0
 11
27.418482
 21
1.752917
 31
0.0
  0
LINE
  5
14a
100
AcDbEntity
  8
Layer_1
 62
7
100
AcDbLine
 10
27.418482
 20
1.752917
 30
0.0
 11
27.589014
 21
2.081583
 31
0.0
  0
LINE
  5
14b
100
AcDbEntity
  8
Layer_1
 62
7
100
AcDbLine
 10
27.589014
 20
2.081583
 30
0.0
 11
27.732675
 21
2.429880
 31
0.0
  0
LINE
  5
14c
100
AcDbEntity
  8
Layer_1
 62
7
100
AcDbLine
 10
27.732675
 20
2.429880
 30
0.0
 11
27.846880
 21
2.796249
 31
0.0
  0
LINE
  5
14d
100
AcDbEntity
  8
Layer_1
 62
7
100
AcDbLine
 10
27.846880
 20
2.796249
 30
0.0
 11
27.931112
 21
3.178148
 31
0.0
  0
LINE
  5
14e
100
AcDbEntity
  8
Layer_1
 62
7
100
AcDbLine
 10
27.931112
 20
3.178148
 30
0.0
 11
27.982272
 21
3.574494
 31
0.0
  0
LINE
  5
14f
100
AcDbEntity
  8
Layer_1
 62
7
100
AcDbLine
 10
27.982272
 20
3.574494
 30
0.0
 11
27.999840
 21
3.982746
 31
0.0
  0
LINE
  5
150
100
AcDbEntity
  8
Layer_1
 62
7
100
AcDbLine
 10
27.999840
 20
3.982746
 30
0.0
 11
27.999840
 21
6.110261
 31
0.0
  0
LINE
  5
151
100
AcDbEntity
  8
Layer_1
 62
7
100
AcDbLine
 10
27.999840
 20
6.110261
 30
0.0
 11
27.999840
 21
8.237273
 31
0.0
  0
LINE
  5
152
100
AcDbEntity
  8
Layer_1
 62
7
100
AcDbLine
 10
27.999840
 20
8.237273
 30
0.0
 11
27.999840
 21
10.364258
 31
0.0
  0
LINE
  5
153
100
AcDbEntity
  8
Layer_1
 62
7
100
AcDbLine
 10
27.999840
 20
10.364258
 30
0.0
 11
27.999840
 21
12.491799
 31
0.0
  0
LINE
  5
154
100
AcDbEntity
  8
Layer_1
 62
7
100
AcDbLine
 10
27.999840
 20
12.491799
 30
0.0
 11
27.999840
 21
14.618784
 31
0.0
  0
LINE
  5
155
100
AcDbEntity
  8
Layer_1
 62
7
100
AcDbLine
 10
27.999840
 20
14.618784
 30
0.0
 11
27.999840
 21
16.745796
 31
0.0
  0
LINE
  5
156
100
AcDbEntity
  8
Layer_1
 62
7
100
AcDbLine
 10
27.999840
 20
16.745796
 30
0.0
 11
27.999840
 21
18.872782
 31
0.0
  0
LINE
  5
157
100
AcDbEntity
  8
Layer_1
 62
7
100
AcDbLine
 10
27.999840
 20
18.872782
 30
0.0
 11
27.999840
 21
21.000323
 31
0.0
  0
LINE
  5
158
100
AcDbEntity
  8
Layer_1
 62
7
100
AcDbLine
 10
27.999840
 20
21.000323
 30
0.0
 11
27.999840
 21
23.127308
 31
0.0
  0
LINE
  5
159
100
AcDbEntity
  8
Layer_1
 62
7
100
AcDbLine
 10
27.999840
 20
23.127308
 30
0.0
 11
27.999840
 21
25.254320
 31
0.0
  0
LINE
  5
15a
100
AcDbEntity
  8
Layer_1
 62
7
100
AcDbLine
 10
27.999840
 20
25.254320
 30
0.0
 11
27.999840
 21
27.381332
 31
0.0
  0
LINE
  5
15b
100
AcDbEntity
  8
Layer_1
 62
7
100
AcDbLine
 10
27.999840
 20
27.381332
 30
0.0
 11
27.999840
 21
29.508846
 31
0.0
  0
LINE
  5
15c
100
AcDbEntity
  8
Layer_1
 62
7
100
AcDbLine
 10
27.999840
 20
29.508846
 30
0.0
 11
27.999840
 21
31.635832
 31
0.0
  0
LINE
  5
15d
100
AcDbEntity
  8
Layer_1
 62
7
100
AcDbLine
 10
27.999840
 20
31.635832
 30
0.0
 11
27.999840
 21
33.762841
 31
0.0
  0
LINE
  5
15e
100
AcDbEntity
  8
Layer_1
 62
7
100
AcDbLine
 10
27.999840
 20
33.762841
 30
0.0
 11
27.999840
 21
35.889842
 31
0.0
  0
LINE
  5
15f
100
AcDbEntity
  8
Layer_1
 62
7
100
AcDbLine
 10
27.999840
 20
35.889842
 30
0.0
 11
27.999840
 21
38.017362
 31
0.0
  0
LINE
  5
160
100
AcDbEntity
  8
Layer_1
 62
7
100
AcDbLine
 10
27.999840
 20
38.017362
 30
0.0
 11
27.982272
 21
38.425606
 31
0.0
  0
LINE
  5
161
100
AcDbEntity
  8
Layer_1
 62
7
100
AcDbLine
 10
27.982272
 20
38.425606
 30
0.0
 11
27.931112
 21
38.821447
 31
0.0
  0
LINE
  5
162
100
AcDbEntity
  8
Layer_1
 62
7
100
AcDbLine
 10
27.931112
 20
38.821447
 30
0.0
 11
27.846880
 21
39.203852
 31
0.0
  0
LINE
  5
163
100
AcDbEntity
  8
Layer_1
 62
7
100
AcDbLine
 10
27.846880
 20
39.203852
 30
0.0
 11
27.732675
 21
39.570239
 31
0.0
  0
LINE
  5
164
100
AcDbEntity
  8
Layer_1
 62
7
100
AcDbLine
 10
27.732675
 20
39.570239
 30
0.0
 11
27.589014
 21
39.918539
 31
0.0
  0
LINE
  5
165
100
AcDbEntity
  8
Layer_1
 62
7
100
AcDbLine
 10
27.589014
 20
39.918539
 30
0.0
 11
27.418482
 21
40.246683
 31
0.0
  0
LINE
  5
166
100
AcDbEntity
  8
Layer_1
 62
7
100
AcDbLine
 10
27.418482
 20
40.246683
 30
0.0
 11
27.222111
 21
40.553123
 31
0.0
  0
LINE
  5
167
100
AcDbEntity
  8
Layer_1
 62
7
100
AcDbLine
 10
27.222111
 20
40.553123
 30
0.0
 11
27.002486
 21
40.835794
 31
0.0
  0
LINE
  5
168
100
AcDbEntity
  8
Layer_1
 62
7
100
AcDbLine
 10
27.002486
 20
40.835794
 30
0.0
 11
26.760122
 21
41.092627
 31
0.0
  0
LINE
  5
169
100
AcDbEntity
  8
Layer_1
 62
7
100
AcDbLine
 10
26.760122
 20
41.092627
 30
0.0
 11
26.497608
 21
41.321553
 31
0.0
  0
LINE
  5
16a
100
AcDbEntity
  8
Layer_1
 62
7
100
AcDbLine
 10
26.497608
 20
41.321553
 30
0.0
 11
26.215970
 21
41.520506
 31
0.0
  0
LINE
  5
16b
100
AcDbEntity
  8
Layer_1
 62
7
100
AcDbLine
 10
26.215970
 20
41.520506
 30
0.0
 11
25.917281
 21
41.687940
 31
0.0
  0
LINE
  5
16c
100
AcDbEntity
  8
Layer_1
 62
7
100
AcDbLine
 10
25.917281
 20
41.687940
 30
0.0
 11
25.603605
 21
41.821263
 31
0.0
  0
LINE
  5
16d
100
AcDbEntity
  8
Layer_1
 62
7
100
AcDbLine
 10
25.603605
 20
41.821263
 30
0.0
 11
25.275976
 21
41.919450
 31
0.0
  0
LINE
  5
16e
100
AcDbEntity
  8
Layer_1
 62
7
100
AcDbLine
 10
25.275976
 20
41.919450
 30
0.0
 11
24.935945
 21
41.979394
 31
0.0
  0
LINE
  5
16f
100
AcDbEntity
  8
Layer_1
 62
7
100
AcDbLine
 10
24.935945
 20
41.979394
 30
0.0
 11
24.586096
 21
42.000058
 31
0.0
  0
LINE
  5
170
100
AcDbEntity
  8
Layer_1
 62
7
100
AcDbLine
 10
24.586096
 20
42.000058
 30
0.0
 11
23.262662
 21
42.000058
 31
0.0
  0
LINE
  5
171
100
AcDbEntity
  8
Layer_1
 62
7
100
AcDbLine
 10
23.262662
 20
42.000058
 30
0.0
 11
21.939746
 21
42.000058
 31
0.0
  0
LINE
  5
172
100
AcDbEntity
  8
Layer_1
 62
7
100
AcDbLine
 10
21.939746
 20
42.000058
 30
0.0
 11
20.616312
 21
42.000058
 31
0.0
  0
LINE
  5
173
100
AcDbEntity
  8
Layer_1
 62
7
100
AcDbLine
 10
20.616312
 20
42.000058
 30
0.0
 11
19.292879
 21
42.000058
 31
0.0
  0
LINE
  5
174
100
AcDbEntity
  8
Layer_1
 62
7
100
AcDbLine
 10
19.292879
 20
42.000058
 30
0.0
 11
17.969962
 21
42.000058
 31
0.0
  0
LINE
  5
175
100
AcDbEntity
  8
Layer_1
 62
7
100
AcDbLine
 10
17.969962
 20
42.000058
 30
0.0
 11
16.646529
 21
42.000058
 31
0.0
  0
LINE
  5
176
100
AcDbEntity
  8
Layer_1
 62
7
100
AcDbLine
 10
16.646529
 20
42.000058
 30
0.0
 11
15.323095
 21
42.000058
 31
0.0
  0
LINE
  5
177
100
AcDbEntity
  8
Layer_1
 62
7
100
AcDbLine
 10
15.323095
 20
42.000058
 30
0.0
 11
14.000179
 21
42.000058
 31
0.0
  0
LINE
  5
178
100
AcDbEntity
  8
Layer_1
 62
7
100
AcDbLine
 10
14.000179
 20
42.000058
 30
0.0
 11
12.676745
 21
42.000058
 31
0.0
  0
LINE
  5
179
100
AcDbEntity
  8
Layer_1
 62
7
100
AcDbLine
 10
12.676745
 20
42.000058
 30
0.0
 11
11.353312
 21
42.000058
 31
0.0
  0
LINE
  5
17a
100
AcDbEntity
  8
Layer_1
 62
7
100
AcDbLine
 10
11.353312
 20
42.000058
 30
0.0
 11
10.030395
 21
42.000058
 31
0.0
  0
LINE
  5
17b
100
AcDbEntity
  8
Layer_1
 62
7
100
AcDbLine
 10
10.030395
 20
42.000058
 30
0.0
 11
8.706962
 21
42.000058
 31
0.0
  0
LINE
  5
17c
100
AcDbEntity
  8
Layer_1
 62
7
100
AcDbLine
 10
8.706962
 20
42.000058
 30
0.0
 11
7.383529
 21
42.000058
 31
0.0
  0
LINE
  5
17d
100
AcDbEntity
  8
Layer_1
 62
7
100
AcDbLine
 10
7.383529
 20
42.000058
 30
0.0
 11
6.060612
 21
42.000058
 31
0.0
  0
LINE
  5
17e
100
AcDbEntity
  8
Layer_1
 62
7
100
AcDbLine
 10
6.060612
 20
42.000058
 30
0.0
 11
4.737179
 21
42.000058
 31
0.0
  0
LINE
  5
17f
100
AcDbEntity
  8
Layer_1
 62
7
100
AcDbLine
 10
4.737179
 20
42.000058
 30
0.0
 11
3.413745
 21
42.000063
 31
0.0
  0
LINE
  5
180
100
AcDbEntity
  8
Layer_1
 62
7
100
AcDbLine
 10
4.828646
 20
40.429618
 30
0.0
 11
5.974829
 21
40.429618
 31
0.0
  0
LINE
  5
181
100
AcDbEntity
  8
Layer_1
 62
7
100
AcDbLine
 10
5.974829
 20
40.429618
 30
0.0
 11
7.121529
 21
40.429618
 31
0.0
  0
LINE
  5
182
100
AcDbEntity
  8
Layer_1
 62
7
100
AcDbLine
 10
7.121529
 20
40.429618
 30
0.0
 11
8.267712
 21
40.429618
 31
0.0
  0
LINE
  5
183
100
AcDbEntity
  8
Layer_1
 62
7
100
AcDbLine
 10
8.267712
 20
40.429618
 30
0.0
 11
9.414412
 21
40.429618
 31
0.0
  0
LINE
  5
184
100
AcDbEntity
  8
Layer_1
 62
7
100
AcDbLine
 10
9.414412
 20
40.429618
 30
0.0
 11
10.560595
 21
40.429618
 31
0.0
  0
LINE
  5
185
100
AcDbEntity
  8
Layer_1
 62
7
100
AcDbLine
 10
10.560595
 20
40.429618
 30
0.0
 11
11.707296
 21
40.429618
 31
0.0
  0
LINE
  5
186
100
AcDbEntity
  8
Layer_1
 62
7
100
AcDbLine
 10
11.707296
 20
40.429618
 30
0.0
 11
12.853479
 21
40.429618
 31
0.0
  0
LINE
  5
187
100
AcDbEntity
  8
Layer_1
 62
7
100
AcDbLine
 10
12.853479
 20
40.429618
 30
0.0
 11
14.000179
 21
40.429618
 31
0.0
  0
LINE
  5
188
100
AcDbEntity
  8
Layer_1
 62
7
100
AcDbLine
 10
14.000179
 20
40.429618
 30
0.0
 11
15.146362
 21
40.429618
 31
0.0
  0
LINE
  5
189
100
AcDbEntity
  8
Layer_1
 62
7
100
AcDbLine
 10
15.146362
 20
40.429618
 30
0.0
 11
16.293062
 21
40.429618
 31
0.0
  0
LINE
  5
18a
100
AcDbEntity
  8
Layer_1
 62
7
100
AcDbLine
 10
16.293062
 20
40.429618
 30
0.0
 11
17.439245
 21
40.429618
 31
0.0
  0
LINE
  5
18b
100
AcDbEntity
  8
Layer_1
 62
7
100
AcDbLine
 10
17.439245
 20
40.429618
 30
0.0
 11
18.585945
 21
40.429618
 31
0.0
  0
LINE
  5
18c
100
AcDbEntity
  8
Layer_1
 62
7
100
AcDbLine
 10
18.585945
 20
40.429618
 30
0.0
 11
19.732129
 21
40.429618
 31
0.0
  0
LINE
  5
18d
100
AcDbEntity
  8
Layer_1
 62
7
100
AcDbLine
 10
19.732129
 20
40.429618
 30
0.0
 11
20.878829
 21
40.429618
 31
0.0
  0
LINE
  5
18e
100
AcDbEntity
  8
Layer_1
 62
7
100
AcDbLine
 10
20.878829
 20
40.429618
 30
0.0
 11
22.025012
 21
40.429618
 31
0.0
  0
LINE
  5
18f
100
AcDbEntity
  8
Layer_1
 62
7
100
AcDbLine
 10
22.025012
 20
40.429618
 30
0.0
 11
23.171712
 21
40.429618
 31
0.0
  0
LINE
  5
190
100
AcDbEntity
  8
Layer_1
 62
7
100
AcDbLine
 10
23.171712
 20
40.429618
 30
0.0
 11
23.474536
 21
40.411018
 31
0.0
  0
LINE
  5
191
100
AcDbEntity
  8
Layer_1
 62
7
100
AcDbLine
 10
23.474536
 20
40.411018
 30
0.0
 11
23.769092
 21
40.355210
 31
0.0
  0
LINE
  5
192
100
AcDbEntity
  8
Layer_1
 62
7
100
AcDbLine
 10
23.769092
 20
40.355210
 30
0.0
 11
24.052795
 21
40.264775
 31
0.0
  0
LINE
  5
193
100
AcDbEntity
  8
Layer_1
 62
7
100
AcDbLine
 10
24.052795
 20
40.264775
 30
0.0
 11
24.324613
 21
40.141268
 31
0.0
  0
LINE
  5
194
100
AcDbEntity
  8
Layer_1
 62
7
100
AcDbLine
 10
24.324613
 20
40.141268
 30
0.0
 11
24.583512
 21
39.986240
 31
0.0
  0
LINE
  5
195
100
AcDbEntity
  8
Layer_1
 62
7
100
AcDbLine
 10
24.583512
 20
39.986240
 30
0.0
 11
24.827425
 21
39.802270
 31
0.0
  0
LINE
  5
196
100
AcDbEntity
  8
Layer_1
 62
7
100
AcDbLine
 10
24.827425
 20
39.802270
 30
0.0
 11
25.054801
 21
39.590397
 31
0.0
  0
LINE
  5
197
100
AcDbEntity
  8
Layer_1
 62
7
100
AcDbLine
 10
25.054801
 20
39.590397
 30
0.0
 11
25.264607
 21
39.352685
 31
0.0
  0
LINE
  5
198
100
AcDbEntity
  8
Layer_1
 62
7
100
AcDbLine
 10
25.264607
 20
39.352685
 30
0.0
 11
25.455293
 21
39.091203
 31
0.0
  0
LINE
  5
199
100
AcDbEntity
  8
Layer_1
 62
7
100
AcDbLine
 10
25.455293
 20
39.091203
 30
0.0
 11
25.625309
 21
38.808016
 31
0.0
  0
LINE
  5
19a
100
AcDbEntity
  8
Layer_1
 62
7
100
AcDbLine
 10
25.625309
 20
38.808016
 30
0.0
 11
25.773103
 21
38.504158
 31
0.0
  0
LINE
  5
19b
100
AcDbEntity
  8
Layer_1
 62
7
100
AcDbLine
 10
25.773103
 20
38.504158
 30
0.0
 11
25.897644
 21
38.181697
 31
0.0
  0
LINE
  5
19c
100
AcDbEntity
  8
Layer_1
 62
7
100
AcDbLine
 10
25.897644
 20
38.181697
 30
0.0
 11
25.996346
 21
37.842700
 31
0.0
  0
LINE
  5
19d
100
AcDbEntity
  8
Layer_1
 62
7
100
AcDbLine
 10
25.996346
 20
37.842700
 30
0.0
 11
26.069210
 21
37.489235
 31
0.0
  0
LINE
  5
19e
100
AcDbEntity
  8
Layer_1
 62
7
100
AcDbLine
 10
26.069210
 20
37.489235
 30
0.0
 11
26.114168
 21
37.122332
 31
0.0
  0
LINE
  5
19f
100
AcDbEntity
  8
Layer_1
 62
7
100
AcDbLine
 10
26.114168
 20
37.122332
 30
0.0
 11
26.129154
 21
36.745095
 31
0.0
  0
LINE
  5
1a0
100
AcDbEntity
  8
Layer_1
 62
7
100
AcDbLine
 10
26.129154
 20
36.745095
 30
0.0
 11
26.129154
 21
34.776737
 31
0.0
  0
LINE
  5
1a1
100
AcDbEntity
  8
Layer_1
 62
7
100
AcDbLine
 10
26.129154
 20
34.776737
 30
0.0
 11
26.129154
 21
32.808899
 31
0.0
  0
LINE
  5
1a2
100
AcDbEntity
  8
Layer_1
 62
7
100
AcDbLine
 10
26.129154
 20
32.808899
 30
0.0
 11
26.129154
 21
30.840552
 31
0.0
  0
LINE
  5
1a3
100
AcDbEntity
  8
Layer_1
 62
7
100
AcDbLine
 10
26.129154
 20
30.840552
 30
0.0
 11
26.129154
 21
28.872714
 31
0.0
  0
LINE
  5
1a4
100
AcDbEntity
  8
Layer_1
 62
7
100
AcDbLine
 10
26.129154
 20
28.872714
 30
0.0
 11
26.129154
 21
26.904346
 31
0.0
  0
LINE
  5
1a5
100
AcDbEntity
  8
Layer_1
 62
7
100
AcDbLine
 10
26.129154
 20
26.904346
 30
0.0
 11
26.129154
 21
24.936508
 31
0.0
  0
LINE
  5
1a6
100
AcDbEntity
  8
Layer_1
 62
7
100
AcDbLine
 10
26.129154
 20
24.936508
 30
0.0
 11
26.129154
 21
22.968166
 31
0.0
  0
LINE
  5
1a7
100
AcDbEntity
  8
Layer_1
 62
7
100
AcDbLine
 10
26.129154
 20
22.968166
 30
0.0
 11
26.129154
 21
21.000328
 31
0.0
  0
LINE
  5
1a8
100
AcDbEntity
  8
Layer_1
 62
7
100
AcDbLine
 10
26.129154
 20
21.000328
 30
0.0
 11
26.129154
 21
19.031960
 31
0.0
  0
LINE
  5
1a9
100
AcDbEntity
  8
Layer_1
 62
7
100
AcDbLine
 10
26.129154
 20
19.031960
 30
0.0
 11
26.129154
 21
17.064122
 31
0.0
  0
LINE
  5
1aa
100
AcDbEntity
  8
Layer_1
 62
7
100
AcDbLine
 10
26.129154
 20
17.064122
 30
0.0
 11
26.129154
 21
15.095781
 31
0.0
  0
LINE
  5
1ab
100
AcDbEntity
  8
Layer_1
 62
7
100
AcDbLine
 10
26.129154
 20
15.095781
 30
0.0
 11
26.129154
 21
13.127942
 31
0.0
  0
LINE
  5
1ac
100
AcDbEntity
  8
Layer_1
 62
7
100
AcDbLine
 10
26.129154
 20
13.127942
 30
0.0
 11
26.129154
 21
11.159574
 31
0.0
  0
LINE
  5
1ad
100
AcDbEntity
  8
Layer_1
 62
7
100
AcDbLine
 10
26.129154
 20
11.159574
 30
0.0
 11
26.129154
 21
9.191736
 31
0.0
  0
LINE
  5
1ae
100
AcDbEntity
  8
Layer_1
 62
7
100
AcDbLine
 10
26.129154
 20
9.191736
 30
0.0
 11
26.129154
 21
7.223368
 31
0.0
  0
LINE
  5
1af
100
AcDbEntity
  8
Layer_1
 62
7
100
AcDbLine
 10
26.129154
 20
7.223368
 30
0.0
 11
26.129154
 21
5.255556
 31
0.0
  0
LINE
  5
1b0
100
AcDbEntity
  8
Layer_1
 62
7
100
AcDbLine
 10
26.129154
 20
5.255556
 30
0.0
 11
26.114168
 21
4.877784
 31
0.0
  0
LINE
  5
1b1
100
AcDbEntity
  8
Layer_1
 62
7
100
AcDbLine
 10
26.114168
 20
4.877784
 30
0.0
 11
26.069210
 21
4.510886
 31
0.0
  0
LINE
  5
1b2
100
AcDbEntity
  8
Layer_1
 62
7
100
AcDbLine
 10
26.069210
 20
4.510886
 30
0.0
 11
25.996346
 21
4.157429
 31
0.0
  0
LINE
  5
1b3
100
AcDbEntity
  8
Layer_1
 62
7
100
AcDbLine
 10
25.996346
 20
4.157429
 30
0.0
 11
25.897644
 21
3.818419
 31
0.0
  0
LINE
  5
1b4
100
AcDbEntity
  8
Layer_1
 62
7
100
AcDbLine
 10
25.897644
 20
3.818419
 30
0.0
 11
25.773103
 21
3.495971
 31
0.0
  0
LINE
  5
1b5
100
AcDbEntity
  8
Layer_1
 62
7
100
AcDbLine
 10
25.773103
 20
3.495971
 30
0.0
 11
25.625309
 21
3.192097
 31
0.0
  0
LINE
  5
1b6
100
AcDbEntity
  8
Layer_1
 62
7
100
AcDbLine
 10
25.625309
 20
3.192097
 30
0.0
 11
25.455293
 21
2.908914
 31
0.0
  0
LINE
  5
1b7
100
AcDbEntity
  8
Layer_1
 62
7
100
AcDbLine
 10
25.455293
 20
2.908914
 30
0.0
 11
25.264607
 21
2.647426
 31
0.0
  0
LINE
  5
1b8
100
AcDbEntity
  8
Layer_1
 62
7
100
AcDbLine
 10
25.264607
 20
2.647426
 30
0.0
 11
25.054801
 21
2.409724
 31
0.0
  0
LINE
  5
1b9
100
AcDbEntity
  8
Layer_1
 62
7
100
AcDbLine
 10
25.054801
 20
2.409724
 30
0.0
 11
24.827425
 21
2.197846
 31
0.0
  0
LINE
  5
1ba
100
AcDbEntity
  8
Layer_1
 62
7
100
AcDbLine
 10
24.827425
 20
2.197846
 30
0.0
 11
24.583512
 21
2.013881
 31
0.0
  0
LINE
  5
1bb
100
AcDbEntity
  8
Layer_1
 62
7
100
AcDbLine
 10
24.583512
 20
2.013881
 30
0.0
 11
24.324613
 21
1.858862
 31
0.0
  0
LINE
  5
1bc
100
AcDbEntity
  8
Layer_1
 62
7
100
AcDbLine
 10
24.324613
 20
1.858862
 30
0.0
 11
24.052795
 21
1.735354
 31
0.0
  0
LINE
  5
1bd
100
AcDbEntity
  8
Layer_1
 62
7
100
AcDbLine
 10
24.052795
 20
1.735354
 30
0.0
 11
23.769092
 21
1.644920
 31
0.0
  0
LINE
  5
1be
100
AcDbEntity
  8
Layer_1
 62
7
100
AcDbLine
 10
23.769092
 20
1.644920
 30
0.0
 11
23.474536
 21
1.589093
 31
0.0
  0
LINE
  5
1bf
100
AcDbEntity
  8
Layer_1
 62
7
100
AcDbLine
 10
23.474536
 20
1.589093
 30
0.0
 11
23.171712
 21
1.570572
 31
0.0
  0
LINE
  5
1c0
100
AcDbEntity
  8
Layer_1
 62
7
100
AcDbLine
 10
23.171712
 20
1.570572
 30
0.0
 11
22.025012
 21
1.570572
 31
0.0
  0
LINE
  5
1c1
100
AcDbEntity
  8
Layer_1
 62
7
100
AcDbLine
 10
22.025012
 20
1.570572
 30
0.0
 11
20.878829
 21
1.570572
 31
0.0
  0
LINE
  5
1c2
100
AcDbEntity
  8
Layer_1
 62
7
100
AcDbLine
 10
20.878829
 20
1.570572
 30
0.0
 11
19.732129
 21
1.570572
 31
0.0
  0
LINE
  5
1c3
100
AcDbEntity
  8
Layer_1
 62
7
100
AcDbLine
 10
19.732129
 20
1.570572
 30
0.0
 11
18.585945
 21
1.570572
 31
0.0
  0
LINE
  5
1c4
100
AcDbEntity
  8
Layer_1
 62
7
100
AcDbLine
 10
18.585945
 20
1.570572
 30
0.0
 11
17.439245
 21
1.570572
 31
0.0
  0
LINE
  5
1c5
100
AcDbEntity
  8
Layer_1
 62
7
100
AcDbLine
 10
17.439245
 20
1.570572
 30
0.0
 11
16.293062
 21
1.570572
 31
0.0
  0
LINE
  5
1c6
100
AcDbEntity
  8
Layer_1
 62
7
100
AcDbLine
 10
16.293062
 20
1.570572
 30
0.0
 11
15.146362
 21
1.570572
 31
0.0
  0
LINE
  5
1c7
100
AcDbEntity
  8
Layer_1
 62
7
100
AcDbLine
 10
15.146362
 20
1.570572
 30
0.0
 11
14.000179
 21
1.570572
 31
0.0
  0
LINE
  5
1c8
100
AcDbEntity
  8
Layer_1
 62
7
100
AcDbLine
 10
14.000179
 20
1.570572
 30
0.0
 11
12.853479
 21
1.570572
 31
0.0
  0
LINE
  5
1c9
100
AcDbEntity
  8
Layer_1
 62
7
100
AcDbLine
 10
12.853479
 20
1.570572
 30
0.0
 11
11.707296
 21
1.570572
 31
0.0
  0
LINE
  5
1ca
100
AcDbEntity
  8
Layer_1
 62
7
100
AcDbLine
 10
11.707296
 20
1.570572
 30
0.0
 11
10.560595
 21
1.570572
 31
0.0
  0
LINE
  5
1cb
100
AcDbEntity
  8
Layer_1
 62
7
100
AcDbLine
 10
10.560595
 20
1.570572
 30
0.0
 11
9.414412
 21
1.570572
 31
0.0
  0
LINE
  5
1cc
100
AcDbEntity
  8
Layer_1
 62
7
100
AcDbLine
 10
9.414412
 20
1.570572
 30
0.0
 11
8.267712
 21
1.570572
 31
0.0
  0
LINE
  5
1cd
100
AcDbEntity
  8
Layer_1
 62
7
100
AcDbLine
 10
8.267712
 20
1.570572
 30
0.0
 11
7.121529
 21
1.570572
 31
0.0
  0
LINE
  5
1ce
100
AcDbEntity
  8
Layer_1
 62
7
100
AcDbLine
 10
7.121529
 20
1.570572
 30
0.0
 11
5.974829
 21
1.570572
 31
0.0
  0
LINE
  5
1cf
100
AcDbEntity
  8
Layer_1
 62
7
100
AcDbLine
 10
5.974829
 20
1.570572
 30
0.0
 11
4.828646
 21
1.570572
 31
0.0
  0
LINE
  5
1d0
100
AcDbEntity
  8
Layer_1
 62
7
100
AcDbLine
 10
4.828646
 20
1.570572
 30
0.0
 11
4.525305
 21
1.589093
 31
0.0
  0
LINE
  5
1d1
100
AcDbEntity
  8
Layer_1
 62
7
100
AcDbLine
 10
4.525305
 20
1.589093
 30
0.0
 11
4.230749
 21
1.644920
 31
0.0
  0
LINE
  5
1d2
100
AcDbEntity
  8
Layer_1
 62
7
100
AcDbLine
 10
4.230749
 20
1.644920
 30
0.0
 11
3.947046
 21
1.735354
 31
0.0
  0
LINE
  5
1d3
100
AcDbEntity
  8
Layer_1
 62
7
100
AcDbLine
 10
3.947046
 20
1.735354
 30
0.0
 11
3.675228
 21
1.858862
 31
0.0
  0
LINE
  5
1d4
100
AcDbEntity
  8
Layer_1
 62
7
100
AcDbLine
 10
3.675228
 20
1.858862
 30
0.0
 11
3.416329
 21
2.013881
 31
0.0
  0
LINE
  5
1d5
100
AcDbEntity
  8
Layer_1
 62
7
100
AcDbLine
 10
3.416329
 20
2.013881
 30
0.0
 11
3.172416
 21
2.197846
 31
0.0
  0
LINE
  5
1d6
100
AcDbEntity
  8
Layer_1
 62
7
100
AcDbLine
 10
3.172416
 20
2.197846
 30
0.0
 11
2.945040
 21
2.409724
 31
0.0
  0
LINE
  5
1d7
100
AcDbEntity
  8
Layer_1
 62
7
100
AcDbLine
 10
2.945040
 20
2.409724
 30
0.0
 11
2.735234
 21
2.647426
 31
0.0
  0
LINE
  5
1d8
100
AcDbEntity
  8
Layer_1
 62
7
100
AcDbLine
 10
2.735234
 20
2.647426
 30
0.0
 11
2.544547
 21
2.908914
 31
0.0
  0
LINE
  5
1d9
100
AcDbEntity
  8
Layer_1
 62
7
100
AcDbLine
 10
2.544547
 20
2.908914
 30
0.0
 11
2.374532
 21
3.192097
 31
0.0
  0
LINE
  5
1da
100
AcDbEntity
  8
Layer_1
 62
7
100
AcDbLine
 10
2.374532
 20
3.192097
 30
0.0
 11
2.226737
 21
3.495971
 31
0.0
  0
LINE
  5
1db
100
AcDbEntity
  8
Layer_1
 62
7
100
AcDbLine
 10
2.226737
 20
3.495971
 30
0.0
 11
2.102714
 21
3.818419
 31
0.0
  0
LINE
  5
1dc
100
AcDbEntity
  8
Layer_1
 62
7
100
AcDbLine
 10
2.102714
 20
3.818419
 30
0.0
 11
2.003495
 21
4.157429
 31
0.0
  0
LINE
  5
1dd
100
AcDbEntity
  8
Layer_1
 62
7
100
AcDbLine
 10
2.003495
 20
4.157429
 30
0.0
 11
1.930631
 21
4.510886
 31
0.0
  0
LINE
  5
1de
100
AcDbEntity
  8
Layer_1
 62
7
100
AcDbLine
 10
1.930631
 20
4.510886
 30
0.0
 11
1.886190
 21
4.877784
 31
0.0
  0
LINE
  5
1df
100
AcDbEntity
  8
Layer_1
 62
7
100
AcDbLine
 10
1.886190
 20
4.877784
 30
0.0
 11
1.870687
 21
5.255556
 31
0.0
  0
LINE
  5
1e0
100
AcDbEntity
  8
Layer_1
 62
7
100
AcDbLine
 10
1.870687
 20
5.255556
 30
0.0
 11
1.870687
 21
7.223368
 31
0.0
  0
LINE
  5
1e1
100
AcDbEntity
  8
Layer_1
 62
7
100
AcDbLine
 10
1.870687
 20
7.223368
 30
0.0
 11
1.870687
 21
9.191736
 31
0.0
  0
LINE
  5
1e2
100
AcDbEntity
  8
Layer_1
 62
7
100
AcDbLine
 10
1.870687
 20
9.191736
 30
0.0
 11
1.870687
 21
11.159574
 31
0.0
  0
LINE
  5
1e3
100
AcDbEntity
  8
Layer_1
 62
7
100
AcDbLine
 10
1.870687
 20
11.159574
 30
0.0
 11
1.870687
 21
13.127942
 31
0.0
  0
LINE
  5
1e4
100
AcDbEntity
  8
Layer_1
 62
7
100
AcDbLine
 10
1.870687
 20
13.127942
 30
0.0
 11
1.870687
 21
15.095781
 31
0.0
  0
LINE
  5
1e5
100
AcDbEntity
  8
Layer_1
 62
7
100
AcDbLine
 10
1.870687
 20
15.095781
 30
0.0
 11
1.870687
 21
17.064122
 31
0.0
  0
LINE
  5
1e6
100
AcDbEntity
  8
Layer_1
 62
7
100
AcDbLine
 10
1.870687
 20
17.064122
 30
0.0
 11
1.870687
 21
19.031960
 31
0.0
  0
LINE
  5
1e7
100
AcDbEntity
  8
Layer_1
 62
7
100
AcDbLine
 10
1.870687
 20
19.031960
 30
0.0
 11
1.870687
 21
21.000328
 31
0.0
  0
LINE
  5
1e8
100
AcDbEntity
  8
Layer_1
 62
7
100
AcDbLine
 10
1.870687
 20
21.000328
 30
0.0
 11
1.870687
 21
22.968166
 31
0.0
  0
LINE
  5
1e9
100
AcDbEntity
  8
Layer_1
 62
7
100
AcDbLine
 10
1.870687
 20
22.968166
 30
0.0
 11
1.870687
 21
24.936508
 31
0.0
  0
LINE
  5
1ea
100
AcDbEntity
  8
Layer_1
 62
7
100
AcDbLine
 10
1.870687
 20
24.936508
 30
0.0
 11
1.870687
 21
26.904346
 31
0.0
  0
LINE
  5
1eb
100
AcDbEntity
  8
Layer_1
 62
7
100
AcDbLine
 10
1.870687
 20
26.904346
 30
0.0
 11
1.870687
 21
28.872714
 31
0.0
  0
LINE
  5
1ec
100
AcDbEntity
  8
Layer_1
 62
7
100
AcDbLine
 10
1.870687
 20
28.872714
 30
0.0
 11
1.870687
 21
30.840552
 31
0.0
  0
LINE
  5
1ed
100
AcDbEntity
  8
Layer_1
 62
7
100
AcDbLine
 10
1.870687
 20
30.840552
 30
0.0
 11
1.870687
 21
32.808899
 31
0.0
  0
LINE
  5
1ee
100
AcDbEntity
  8
Layer_1
 62
7
100
AcDbLine
 10
1.870687
 20
32.808899
 30
0.0
 11
1.870687
 21
34.776737
 31
0.0
  0
LINE
  5
1ef
100
AcDbEntity
  8
Layer_1
 62
7
100
AcDbLine
 10
1.870687
 20
34.776737
 30
0.0
 11
1.870687
 21
36.744576
 31
0.0
  0
LINE
  5
1f0
100
AcDbEntity
  8
Layer_1
 62
7
100
AcDbLine
 10
1.870687
 20
36.744576
 30
0.0
 11
1.886190
 21
37.122848
 31
0.0
  0
LINE
  5
1f1
100
AcDbEntity
  8
Layer_1
 62
7
100
AcDbLine
 10
1.886190
 20
37.122848
 30
0.0
 11
1.930631
 21
37.489235
 31
0.0
  0
LINE
  5
1f2
100
AcDbEntity
  8
Layer_1
 62
7
100
AcDbLine
 10
1.930631
 20
37.489235
 30
0.0
 11
2.003495
 21
37.843219
 31
0.0
  0
LINE
  5
1f3
100
AcDbEntity
  8
Layer_1
 62
7
100
AcDbLine
 10
2.003495
 20
37.843219
 30
0.0
 11
2.102714
 21
38.181697
 31
0.0
  0
LINE
  5
1f4
100
AcDbEntity
  8
Layer_1
 62
7
100
AcDbLine
 10
2.102714
 20
38.181697
 30
0.0
 11
2.226737
 21
38.504158
 31
0.0
  0
LINE
  5
1f5
100
AcDbEntity
  8
Layer_1
 62
7
100
AcDbLine
 10
2.226737
 20
38.504158
 30
0.0
 11
2.374532
 21
38.808016
 31
0.0
  0
LINE
  5
1f6
100
AcDbEntity
  8
Layer_1
 62
7
100
AcDbLine
 10
2.374532
 20
38.808016
 30
0.0
 11
2.544547
 21
39.091721
 31
0.0
  0
LINE
  5
1f7
100
AcDbEntity
  8
Layer_1
 62
7
100
AcDbLine
 10
2.544547
 20
39.091721
 30
0.0
 11
2.735234
 21
39.352685
 31
0.0
  0
LINE
  5
1f8
100
AcDbEntity
  8
Layer_1
 62
7
100
AcDbLine
 10
2.735234
 20
39.352685
 30
0.0
 11
2.945040
 21
39.590397
 31
0.0
  0
LINE
  5
1f9
100
AcDbEntity
  8
Layer_1
 62
7
100
AcDbLine
 10
2.945040
 20
39.590397
 30
0.0
 11
3.172416
 21
39.802270
 31
0.0
  0
LINE
  5
1fa
100
AcDbEntity
  8
Layer_1
 62
7
100
AcDbLine
 10
3.172416
 20
39.802270
 30
0.0
 11
3.416329
 21
39.986240
 31
0.0
  0
LINE
  5
1fb
100
AcDbEntity
  8
Layer_1
 62
7
100
AcDbLine
 10
3.416329
 20
39.986240
 30
0.0
 11
3.675228
 21
40.141268
 31
0.0
  0
LINE
  5
1fc
100
AcDbEntity
  8
Layer_1
 62
7
100
AcDbLine
 10
3.675228
 20
40.141268
 30
0.0
 11
3.947046
 21
40.264775
 31
0.0
  0
LINE
  5
1fd
100
AcDbEntity
  8
Layer_1
 62
7
100
AcDbLine
 10
3.947046
 20
40.264775
 30
0.0
 11
4.230749
 21
40.355210
 31
0.0
  0
LINE
  5
1fe
100
AcDbEntity
  8
Layer_1
 62
7
100
AcDbLine
 10
4.230749
 20
40.355210
 30
0.0
 11
4.525305
 21
40.411018
 31
0.0
  0
LINE
  5
1ff
100
AcDbEntity
  8
Layer_1
 62
7
100
AcDbLine
 10
4.525305
 20
40.411018
 30
0.0
 11
4.828646
 21
40.429618
 31
0.0
  0
ENDSEC
  0
SECTION
  2
OBJECTS
  0
DICTIONARY
  5
C
330
0
100
AcDbDictionary
  3
ACAD_GROUP
350
D
  3
ACAD_MLINESTYLE
350
17
  0
DICTIONARY
  5
D
330
C
100
AcDbDictionary
  0
DICTIONARY
  5
1A
330
C
100
AcDbDictionary
  0
DICTIONARY
  5
17
330
C
100
AcDbDictionary
  3
STANDARD
350
18
  0
DICTIONARY
  5
19
330
C
100
AcDbDictionary
  0
ENDSEC
  0
EOF
