  0
SECTION
  2
HEADER
  9
$ACADVER
  1
AC1014
  9
$HANDSEED
  5
FFFF
  9
$MEASUREMENT
 70
     1
  0
ENDSEC
  0
SECTION
  2
TABLES
  0
TABLE
  2
VPORT
  5
8
330
0
100
AcDbSymbolTable
 70
     4
  0
VPORT
  5
2E
330
8
100
AcDbSymbolTableRecord
100
AcDbViewportTableRecord
  2
*ACTIVE
 70
     0
 10
0.0
 20
0.0
 11
1.0
 21
1.0
 12
210.0
 22
148.5
 13
0.0
 23
0.0
 14
10.0
 24
10.0
 15
10.0
 25
10.0
 16
0.0
 26
0.0
 36
1.0
 17
0.0
 27
0.0
 37
0.0
 40
341.0
 41
1.24
 42
50.0
 43
0.0
 44
0.0
 50
0.0
 51
0.0
 71
     0
 72
   100
 73
     1
 74
     3
 75
     0
 76
     0
 77
     0
 78
     0
  0
ENDTAB
  0
TABLE
  2
LTYPE
  5
5
330
0
100
AcDbSymbolTable
 70
     1
  0
LTYPE
  5
14
330
5
100
AcDbSymbolTableRecord
100
AcDbLinetypeTableRecord
  2
BYBLOCK
 70
     0
  3

 72
    65
 73
     0
 40
0.0
  0
LTYPE
  5
15
330
5
100
AcDbSymbolTableRecord
100
AcDbLinetypeTableRecord
  2
BYLAYER
 70
     0
  3

 72
    65
 73
     0
 40
0.0
  0
LTYPE
  5
16
330
5
100
AcDbSymbolTableRecord
100
AcDbLinetypeTableRecord
  2
CONTINUOUS
 70
     0
  3
Solid line
 72
    65
 73
     0
 40
0.0
  0
ENDTAB
  0
TABLE
  2
LAYER
  5
2
100
AcDbSymbolTable
 70
2
  0
LAYER
  5
50
100
AcDbSymbolTableRecord
100
AcDbLayerTableRecord
  2
0
 70
0
  6
CONTINUOUS
  0
LAYER
  5
51
100
AcDbSymbolTableRecord
100
AcDbLayerTableRecord
  2
Layer_1
 70
0
  6
CONTINUOUS
  0
ENDTAB
  0
TABLE
  2
STYLE
  5
3
330
0
100
AcDbSymbolTable
 70
     1
  0
STYLE
  5
11
330
3
100
AcDbSymbolTableRecord
100
AcDbTextStyleTableRecord
  2
STANDARD
 70
     0
 40
0.0
 41
1.0
 50
0.0
 71
     0
 42
2.5
  3
txt
  4

  0
ENDTAB
  0
TABLE
  2
VIEW
  5
6
330
0
100
AcDbSymbolTable
 70
     0
  0
ENDTAB
  0
TABLE
  2
UCS
  5
7
330
0
100
AcDbSymbolTable
 70
     0
  0
ENDTAB
  0
TABLE
  2
APPID
  5
9
330
0
100
AcDbSymbolTable
 70
     2
  0
APPID
  5
12
330
9
100
AcDbSymbolTableRecord
100
AcDbRegAppTableRecord
  2
ACAD
 70
     0
  0
ENDTAB
  0
TABLE
  2
DIMSTYLE
  5
A
330
0
100
AcDbSymbolTable
 70
     1
  0
DIMSTYLE
105
27
330
A
100
AcDbSymbolTableRecord
100
AcDbDimStyleTableRecord
  2
ISO-25
 70
     0
  3

  4

  5

  6

  7

 40
1.0
 41
2.5
 42
0.625
 43
3.75
 44
1.25
 45
0.0
 46
0.0
 47
0.0
 48
0.0
140
2.5
141
2.5
142
0.0
143
0.03937007874016
144
1.0
145
0.0
146
1.0
147
0.625
 71
     0
 72
     0
 73
     0
 74
     0
 75
     0
 76
     0
 77
     1
 78
     8
170
     0
171
     3
172
     1
173
     0
174
     0
175
     0
176
     0
177
     0
178
     0
270
     2
271
     2
272
     2
273
     2
274
     3
340
11
275
     0
280
     0
281
     0
282
     0
283
     0
284
     8
285
     0
286
     0
287
     3
288
     0
  0
ENDTAB
  0
TABLE
  2
BLOCK_RECORD
  5
1
330
0
100
AcDbSymbolTable
 70
     1
  0
BLOCK_RECORD
  5
1F
330
1
100
AcDbSymbolTableRecord
100
AcDbBlockTableRecord
  2
*MODEL_SPACE
  0
BLOCK_RECORD
  5
1B
330
1
100
AcDbSymbolTableRecord
100
AcDbBlockTableRecord
  2
*PAPER_SPACE
  0
ENDTAB
  0
ENDSEC
  0
SECTION
  2
BLOCKS
  0
BLOCK
  5
20
330
1F
100
AcDbEntity
  8
0
100
AcDbBlockBegin
  2
*MODEL_SPACE
 70
     0
 10
0.0
 20
0.0
 30
0.0
  3
*MODEL_SPACE
  1

  0
ENDBLK
  5
21
330
1F
100
AcDbEntity
  8
0
100
AcDbBlockEnd
  0
BLOCK
  5
1C
330
1B
100
AcDbEntity
 67
     1
  8
0
100
AcDbBlockBegin
  2
*PAPER_SPACE
  1

  0
ENDBLK
  5
1D
330
1B
100
AcDbEntity
 67
     1
  8
0
100
AcDbBlockEnd
  0
ENDSEC
  0
SECTION
  2
ENTITIES
  0
LINE
  5
100
100
AcDbEntity
  8
Layer_1
 62
3
100
AcDbLine
 10
18.197097
 20
4.980530
 30
0.0
 11
18.114357
 21
4.159760
 31
0.0
  0
LINE
  5
101
100
AcDbEntity
  8
Layer_1
 62
3
100
AcDbLine
 10
18.114357
 20
4.159760
 30
0.0
 11
17.877051
 21
3.395290
 31
0.0
  0
LINE
  5
102
100
AcDbEntity
  8
Layer_1
 62
3
100
AcDbLine
 10
17.877051
 20
3.395290
 30
0.0
 11
17.501559
 21
2.703490
 31
0.0
  0
LINE
  5
103
100
AcDbEntity
  8
Layer_1
 62
3
100
AcDbLine
 10
17.501559
 20
2.703490
 30
0.0
 11
17.004257
 21
2.100760
 31
0.0
  0
LINE
  5
104
100
AcDbEntity
  8
Layer_1
 62
3
100
AcDbLine
 10
17.004257
 20
2.100760
 30
0.0
 11
16.401521
 21
1.603460
 31
0.0
  0
LINE
  5
105
100
AcDbEntity
  8
Layer_1
 62
3
100
AcDbLine
 10
16.401521
 20
1.603460
 30
0.0
 11
15.709730
 21
1.227970
 31
0.0
  0
LINE
  5
106
100
AcDbEntity
  8
Layer_1
 62
3
100
AcDbLine
 10
15.709730
 20
1.227970
 30
0.0
 11
14.945259
 21
0.990660
 31
0.0
  0
LINE
  5
107
100
AcDbEntity
  8
Layer_1
 62
3
100
AcDbLine
 10
14.945259
 20
0.990660
 30
0.0
 11
14.124486
 21
0.907960
 31
0.0
  0
LINE
  5
108
100
AcDbEntity
  8
Layer_1
 62
3
100
AcDbLine
 10
14.124486
 20
0.907960
 30
0.0
 11
13.303713
 21
0.990660
 31
0.0
  0
LINE
  5
109
100
AcDbEntity
  8
Layer_1
 62
3
100
AcDbLine
 10
13.303713
 20
0.990660
 30
0.0
 11
12.539242
 21
1.227970
 31
0.0
  0
LINE
  5
10a
100
AcDbEntity
  8
Layer_1
 62
3
100
AcDbLine
 10
12.539242
 20
1.227970
 30
0.0
 11
11.847451
 21
1.603460
 31
0.0
  0
LINE
  5
10b
100
AcDbEntity
  8
Layer_1
 62
3
100
AcDbLine
 10
11.847451
 20
1.603460
 30
0.0
 11
11.244715
 21
2.100760
 31
0.0
  0
LINE
  5
10c
100
AcDbEntity
  8
Layer_1
 62
3
100
AcDbLine
 10
11.244715
 20
2.100760
 30
0.0
 11
10.747413
 21
2.703490
 31
0.0
  0
LINE
  5
10d
100
AcDbEntity
  8
Layer_1
 62
3
100
AcDbLine
 10
10.747413
 20
2.703490
 30
0.0
 11
10.371921
 21
3.395290
 31
0.0
  0
LINE
  5
10e
100
AcDbEntity
  8
Layer_1
 62
3
100
AcDbLine
 10
10.371921
 20
3.395290
 30
0.0
 11
10.134615
 21
4.159760
 31
0.0
  0
LINE
  5
10f
100
AcDbEntity
  8
Layer_1
 62
3
100
AcDbLine
 10
10.134615
 20
4.159760
 30
0.0
 11
10.051875
 21
4.980530
 31
0.0
  0
LINE
  5
110
100
AcDbEntity
  8
Layer_1
 62
3
100
AcDbLine
 10
10.051875
 20
4.980530
 30
0.0
 11
10.134615
 21
5.801300
 31
0.0
  0
LINE
  5
111
100
AcDbEntity
  8
Layer_1
 62
3
100
AcDbLine
 10
10.134615
 20
5.801300
 30
0.0
 11
10.371921
 21
6.565770
 31
0.0
  0
LINE
  5
112
100
AcDbEntity
  8
Layer_1
 62
3
100
AcDbLine
 10
10.371921
 20
6.565770
 30
0.0
 11
10.747413
 21
7.257570
 31
0.0
  0
LINE
  5
113
100
AcDbEntity
  8
Layer_1
 62
3
100
AcDbLine
 10
10.747413
 20
7.257570
 30
0.0
 11
11.244715
 21
7.860300
 31
0.0
  0
LINE
  5
114
100
AcDbEntity
  8
Layer_1
 62
3
100
AcDbLine
 10
11.244715
 20
7.860300
 30
0.0
 11
11.847451
 21
8.357600
 31
0.0
  0
LINE
  5
115
100
AcDbEntity
  8
Layer_1
 62
3
100
AcDbLine
 10
11.847451
 20
8.357600
 30
0.0
 11
12.539242
 21
8.733090
 31
0.0
  0
LINE
  5
116
100
AcDbEntity
  8
Layer_1
 62
3
100
AcDbLine
 10
12.539242
 20
8.733090
 30
0.0
 11
13.303713
 21
8.970400
 31
0.0
  0
LINE
  5
117
100
AcDbEntity
  8
Layer_1
 62
3
100
AcDbLine
 10
13.303713
 20
8.970400
 30
0.0
 11
14.124486
 21
9.053100
 31
0.0
  0
LINE
  5
118
100
AcDbEntity
  8
Layer_1
 62
3
100
AcDbLine
 10
14.124486
 20
9.053100
 30
0.0
 11
14.945259
 21
8.970400
 31
0.0
  0
LINE
  5
119
100
AcDbEntity
  8
Layer_1
 62
3
100
AcDbLine
 10
14.945259
 20
8.970400
 30
0.0
 11
15.709730
 21
8.733090
 31
0.0
  0
LINE
  5
11a
100
AcDbEntity
  8
Layer_1
 62
3
100
AcDbLine
 10
15.709730
 20
8.733090
 30
0.0
 11
16.401521
 21
8.357600
 31
0.0
  0
LINE
  5
11b
100
AcDbEntity
  8
Layer_1
 62
3
100
AcDbLine
 10
16.401521
 20
8.357600
 30
0.0
 11
17.004257
 21
7.860300
 31
0.0
  0
LINE
  5
11c
100
AcDbEntity
  8
Layer_1
 62
3
100
AcDbLine
 10
17.004257
 20
7.860300
 30
0.0
 11
17.501559
 21
7.257570
 31
0.0
  0
LINE
  5
11d
100
AcDbEntity
  8
Layer_1
 62
3
100
AcDbLine
 10
17.501559
 20
7.257570
 30
0.0
 11
17.877051
 21
6.565770
 31
0.0
  0
LINE
  5
11e
100
AcDbEntity
  8
Layer_1
 62
3
100
AcDbLine
 10
17.877051
 20
6.565770
 30
0.0
 11
18.114357
 21
5.801300
 31
0.0
  0
LINE
  5
11f
100
AcDbEntity
  8
Layer_1
 62
3
100
AcDbLine
 10
18.114357
 20
5.801300
 30
0.0
 11
18.197097
 21
4.980530
 31
0.0
  0
LINE
  5
120
100
AcDbEntity
  8
Layer_1
 62
3
100
AcDbLine
 10
15.752936
 20
11.227940
 30
0.0
 11
15.719856
 21
10.899750
 31
0.0
  0
LINE
  5
121
100
AcDbEntity
  8
Layer_1
 62
3
100
AcDbLine
 10
15.719856
 20
10.899750
 30
0.0
 11
15.624966
 21
10.594070
 31
0.0
  0
LINE
  5
122
100
AcDbEntity
  8
Layer_1
 62
3
100
AcDbLine
 10
15.624966
 20
10.594070
 30
0.0
 11
15.474824
 21
10.317460
 31
0.0
  0
LINE
  5
123
100
AcDbEntity
  8
Layer_1
 62
3
100
AcDbLine
 10
15.474824
 20
10.317460
 30
0.0
 11
15.275976
 21
10.076450
 31
0.0
  0
LINE
  5
124
100
AcDbEntity
  8
Layer_1
 62
3
100
AcDbLine
 10
15.275976
 20
10.076450
 30
0.0
 11
15.034969
 21
9.877600
 31
0.0
  0
LINE
  5
125
100
AcDbEntity
  8
Layer_1
 62
3
100
AcDbLine
 10
15.034969
 20
9.877600
 30
0.0
 11
14.758353
 21
9.727460
 31
0.0
  0
LINE
  5
126
100
AcDbEntity
  8
Layer_1
 62
3
100
AcDbLine
 10
14.758353
 20
9.727460
 30
0.0
 11
14.452677
 21
9.632560
 31
0.0
  0
LINE
  5
127
100
AcDbEntity
  8
Layer_1
 62
3
100
AcDbLine
 10
14.452677
 20
9.632560
 30
0.0
 11
14.124487
 21
9.599460
 31
0.0
  0
LINE
  5
128
100
AcDbEntity
  8
Layer_1
 62
3
100
AcDbLine
 10
14.124487
 20
9.599460
 30
0.0
 11
13.796297
 21
9.632560
 31
0.0
  0
LINE
  5
129
100
AcDbEntity
  8
Layer_1
 62
3
100
AcDbLine
 10
13.796297
 20
9.632560
 30
0.0
 11
13.490621
 21
9.727460
 31
0.0
  0
LINE
  5
12a
100
AcDbEntity
  8
Layer_1
 62
3
100
AcDbLine
 10
13.490621
 20
9.727460
 30
0.0
 11
13.214005
 21
9.877600
 31
0.0
  0
LINE
  5
12b
100
AcDbEntity
  8
Layer_1
 62
3
100
AcDbLine
 10
13.214005
 20
9.877600
 30
0.0
 11
12.972998
 21
10.076450
 31
0.0
  0
LINE
  5
12c
100
AcDbEntity
  8
Layer_1
 62
3
100
AcDbLine
 10
12.972998
 20
10.076450
 30
0.0
 11
12.774150
 21
10.317460
 31
0.0
  0
LINE
  5
12d
100
AcDbEntity
  8
Layer_1
 62
3
100
AcDbLine
 10
12.774150
 20
10.317460
 30
0.0
 11
12.624008
 21
10.594070
 31
0.0
  0
LINE
  5
12e
100
AcDbEntity
  8
Layer_1
 62
3
100
AcDbLine
 10
12.624008
 20
10.594070
 30
0.0
 11
12.529118
 21
10.899750
 31
0.0
  0
LINE
  5
12f
100
AcDbEntity
  8
Layer_1
 62
3
100
AcDbLine
 10
12.529118
 20
10.899750
 30
0.0
 11
12.496038
 21
11.227940
 31
0.0
  0
LINE
  5
130
100
AcDbEntity
  8
Layer_1
 62
3
100
AcDbLine
 10
12.496038
 20
11.227940
 30
0.0
 11
12.529118
 21
11.556130
 31
0.0
  0
LINE
  5
131
100
AcDbEntity
  8
Layer_1
 62
3
100
AcDbLine
 10
12.529118
 20
11.556130
 30
0.0
 11
12.624008
 21
11.861810
 31
0.0
  0
LINE
  5
132
100
AcDbEntity
  8
Layer_1
 62
3
100
AcDbLine
 10
12.624008
 20
11.861810
 30
0.0
 11
12.774150
 21
12.138420
 31
0.0
  0
LINE
  5
133
100
AcDbEntity
  8
Layer_1
 62
3
100
AcDbLine
 10
12.774150
 20
12.138420
 30
0.0
 11
12.972998
 21
12.379430
 31
0.0
  0
LINE
  5
134
100
AcDbEntity
  8
Layer_1
 62
3
100
AcDbLine
 10
12.972998
 20
12.379430
 30
0.0
 11
13.214005
 21
12.578280
 31
0.0
  0
LINE
  5
135
100
AcDbEntity
  8
Layer_1
 62
3
100
AcDbLine
 10
13.214005
 20
12.578280
 30
0.0
 11
13.490620
 21
12.728420
 31
0.0
  0
LINE
  5
136
100
AcDbEntity
  8
Layer_1
 62
3
100
AcDbLine
 10
13.490620
 20
12.728420
 30
0.0
 11
13.796297
 21
12.823320
 31
0.0
  0
LINE
  5
137
100
AcDbEntity
  8
Layer_1
 62
3
100
AcDbLine
 10
13.796297
 20
12.823320
 30
0.0
 11
14.124487
 21
12.856420
 31
0.0
  0
LINE
  5
138
100
AcDbEntity
  8
Layer_1
 62
3
100
AcDbLine
 10
14.124487
 20
12.856420
 30
0.0
 11
14.452677
 21
12.823320
 31
0.0
  0
LINE
  5
139
100
AcDbEntity
  8
Layer_1
 62
3
100
AcDbLine
 10
14.452677
 20
12.823320
 30
0.0
 11
14.758354
 21
12.728420
 31
0.0
  0
LINE
  5
13a
100
AcDbEntity
  8
Layer_1
 62
3
100
AcDbLine
 10
14.758354
 20
12.728420
 30
0.0
 11
15.034969
 21
12.578280
 31
0.0
  0
LINE
  5
13b
100
AcDbEntity
  8
Layer_1
 62
3
100
AcDbLine
 10
15.034969
 20
12.578280
 30
0.0
 11
15.275976
 21
12.379430
 31
0.0
  0
LINE
  5
13c
100
AcDbEntity
  8
Layer_1
 62
3
100
AcDbLine
 10
15.275976
 20
12.379430
 30
0.0
 11
15.474824
 21
12.138420
 31
0.0
  0
LINE
  5
13d
100
AcDbEntity
  8
Layer_1
 62
3
100
AcDbLine
 10
15.474824
 20
12.138420
 30
0.0
 11
15.624966
 21
11.861810
 31
0.0
  0
LINE
  5
13e
100
AcDbEntity
  8
Layer_1
 62
3
100
AcDbLine
 10
15.624966
 20
11.861810
 30
0.0
 11
15.719856
 21
11.556130
 31
0.0
  0
LINE
  5
13f
100
AcDbEntity
  8
Layer_1
 62
3
100
AcDbLine
 10
15.719856
 20
11.556130
 30
0.0
 11
15.752936
 21
11.227940
 31
0.0
  0
LINE
  5
140
100
AcDbEntity
  8
Layer_1
 62
3
100
AcDbLine
 10
19.487182
 20
38.355325
 30
0.0
 11
19.111495
 21
37.979122
 31
0.0
  0
LINE
  5
141
100
AcDbEntity
  8
Layer_1
 62
3
100
AcDbLine
 10
19.111495
 20
37.979122
 30
0.0
 11
19.111495
 21
31.139738
 31
0.0
  0
LINE
  5
142
100
AcDbEntity
  8
Layer_1
 62
3
100
AcDbLine
 10
19.111495
 20
31.139738
 30
0.0
 11
18.833476
 21
30.910291
 31
0.0
  0
LINE
  5
143
100
AcDbEntity
  8
Layer_1
 62
3
100
AcDbLine
 10
18.833476
 20
30.910291
 30
0.0
 11
18.324980
 21
30.293812
 31
0.0
  0
LINE
  5
144
100
AcDbEntity
  8
Layer_1
 62
3
100
AcDbLine
 10
18.324980
 20
30.293812
 30
0.0
 11
17.941024
 21
29.586343
 31
0.0
  0
LINE
  5
145
100
AcDbEntity
  8
Layer_1
 62
3
100
AcDbLine
 10
17.941024
 20
29.586343
 30
0.0
 11
17.698144
 21
28.804499
 31
0.0
  0
LINE
  5
146
100
AcDbEntity
  8
Layer_1
 62
3
100
AcDbLine
 10
17.698144
 20
28.804499
 30
0.0
 11
17.613395
 21
27.965267
 31
0.0
  0
LINE
  5
147
100
AcDbEntity
  8
Layer_1
 62
3
100
AcDbLine
 10
17.613395
 20
27.965267
 30
0.0
 11
17.698144
 21
27.126035
 31
0.0
  0
LINE
  5
148
100
AcDbEntity
  8
Layer_1
 62
3
100
AcDbLine
 10
17.698144
 20
27.126035
 30
0.0
 11
17.941024
 21
26.344165
 31
0.0
  0
LINE
  5
149
100
AcDbEntity
  8
Layer_1
 62
3
100
AcDbLine
 10
17.941024
 20
26.344165
 30
0.0
 11
18.324980
 21
25.636722
 31
0.0
  0
LINE
  5
14a
100
AcDbEntity
  8
Layer_1
 62
3
100
AcDbLine
 10
18.324980
 20
25.636722
 30
0.0
 11
18.833476
 21
25.020217
 31
0.0
  0
LINE
  5
14b
100
AcDbEntity
  8
Layer_1
 62
3
100
AcDbLine
 10
18.833476
 20
25.020217
 30
0.0
 11
19.111495
 21
24.790770
 31
0.0
  0
LINE
  5
14c
100
AcDbEntity
  8
Layer_1
 62
3
100
AcDbLine
 10
19.111495
 20
24.790770
 30
0.0
 11
19.111495
 21
18.150363
 31
0.0
  0
LINE
  5
14d
100
AcDbEntity
  8
Layer_1
 62
3
100
AcDbLine
 10
19.111495
 20
18.150363
 30
0.0
 11
19.487182
 21
17.774152
 31
0.0
  0
LINE
  5
14e
100
AcDbEntity
  8
Layer_1
 62
3
100
AcDbLine
 10
19.487182
 20
17.774152
 30
0.0
 11
19.869588
 21
17.774152
 31
0.0
  0
LINE
  5
14f
100
AcDbEntity
  8
Layer_1
 62
3
100
AcDbLine
 10
19.869588
 20
17.774152
 30
0.0
 11
20.245276
 21
18.150363
 31
0.0
  0
LINE
  5
150
100
AcDbEntity
  8
Layer_1
 62
3
100
AcDbLine
 10
20.245276
 20
18.150363
 30
0.0
 11
20.245276
 21
24.100393
 31
0.0
  0
LINE
  5
151
100
AcDbEntity
  8
Layer_1
 62
3
100
AcDbLine
 10
20.245276
 20
24.100393
 30
0.0
 11
20.245276
 21
25.750414
 31
0.0
  0
LINE
  5
152
100
AcDbEntity
  8
Layer_1
 62
3
100
AcDbLine
 10
20.245276
 20
25.750414
 30
0.0
 11
19.871655
 21
26.058415
 31
0.0
  0
LINE
  5
153
100
AcDbEntity
  8
Layer_1
 62
3
100
AcDbLine
 10
19.871655
 20
26.058415
 30
0.0
 11
19.542476
 21
26.457354
 31
0.0
  0
LINE
  5
154
100
AcDbEntity
  8
Layer_1
 62
3
100
AcDbLine
 10
19.542476
 20
26.457354
 30
0.0
 11
19.293913
 21
26.915718
 31
0.0
  0
LINE
  5
155
100
AcDbEntity
  8
Layer_1
 62
3
100
AcDbLine
 10
19.293913
 20
26.915718
 30
0.0
 11
19.136816
 21
27.421628
 31
0.0
  0
LINE
  5
156
100
AcDbEntity
  8
Layer_1
 62
3
100
AcDbLine
 10
19.136816
 20
27.421628
 30
0.0
 11
19.082039
 21
27.965267
 31
0.0
  0
LINE
  5
157
100
AcDbEntity
  8
Layer_1
 62
3
100
AcDbLine
 10
19.082039
 20
27.965267
 30
0.0
 11
19.136816
 21
28.508377
 31
0.0
  0
LINE
  5
158
100
AcDbEntity
  8
Layer_1
 62
3
100
AcDbLine
 10
19.136816
 20
28.508377
 30
0.0
 11
19.293913
 21
29.014816
 31
0.0
  0
LINE
  5
159
100
AcDbEntity
  8
Layer_1
 62
3
100
AcDbLine
 10
19.293913
 20
29.014816
 30
0.0
 11
19.542476
 21
29.472651
 31
0.0
  0
LINE
  5
15a
100
AcDbEntity
  8
Layer_1
 62
3
100
AcDbLine
 10
19.542476
 20
29.472651
 30
0.0
 11
19.871655
 21
29.872119
 31
0.0
  0
LINE
  5
15b
100
AcDbEntity
  8
Layer_1
 62
3
100
AcDbLine
 10
19.871655
 20
29.872119
 30
0.0
 11
20.245276
 21
30.180121
 31
0.0
  0
LINE
  5
15c
100
AcDbEntity
  8
Layer_1
 62
3
100
AcDbLine
 10
20.245276
 20
30.180121
 30
0.0
 11
20.245276
 21
31.830142
 31
0.0
  0
LINE
  5
15d
100
AcDbEntity
  8
Layer_1
 62
3
100
AcDbLine
 10
20.245276
 20
31.830142
 30
0.0
 11
20.245276
 21
37.979122
 31
0.0
  0
LINE
  5
15e
100
AcDbEntity
  8
Layer_1
 62
3
100
AcDbLine
 10
20.245276
 20
37.979122
 30
0.0
 11
19.869588
 21
38.355325
 31
0.0
  0
LINE
  5
15f
100
AcDbEntity
  8
Layer_1
 62
3
100
AcDbLine
 10
19.869588
 20
38.355325
 30
0.0
 11
19.487182
 21
38.355325
 31
0.0
  0
LINE
  5
160
100
AcDbEntity
  8
Layer_1
 62
3
100
AcDbLine
 10
23.340177
 20
30.156335
 30
0.0
 11
23.685376
 21
29.872119
 31
0.0
  0
LINE
  5
161
100
AcDbEntity
  8
Layer_1
 62
3
100
AcDbLine
 10
23.685376
 20
29.872119
 30
0.0
 11
24.014555
 21
29.472651
 31
0.0
  0
LINE
  5
162
100
AcDbEntity
  8
Layer_1
 62
3
100
AcDbLine
 10
24.014555
 20
29.472651
 30
0.0
 11
24.263118
 21
29.014816
 31
0.0
  0
LINE
  5
163
100
AcDbEntity
  8
Layer_1
 62
3
100
AcDbLine
 10
24.263118
 20
29.014816
 30
0.0
 11
24.420215
 21
28.508377
 31
0.0
  0
LINE
  5
164
100
AcDbEntity
  8
Layer_1
 62
3
100
AcDbLine
 10
24.420215
 20
28.508377
 30
0.0
 11
24.474991
 21
27.965267
 31
0.0
  0
LINE
  5
165
100
AcDbEntity
  8
Layer_1
 62
3
100
AcDbLine
 10
24.474991
 20
27.965267
 30
0.0
 11
24.420215
 21
27.421628
 31
0.0
  0
LINE
  5
166
100
AcDbEntity
  8
Layer_1
 62
3
100
AcDbLine
 10
24.420215
 20
27.421628
 30
0.0
 11
24.263118
 21
26.915718
 31
0.0
  0
LINE
  5
167
100
AcDbEntity
  8
Layer_1
 62
3
100
AcDbLine
 10
24.263118
 20
26.915718
 30
0.0
 11
24.014555
 21
26.457354
 31
0.0
  0
LINE
  5
168
100
AcDbEntity
  8
Layer_1
 62
3
100
AcDbLine
 10
24.014555
 20
26.457354
 30
0.0
 11
23.685376
 21
26.058415
 31
0.0
  0
LINE
  5
169
100
AcDbEntity
  8
Layer_1
 62
3
100
AcDbLine
 10
23.685376
 20
26.058415
 30
0.0
 11
23.340177
 21
25.774173
 31
0.0
  0
LINE
  5
16a
100
AcDbEntity
  8
Layer_1
 62
3
100
AcDbLine
 10
23.340177
 20
25.774173
 30
0.0
 11
23.340177
 21
24.109177
 31
0.0
  0
LINE
  5
16b
100
AcDbEntity
  8
Layer_1
 62
3
100
AcDbLine
 10
23.340177
 20
24.109177
 30
0.0
 11
23.340177
 21
18.150363
 31
0.0
  0
LINE
  5
16c
100
AcDbEntity
  8
Layer_1
 62
3
100
AcDbLine
 10
23.340177
 20
18.150363
 30
0.0
 11
23.715865
 21
17.774152
 31
0.0
  0
LINE
  5
16d
100
AcDbEntity
  8
Layer_1
 62
3
100
AcDbLine
 10
23.715865
 20
17.774152
 30
0.0
 11
24.098270
 21
17.774152
 31
0.0
  0
LINE
  5
16e
100
AcDbEntity
  8
Layer_1
 62
3
100
AcDbLine
 10
24.098270
 20
17.774152
 30
0.0
 11
24.473958
 21
18.150363
 31
0.0
  0
LINE
  5
16f
100
AcDbEntity
  8
Layer_1
 62
3
100
AcDbLine
 10
24.473958
 20
18.150363
 30
0.0
 11
24.473958
 21
24.814556
 31
0.0
  0
LINE
  5
170
100
AcDbEntity
  8
Layer_1
 62
3
100
AcDbLine
 10
24.473958
 20
24.814556
 30
0.0
 11
24.723555
 21
25.020217
 31
0.0
  0
LINE
  5
171
100
AcDbEntity
  8
Layer_1
 62
3
100
AcDbLine
 10
24.723555
 20
25.020217
 30
0.0
 11
25.232051
 21
25.636722
 31
0.0
  0
LINE
  5
172
100
AcDbEntity
  8
Layer_1
 62
3
100
AcDbLine
 10
25.232051
 20
25.636722
 30
0.0
 11
25.616007
 21
26.344165
 31
0.0
  0
LINE
  5
173
100
AcDbEntity
  8
Layer_1
 62
3
100
AcDbLine
 10
25.616007
 20
26.344165
 30
0.0
 11
25.858886
 21
27.126035
 31
0.0
  0
LINE
  5
174
100
AcDbEntity
  8
Layer_1
 62
3
100
AcDbLine
 10
25.858886
 20
27.126035
 30
0.0
 11
25.943636
 21
27.965267
 31
0.0
  0
LINE
  5
175
100
AcDbEntity
  8
Layer_1
 62
3
100
AcDbLine
 10
25.943636
 20
27.965267
 30
0.0
 11
25.858886
 21
28.804499
 31
0.0
  0
LINE
  5
176
100
AcDbEntity
  8
Layer_1
 62
3
100
AcDbLine
 10
25.858886
 20
28.804499
 30
0.0
 11
25.616007
 21
29.586343
 31
0.0
  0
LINE
  5
177
100
AcDbEntity
  8
Layer_1
 62
3
100
AcDbLine
 10
25.616007
 20
29.586343
 30
0.0
 11
25.232051
 21
30.293812
 31
0.0
  0
LINE
  5
178
100
AcDbEntity
  8
Layer_1
 62
3
100
AcDbLine
 10
25.232051
 20
30.293812
 30
0.0
 11
24.723555
 21
30.910291
 31
0.0
  0
LINE
  5
179
100
AcDbEntity
  8
Layer_1
 62
3
100
AcDbLine
 10
24.723555
 20
30.910291
 30
0.0
 11
24.473958
 21
31.115978
 31
0.0
  0
LINE
  5
17a
100
AcDbEntity
  8
Layer_1
 62
3
100
AcDbLine
 10
24.473958
 20
31.115978
 30
0.0
 11
24.473958
 21
37.979122
 31
0.0
  0
LINE
  5
17b
100
AcDbEntity
  8
Layer_1
 62
3
100
AcDbLine
 10
24.473958
 20
37.979122
 30
0.0
 11
24.098270
 21
38.355325
 31
0.0
  0
LINE
  5
17c
100
AcDbEntity
  8
Layer_1
 62
3
100
AcDbLine
 10
24.098270
 20
38.355325
 30
0.0
 11
23.715865
 21
38.355325
 31
0.0
  0
LINE
  5
17d
100
AcDbEntity
  8
Layer_1
 62
3
100
AcDbLine
 10
23.715865
 20
38.355325
 30
0.0
 11
23.340177
 21
37.979122
 31
0.0
  0
LINE
  5
17e
100
AcDbEntity
  8
Layer_1
 62
3
100
AcDbLine
 10
23.340177
 20
37.979122
 30
0.0
 11
23.340177
 21
31.821358
 31
0.0
  0
LINE
  5
17f
100
AcDbEntity
  8
Layer_1
 62
3
100
AcDbLine
 10
23.340177
 20
31.821358
 30
0.0
 11
23.340177
 21
30.156335
 31
0.0
  0
LINE
  5
180
100
AcDbEntity
  8
Layer_1
 62
3
100
AcDbLine
 10
3.785098
 20
38.355330
 30
0.0
 11
3.409410
 21
37.979130
 31
0.0
  0
LINE
  5
181
100
AcDbEntity
  8
Layer_1
 62
3
100
AcDbLine
 10
3.409410
 20
37.979130
 30
0.0
 11
3.409410
 21
31.139740
 31
0.0
  0
LINE
  5
182
100
AcDbEntity
  8
Layer_1
 62
3
100
AcDbLine
 10
3.409410
 20
31.139740
 30
0.0
 11
3.131391
 21
30.910290
 31
0.0
  0
LINE
  5
183
100
AcDbEntity
  8
Layer_1
 62
3
100
AcDbLine
 10
3.131391
 20
30.910290
 30
0.0
 11
2.622895
 21
30.293810
 31
0.0
  0
LINE
  5
184
100
AcDbEntity
  8
Layer_1
 62
3
100
AcDbLine
 10
2.622895
 20
30.293810
 30
0.0
 11
2.238939
 21
29.586340
 31
0.0
  0
LINE
  5
185
100
AcDbEntity
  8
Layer_1
 62
3
100
AcDbLine
 10
2.238939
 20
29.586340
 30
0.0
 11
1.996060
 21
28.804500
 31
0.0
  0
LINE
  5
186
100
AcDbEntity
  8
Layer_1
 62
3
100
AcDbLine
 10
1.996060
 20
28.804500
 30
0.0
 11
1.911310
 21
27.965270
 31
0.0
  0
LINE
  5
187
100
AcDbEntity
  8
Layer_1
 62
3
100
AcDbLine
 10
1.911310
 20
27.965270
 30
0.0
 11
1.996060
 21
27.126040
 31
0.0
  0
LINE
  5
188
100
AcDbEntity
  8
Layer_1
 62
3
100
AcDbLine
 10
1.996060
 20
27.126040
 30
0.0
 11
2.238939
 21
26.344170
 31
0.0
  0
LINE
  5
189
100
AcDbEntity
  8
Layer_1
 62
3
100
AcDbLine
 10
2.238939
 20
26.344170
 30
0.0
 11
2.622895
 21
25.636720
 31
0.0
  0
LINE
  5
18a
100
AcDbEntity
  8
Layer_1
 62
3
100
AcDbLine
 10
2.622895
 20
25.636720
 30
0.0
 11
3.131391
 21
25.020220
 31
0.0
  0
LINE
  5
18b
100
AcDbEntity
  8
Layer_1
 62
3
100
AcDbLine
 10
3.131391
 20
25.020220
 30
0.0
 11
3.409410
 21
24.790770
 31
0.0
  0
LINE
  5
18c
100
AcDbEntity
  8
Layer_1
 62
3
100
AcDbLine
 10
3.409410
 20
24.790770
 30
0.0
 11
3.409410
 21
18.150360
 31
0.0
  0
LINE
  5
18d
100
AcDbEntity
  8
Layer_1
 62
3
100
AcDbLine
 10
3.409410
 20
18.150360
 30
0.0
 11
3.785098
 21
17.774150
 31
0.0
  0
LINE
  5
18e
100
AcDbEntity
  8
Layer_1
 62
3
100
AcDbLine
 10
3.785098
 20
17.774150
 30
0.0
 11
4.167503
 21
17.774150
 31
0.0
  0
LINE
  5
18f
100
AcDbEntity
  8
Layer_1
 62
3
100
AcDbLine
 10
4.167503
 20
17.774150
 30
0.0
 11
4.543191
 21
18.150360
 31
0.0
  0
LINE
  5
190
100
AcDbEntity
  8
Layer_1
 62
3
100
AcDbLine
 10
4.543191
 20
18.150360
 30
0.0
 11
4.543191
 21
24.100390
 31
0.0
  0
LINE
  5
191
100
AcDbEntity
  8
Layer_1
 62
3
100
AcDbLine
 10
4.543191
 20
24.100390
 30
0.0
 11
4.543191
 21
25.750410
 31
0.0
  0
LINE
  5
192
100
AcDbEntity
  8
Layer_1
 62
3
100
AcDbLine
 10
4.543191
 20
25.750410
 30
0.0
 11
4.169570
 21
26.058420
 31
0.0
  0
LINE
  5
193
100
AcDbEntity
  8
Layer_1
 62
3
100
AcDbLine
 10
4.169570
 20
26.058420
 30
0.0
 11
3.840391
 21
26.457350
 31
0.0
  0
LINE
  5
194
100
AcDbEntity
  8
Layer_1
 62
3
100
AcDbLine
 10
3.840391
 20
26.457350
 30
0.0
 11
3.591828
 21
26.915720
 31
0.0
  0
LINE
  5
195
100
AcDbEntity
  8
Layer_1
 62
3
100
AcDbLine
 10
3.591828
 20
26.915720
 30
0.0
 11
3.434731
 21
27.421630
 31
0.0
  0
LINE
  5
196
100
AcDbEntity
  8
Layer_1
 62
3
100
AcDbLine
 10
3.434731
 20
27.421630
 30
0.0
 11
3.379954
 21
27.965270
 31
0.0
  0
LINE
  5
197
100
AcDbEntity
  8
Layer_1
 62
3
100
AcDbLine
 10
3.379954
 20
27.965270
 30
0.0
 11
3.434731
 21
28.508380
 31
0.0
  0
LINE
  5
198
100
AcDbEntity
  8
Layer_1
 62
3
100
AcDbLine
 10
3.434731
 20
28.508380
 30
0.0
 11
3.591828
 21
29.014820
 31
0.0
  0
LINE
  5
199
100
AcDbEntity
  8
Layer_1
 62
3
100
AcDbLine
 10
3.591828
 20
29.014820
 30
0.0
 11
3.840391
 21
29.472650
 31
0.0
  0
LINE
  5
19a
100
AcDbEntity
  8
Layer_1
 62
3
100
AcDbLine
 10
3.840391
 20
29.472650
 30
0.0
 11
4.169570
 21
29.872120
 31
0.0
  0
LINE
  5
19b
100
AcDbEntity
  8
Layer_1
 62
3
100
AcDbLine
 10
4.169570
 20
29.872120
 30
0.0
 11
4.543191
 21
30.180120
 31
0.0
  0
LINE
  5
19c
100
AcDbEntity
  8
Layer_1
 62
3
100
AcDbLine
 10
4.543191
 20
30.180120
 30
0.0
 11
4.543191
 21
31.830140
 31
0.0
  0
LINE
  5
19d
100
AcDbEntity
  8
Layer_1
 62
3
100
AcDbLine
 10
4.543191
 20
31.830140
 30
0.0
 11
4.543191
 21
37.979130
 31
0.0
  0
LINE
  5
19e
100
AcDbEntity
  8
Layer_1
 62
3
100
AcDbLine
 10
4.543191
 20
37.979130
 30
0.0
 11
4.167503
 21
38.355330
 31
0.0
  0
LINE
  5
19f
100
AcDbEntity
  8
Layer_1
 62
3
100
AcDbLine
 10
4.167503
 20
38.355330
 30
0.0
 11
3.785098
 21
38.355330
 31
0.0
  0
LINE
  5
1a0
100
AcDbEntity
  8
Layer_1
 62
3
100
AcDbLine
 10
7.638092
 20
30.156330
 30
0.0
 11
7.983291
 21
29.872120
 31
0.0
  0
LINE
  5
1a1
100
AcDbEntity
  8
Layer_1
 62
3
100
AcDbLine
 10
7.983291
 20
29.872120
 30
0.0
 11
8.312470
 21
29.472650
 31
0.0
  0
LINE
  5
1a2
100
AcDbEntity
  8
Layer_1
 62
3
100
AcDbLine
 10
8.312470
 20
29.472650
 30
0.0
 11
8.561033
 21
29.014820
 31
0.0
  0
LINE
  5
1a3
100
AcDbEntity
  8
Layer_1
 62
3
100
AcDbLine
 10
8.561033
 20
29.014820
 30
0.0
 11
8.718130
 21
28.508380
 31
0.0
  0
LINE
  5
1a4
100
AcDbEntity
  8
Layer_1
 62
3
100
AcDbLine
 10
8.718130
 20
28.508380
 30
0.0
 11
8.772907
 21
27.965270
 31
0.0
  0
LINE
  5
1a5
100
AcDbEntity
  8
Layer_1
 62
3
100
AcDbLine
 10
8.772907
 20
27.965270
 30
0.0
 11
8.718130
 21
27.421630
 31
0.0
  0
LINE
  5
1a6
100
AcDbEntity
  8
Layer_1
 62
3
100
AcDbLine
 10
8.718130
 20
27.421630
 30
0.0
 11
8.561033
 21
26.915720
 31
0.0
  0
LINE
  5
1a7
100
AcDbEntity
  8
Layer_1
 62
3
100
AcDbLine
 10
8.561033
 20
26.915720
 30
0.0
 11
8.312470
 21
26.457350
 31
0.0
  0
LINE
  5
1a8
100
AcDbEntity
  8
Layer_1
 62
3
100
AcDbLine
 10
8.312470
 20
26.457350
 30
0.0
 11
7.983291
 21
26.058420
 31
0.0
  0
LINE
  5
1a9
100
AcDbEntity
  8
Layer_1
 62
3
100
AcDbLine
 10
7.983291
 20
26.058420
 30
0.0
 11
7.638092
 21
25.774170
 31
0.0
  0
LINE
  5
1aa
100
AcDbEntity
  8
Layer_1
 62
3
100
AcDbLine
 10
7.638092
 20
25.774170
 30
0.0
 11
7.638092
 21
24.109180
 31
0.0
  0
LINE
  5
1ab
100
AcDbEntity
  8
Layer_1
 62
3
100
AcDbLine
 10
7.638092
 20
24.109180
 30
0.0
 11
7.638092
 21
18.150360
 31
0.0
  0
LINE
  5
1ac
100
AcDbEntity
  8
Layer_1
 62
3
100
AcDbLine
 10
7.638092
 20
18.150360
 30
0.0
 11
8.013780
 21
17.774150
 31
0.0
  0
LINE
  5
1ad
100
AcDbEntity
  8
Layer_1
 62
3
100
AcDbLine
 10
8.013780
 20
17.774150
 30
0.0
 11
8.396186
 21
17.774150
 31
0.0
  0
LINE
  5
1ae
100
AcDbEntity
  8
Layer_1
 62
3
100
AcDbLine
 10
8.396186
 20
17.774150
 30
0.0
 11
8.771873
 21
18.150360
 31
0.0
  0
LINE
  5
1af
100
AcDbEntity
  8
Layer_1
 62
3
100
AcDbLine
 10
8.771873
 20
18.150360
 30
0.0
 11
8.771873
 21
24.814560
 31
0.0
  0
LINE
  5
1b0
100
AcDbEntity
  8
Layer_1
 62
3
100
AcDbLine
 10
8.771873
 20
24.814560
 30
0.0
 11
9.021470
 21
25.020220
 31
0.0
  0
LINE
  5
1b1
100
AcDbEntity
  8
Layer_1
 62
3
100
AcDbLine
 10
9.021470
 20
25.020220
 30
0.0
 11
9.529966
 21
25.636720
 31
0.0
  0
LINE
  5
1b2
100
AcDbEntity
  8
Layer_1
 62
3
100
AcDbLine
 10
9.529966
 20
25.636720
 30
0.0
 11
9.913922
 21
26.344170
 31
0.0
  0
LINE
  5
1b3
100
AcDbEntity
  8
Layer_1
 62
3
100
AcDbLine
 10
9.913922
 20
26.344170
 30
0.0
 11
10.156802
 21
27.126040
 31
0.0
  0
LINE
  5
1b4
100
AcDbEntity
  8
Layer_1
 62
3
100
AcDbLine
 10
10.156802
 20
27.126040
 30
0.0
 11
10.241552
 21
27.965270
 31
0.0
  0
LINE
  5
1b5
100
AcDbEntity
  8
Layer_1
 62
3
100
AcDbLine
 10
10.241552
 20
27.965270
 30
0.0
 11
10.156802
 21
28.804500
 31
0.0
  0
LINE
  5
1b6
100
AcDbEntity
  8
Layer_1
 62
3
100
AcDbLine
 10
10.156802
 20
28.804500
 30
0.0
 11
9.913922
 21
29.586340
 31
0.0
  0
LINE
  5
1b7
100
AcDbEntity
  8
Layer_1
 62
3
100
AcDbLine
 10
9.913922
 20
29.586340
 30
0.0
 11
9.529966
 21
30.293810
 31
0.0
  0
LINE
  5
1b8
100
AcDbEntity
  8
Layer_1
 62
3
100
AcDbLine
 10
9.529966
 20
30.293810
 30
0.0
 11
9.021470
 21
30.910290
 31
0.0
  0
LINE
  5
1b9
100
AcDbEntity
  8
Layer_1
 62
3
100
AcDbLine
 10
9.021470
 20
30.910290
 30
0.0
 11
8.771873
 21
31.115980
 31
0.0
  0
LINE
  5
1ba
100
AcDbEntity
  8
Layer_1
 62
3
100
AcDbLine
 10
8.771873
 20
31.115980
 30
0.0
 11
8.771873
 21
37.979130
 31
0.0
  0
LINE
  5
1bb
100
AcDbEntity
  8
Layer_1
 62
3
100
AcDbLine
 10
8.771873
 20
37.979130
 30
0.0
 11
8.396186
 21
38.355330
 31
0.0
  0
LINE
  5
1bc
100
AcDbEntity
  8
Layer_1
 62
3
100
AcDbLine
 10
8.396186
 20
38.355330
 30
0.0
 11
8.013780
 21
38.355330
 31
0.0
  0
LINE
  5
1bd
100
AcDbEntity
  8
Layer_1
 62
3
100
AcDbLine
 10
8.013780
 20
38.355330
 30
0.0
 11
7.638092
 21
37.979130
 31
0.0
  0
LINE
  5
1be
100
AcDbEntity
  8
Layer_1
 62
3
100
AcDbLine
 10
7.638092
 20
37.979130
 30
0.0
 11
7.638092
 21
31.821360
 31
0.0
  0
LINE
  5
1bf
100
AcDbEntity
  8
Layer_1
 62
3
100
AcDbLine
 10
7.638092
 20
31.821360
 30
0.0
 11
7.638092
 21
30.156330
 31
0.0
  0
ENDSEC
  0
SECTION
  2
OBJECTS
  0
DICTIONARY
  5
C
330
0
100
AcDbDictionary
  3
ACAD_GROUP
350
D
  3
ACAD_MLINESTYLE
350
17
  0
DICTIONARY
  5
D
330
C
100
AcDbDictionary
  0
DICTIONARY
  5
1A
330
C
100
AcDbDictionary
  0
DICTIONARY
  5
17
330
C
100
AcDbDictionary
  3
STANDARD
350
18
  0
DICTIONARY
  5
19
330
C
100
AcDbDictionary
  0
ENDSEC
  0
EOF
