  0
SECTION
  2
HEADER
  9
$ACADVER
  1
AC1014
  9
$HANDSEED
  5
FFFF
  9
$MEASUREMENT
 70
     1
  0
ENDSEC
  0
SECTION
  2
TABLES
  0
TABLE
  2
VPORT
  5
8
330
0
100
AcDbSymbolTable
 70
     4
  0
VPORT
  5
2E
330
8
100
AcDbSymbolTableRecord
100
AcDbViewportTableRecord
  2
*ACTIVE
 70
     0
 10
0.0
 20
0.0
 11
1.0
 21
1.0
 12
210.0
 22
148.5
 13
0.0
 23
0.0
 14
10.0
 24
10.0
 15
10.0
 25
10.0
 16
0.0
 26
0.0
 36
1.0
 17
0.0
 27
0.0
 37
0.0
 40
341.0
 41
1.24
 42
50.0
 43
0.0
 44
0.0
 50
0.0
 51
0.0
 71
     0
 72
   100
 73
     1
 74
     3
 75
     0
 76
     0
 77
     0
 78
     0
  0
ENDTAB
  0
TABLE
  2
LTYPE
  5
5
330
0
100
AcDbSymbolTable
 70
     1
  0
LTYPE
  5
14
330
5
100
AcDbSymbolTableRecord
100
AcDbLinetypeTableRecord
  2
BYBLOCK
 70
     0
  3

 72
    65
 73
     0
 40
0.0
  0
LTYPE
  5
15
330
5
100
AcDbSymbolTableRecord
100
AcDbLinetypeTableRecord
  2
BYLAYER
 70
     0
  3

 72
    65
 73
     0
 40
0.0
  0
LTYPE
  5
16
330
5
100
AcDbSymbolTableRecord
100
AcDbLinetypeTableRecord
  2
CONTINUOUS
 70
     0
  3
Solid line
 72
    65
 73
     0
 40
0.0
  0
ENDTAB
  0
TABLE
  2
LAYER
  5
2
100
AcDbSymbolTable
 70
2
  0
LAYER
  5
50
100
AcDbSymbolTableRecord
100
AcDbLayerTableRecord
  2
0
 70
0
  6
CONTINUOUS
  0
LAYER
  5
51
100
AcDbSymbolTableRecord
100
AcDbLayerTableRecord
  2
Layer_1
 70
0
  6
CONTINUOUS
  0
ENDTAB
  0
TABLE
  2
STYLE
  5
3
330
0
100
AcDbSymbolTable
 70
     1
  0
STYLE
  5
11
330
3
100
AcDbSymbolTableRecord
100
AcDbTextStyleTableRecord
  2
STANDARD
 70
     0
 40
0.0
 41
1.0
 50
0.0
 71
     0
 42
2.5
  3
txt
  4

  0
ENDTAB
  0
TABLE
  2
VIEW
  5
6
330
0
100
AcDbSymbolTable
 70
     0
  0
ENDTAB
  0
TABLE
  2
UCS
  5
7
330
0
100
AcDbSymbolTable
 70
     0
  0
ENDTAB
  0
TABLE
  2
APPID
  5
9
330
0
100
AcDbSymbolTable
 70
     2
  0
APPID
  5
12
330
9
100
AcDbSymbolTableRecord
100
AcDbRegAppTableRecord
  2
ACAD
 70
     0
  0
ENDTAB
  0
TABLE
  2
DIMSTYLE
  5
A
330
0
100
AcDbSymbolTable
 70
     1
  0
DIMSTYLE
105
27
330
A
100
AcDbSymbolTableRecord
100
AcDbDimStyleTableRecord
  2
ISO-25
 70
     0
  3

  4

  5

  6

  7

 40
1.0
 41
2.5
 42
0.625
 43
3.75
 44
1.25
 45
0.0
 46
0.0
 47
0.0
 48
0.0
140
2.5
141
2.5
142
0.0
143
0.03937007874016
144
1.0
145
0.0
146
1.0
147
0.625
 71
     0
 72
     0
 73
     0
 74
     0
 75
     0
 76
     0
 77
     1
 78
     8
170
     0
171
     3
172
     1
173
     0
174
     0
175
     0
176
     0
177
     0
178
     0
270
     2
271
     2
272
     2
273
     2
274
     3
340
11
275
     0
280
     0
281
     0
282
     0
283
     0
284
     8
285
     0
286
     0
287
     3
288
     0
  0
ENDTAB
  0
TABLE
  2
BLOCK_RECORD
  5
1
330
0
100
AcDbSymbolTable
 70
     1
  0
BLOCK_RECORD
  5
1F
330
1
100
AcDbSymbolTableRecord
100
AcDbBlockTableRecord
  2
*MODEL_SPACE
  0
BLOCK_RECORD
  5
1B
330
1
100
AcDbSymbolTableRecord
100
AcDbBlockTableRecord
  2
*PAPER_SPACE
  0
ENDTAB
  0
ENDSEC
  0
SECTION
  2
BLOCKS
  0
BLOCK
  5
20
330
1F
100
AcDbEntity
  8
0
100
AcDbBlockBegin
  2
*MODEL_SPACE
 70
     0
 10
0.0
 20
0.0
 30
0.0
  3
*MODEL_SPACE
  1

  0
ENDBLK
  5
21
330
1F
100
AcDbEntity
  8
0
100
AcDbBlockEnd
  0
BLOCK
  5
1C
330
1B
100
AcDbEntity
 67
     1
  8
0
100
AcDbBlockBegin
  2
*PAPER_SPACE
  1

  0
ENDBLK
  5
1D
330
1B
100
AcDbEntity
 67
     1
  8
0
100
AcDbBlockEnd
  0
ENDSEC
  0
SECTION
  2
ENTITIES
  0
LINE
  5
100
100
AcDbEntity
  8
Layer_1
 62
3
100
AcDbLine
 10
4.081775
 20
38.045310
 30
0.0
 11
4.591867
 21
38.045310
 31
0.0
  0
LINE
  5
101
100
AcDbEntity
  8
Layer_1
 62
3
100
AcDbLine
 10
4.591867
 20
38.045310
 30
0.0
 11
5.101959
 21
38.045310
 31
0.0
  0
LINE
  5
102
100
AcDbEntity
  8
Layer_1
 62
3
100
AcDbLine
 10
5.101959
 20
38.045310
 30
0.0
 11
5.612051
 21
38.045310
 31
0.0
  0
LINE
  5
103
100
AcDbEntity
  8
Layer_1
 62
3
100
AcDbLine
 10
5.612051
 20
38.045310
 30
0.0
 11
6.122142
 21
38.045310
 31
0.0
  0
LINE
  5
104
100
AcDbEntity
  8
Layer_1
 62
3
100
AcDbLine
 10
6.122142
 20
38.045310
 30
0.0
 11
6.632234
 21
38.045310
 31
0.0
  0
LINE
  5
105
100
AcDbEntity
  8
Layer_1
 62
3
100
AcDbLine
 10
6.632234
 20
38.045310
 30
0.0
 11
7.142326
 21
38.045310
 31
0.0
  0
LINE
  5
106
100
AcDbEntity
  8
Layer_1
 62
3
100
AcDbLine
 10
7.142326
 20
38.045310
 30
0.0
 11
7.652418
 21
38.045310
 31
0.0
  0
LINE
  5
107
100
AcDbEntity
  8
Layer_1
 62
3
100
AcDbLine
 10
7.652418
 20
38.045310
 30
0.0
 11
8.162510
 21
38.045310
 31
0.0
  0
LINE
  5
108
100
AcDbEntity
  8
Layer_1
 62
3
100
AcDbLine
 10
8.162510
 20
38.045310
 30
0.0
 11
8.371936
 21
37.976210
 31
0.0
  0
LINE
  5
109
100
AcDbEntity
  8
Layer_1
 62
3
100
AcDbLine
 10
8.371936
 20
37.976210
 30
0.0
 11
8.566761
 21
37.778130
 31
0.0
  0
LINE
  5
10a
100
AcDbEntity
  8
Layer_1
 62
3
100
AcDbLine
 10
8.566761
 20
37.778130
 30
0.0
 11
8.742878
 21
37.464240
 31
0.0
  0
LINE
  5
10b
100
AcDbEntity
  8
Layer_1
 62
3
100
AcDbLine
 10
8.742878
 20
37.464240
 30
0.0
 11
8.896181
 21
37.048430
 31
0.0
  0
LINE
  5
10c
100
AcDbEntity
  8
Layer_1
 62
3
100
AcDbLine
 10
8.896181
 20
37.048430
 30
0.0
 11
9.022564
 21
36.544020
 31
0.0
  0
LINE
  5
10d
100
AcDbEntity
  8
Layer_1
 62
3
100
AcDbLine
 10
9.022564
 20
36.544020
 30
0.0
 11
9.117921
 21
35.964560
 31
0.0
  0
LINE
  5
10e
100
AcDbEntity
  8
Layer_1
 62
3
100
AcDbLine
 10
9.117921
 20
35.964560
 30
0.0
 11
9.178146
 21
35.323560
 31
0.0
  0
LINE
  5
10f
100
AcDbEntity
  8
Layer_1
 62
3
100
AcDbLine
 10
9.178146
 20
35.323560
 30
0.0
 11
9.199134
 21
34.634490
 31
0.0
  0
LINE
  5
110
100
AcDbEntity
  8
Layer_1
 62
3
100
AcDbLine
 10
9.199134
 20
34.634490
 30
0.0
 11
9.199134
 21
32.956190
 31
0.0
  0
LINE
  5
111
100
AcDbEntity
  8
Layer_1
 62
3
100
AcDbLine
 10
9.199134
 20
32.956190
 30
0.0
 11
9.199134
 21
31.277860
 31
0.0
  0
LINE
  5
112
100
AcDbEntity
  8
Layer_1
 62
3
100
AcDbLine
 10
9.199134
 20
31.277860
 30
0.0
 11
9.199134
 21
29.599570
 31
0.0
  0
LINE
  5
113
100
AcDbEntity
  8
Layer_1
 62
3
100
AcDbLine
 10
9.199134
 20
29.599570
 30
0.0
 11
9.199134
 21
27.921260
 31
0.0
  0
LINE
  5
114
100
AcDbEntity
  8
Layer_1
 62
3
100
AcDbLine
 10
9.199134
 20
27.921260
 30
0.0
 11
9.199134
 21
26.242960
 31
0.0
  0
LINE
  5
115
100
AcDbEntity
  8
Layer_1
 62
3
100
AcDbLine
 10
9.199134
 20
26.242960
 30
0.0
 11
9.199134
 21
24.564640
 31
0.0
  0
LINE
  5
116
100
AcDbEntity
  8
Layer_1
 62
3
100
AcDbLine
 10
9.199134
 20
24.564640
 30
0.0
 11
9.199134
 21
22.886350
 31
0.0
  0
LINE
  5
117
100
AcDbEntity
  8
Layer_1
 62
3
100
AcDbLine
 10
9.199134
 20
22.886350
 30
0.0
 11
9.199134
 21
21.208040
 31
0.0
  0
LINE
  5
118
100
AcDbEntity
  8
Layer_1
 62
3
100
AcDbLine
 10
9.199134
 20
21.208040
 30
0.0
 11
9.178146
 21
20.518990
 31
0.0
  0
LINE
  5
119
100
AcDbEntity
  8
Layer_1
 62
3
100
AcDbLine
 10
9.178146
 20
20.518990
 30
0.0
 11
9.117921
 21
19.877970
 31
0.0
  0
LINE
  5
11a
100
AcDbEntity
  8
Layer_1
 62
3
100
AcDbLine
 10
9.117921
 20
19.877970
 30
0.0
 11
9.022564
 21
19.298510
 31
0.0
  0
LINE
  5
11b
100
AcDbEntity
  8
Layer_1
 62
3
100
AcDbLine
 10
9.022564
 20
19.298510
 30
0.0
 11
8.896181
 21
18.794130
 31
0.0
  0
LINE
  5
11c
100
AcDbEntity
  8
Layer_1
 62
3
100
AcDbLine
 10
8.896181
 20
18.794130
 30
0.0
 11
8.742878
 21
18.378290
 31
0.0
  0
LINE
  5
11d
100
AcDbEntity
  8
Layer_1
 62
3
100
AcDbLine
 10
8.742878
 20
18.378290
 30
0.0
 11
8.566761
 21
18.064420
 31
0.0
  0
LINE
  5
11e
100
AcDbEntity
  8
Layer_1
 62
3
100
AcDbLine
 10
8.566761
 20
18.064420
 30
0.0
 11
8.371936
 21
17.866340
 31
0.0
  0
LINE
  5
11f
100
AcDbEntity
  8
Layer_1
 62
3
100
AcDbLine
 10
8.371936
 20
17.866340
 30
0.0
 11
8.162510
 21
17.797240
 31
0.0
  0
LINE
  5
120
100
AcDbEntity
  8
Layer_1
 62
3
100
AcDbLine
 10
8.162510
 20
17.797240
 30
0.0
 11
7.652418
 21
17.797240
 31
0.0
  0
LINE
  5
121
100
AcDbEntity
  8
Layer_1
 62
3
100
AcDbLine
 10
7.652418
 20
17.797240
 30
0.0
 11
7.142326
 21
17.797240
 31
0.0
  0
LINE
  5
122
100
AcDbEntity
  8
Layer_1
 62
3
100
AcDbLine
 10
7.142326
 20
17.797240
 30
0.0
 11
6.632234
 21
17.797240
 31
0.0
  0
LINE
  5
123
100
AcDbEntity
  8
Layer_1
 62
3
100
AcDbLine
 10
6.632234
 20
17.797240
 30
0.0
 11
6.122142
 21
17.797240
 31
0.0
  0
LINE
  5
124
100
AcDbEntity
  8
Layer_1
 62
3
100
AcDbLine
 10
6.122142
 20
17.797240
 30
0.0
 11
5.612051
 21
17.797240
 31
0.0
  0
LINE
  5
125
100
AcDbEntity
  8
Layer_1
 62
3
100
AcDbLine
 10
5.612051
 20
17.797240
 30
0.0
 11
5.101959
 21
17.797240
 31
0.0
  0
LINE
  5
126
100
AcDbEntity
  8
Layer_1
 62
3
100
AcDbLine
 10
5.101959
 20
17.797240
 30
0.0
 11
4.591867
 21
17.797240
 31
0.0
  0
LINE
  5
127
100
AcDbEntity
  8
Layer_1
 62
3
100
AcDbLine
 10
4.591867
 20
17.797240
 30
0.0
 11
4.081775
 21
17.797240
 31
0.0
  0
LINE
  5
128
100
AcDbEntity
  8
Layer_1
 62
3
100
AcDbLine
 10
4.081775
 20
17.797240
 30
0.0
 11
3.872348
 21
17.866340
 31
0.0
  0
LINE
  5
129
100
AcDbEntity
  8
Layer_1
 62
3
100
AcDbLine
 10
3.872348
 20
17.866340
 30
0.0
 11
3.677524
 21
18.064420
 31
0.0
  0
LINE
  5
12a
100
AcDbEntity
  8
Layer_1
 62
3
100
AcDbLine
 10
3.677524
 20
18.064420
 30
0.0
 11
3.501407
 21
18.378290
 31
0.0
  0
LINE
  5
12b
100
AcDbEntity
  8
Layer_1
 62
3
100
AcDbLine
 10
3.501407
 20
18.378290
 30
0.0
 11
3.348104
 21
18.794130
 31
0.0
  0
LINE
  5
12c
100
AcDbEntity
  8
Layer_1
 62
3
100
AcDbLine
 10
3.348104
 20
18.794130
 30
0.0
 11
3.221720
 21
19.298510
 31
0.0
  0
LINE
  5
12d
100
AcDbEntity
  8
Layer_1
 62
3
100
AcDbLine
 10
3.221720
 20
19.298510
 30
0.0
 11
3.126363
 21
19.877970
 31
0.0
  0
LINE
  5
12e
100
AcDbEntity
  8
Layer_1
 62
3
100
AcDbLine
 10
3.126363
 20
19.877970
 30
0.0
 11
3.066137
 21
20.518990
 31
0.0
  0
LINE
  5
12f
100
AcDbEntity
  8
Layer_1
 62
3
100
AcDbLine
 10
3.066137
 20
20.518990
 30
0.0
 11
3.045149
 21
21.208040
 31
0.0
  0
LINE
  5
130
100
AcDbEntity
  8
Layer_1
 62
3
100
AcDbLine
 10
3.045149
 20
21.208040
 30
0.0
 11
3.045149
 21
22.886350
 31
0.0
  0
LINE
  5
131
100
AcDbEntity
  8
Layer_1
 62
3
100
AcDbLine
 10
3.045149
 20
22.886350
 30
0.0
 11
3.045149
 21
24.564640
 31
0.0
  0
LINE
  5
132
100
AcDbEntity
  8
Layer_1
 62
3
100
AcDbLine
 10
3.045149
 20
24.564640
 30
0.0
 11
3.045149
 21
26.242960
 31
0.0
  0
LINE
  5
133
100
AcDbEntity
  8
Layer_1
 62
3
100
AcDbLine
 10
3.045149
 20
26.242960
 30
0.0
 11
3.045149
 21
27.921260
 31
0.0
  0
LINE
  5
134
100
AcDbEntity
  8
Layer_1
 62
3
100
AcDbLine
 10
3.045149
 20
27.921260
 30
0.0
 11
3.045149
 21
29.599570
 31
0.0
  0
LINE
  5
135
100
AcDbEntity
  8
Layer_1
 62
3
100
AcDbLine
 10
3.045149
 20
29.599570
 30
0.0
 11
3.045149
 21
31.277860
 31
0.0
  0
LINE
  5
136
100
AcDbEntity
  8
Layer_1
 62
3
100
AcDbLine
 10
3.045149
 20
31.277860
 30
0.0
 11
3.045149
 21
32.956190
 31
0.0
  0
LINE
  5
137
100
AcDbEntity
  8
Layer_1
 62
3
100
AcDbLine
 10
3.045149
 20
32.956190
 30
0.0
 11
3.045149
 21
34.634490
 31
0.0
  0
LINE
  5
138
100
AcDbEntity
  8
Layer_1
 62
3
100
AcDbLine
 10
3.045149
 20
34.634490
 30
0.0
 11
3.066137
 21
35.323560
 31
0.0
  0
LINE
  5
139
100
AcDbEntity
  8
Layer_1
 62
3
100
AcDbLine
 10
3.066137
 20
35.323560
 30
0.0
 11
3.126363
 21
35.964560
 31
0.0
  0
LINE
  5
13a
100
AcDbEntity
  8
Layer_1
 62
3
100
AcDbLine
 10
3.126363
 20
35.964560
 30
0.0
 11
3.221720
 21
36.544020
 31
0.0
  0
LINE
  5
13b
100
AcDbEntity
  8
Layer_1
 62
3
100
AcDbLine
 10
3.221720
 20
36.544020
 30
0.0
 11
3.348104
 21
37.048430
 31
0.0
  0
LINE
  5
13c
100
AcDbEntity
  8
Layer_1
 62
3
100
AcDbLine
 10
3.348104
 20
37.048430
 30
0.0
 11
3.501407
 21
37.464240
 31
0.0
  0
LINE
  5
13d
100
AcDbEntity
  8
Layer_1
 62
3
100
AcDbLine
 10
3.501407
 20
37.464240
 30
0.0
 11
3.677524
 21
37.778130
 31
0.0
  0
LINE
  5
13e
100
AcDbEntity
  8
Layer_1
 62
3
100
AcDbLine
 10
3.677524
 20
37.778130
 30
0.0
 11
3.872348
 21
37.976210
 31
0.0
  0
LINE
  5
13f
100
AcDbEntity
  8
Layer_1
 62
3
100
AcDbLine
 10
3.872348
 20
37.976210
 30
0.0
 11
4.081775
 21
38.045310
 31
0.0
  0
LINE
  5
140
100
AcDbEntity
  8
Layer_1
 62
3
100
AcDbLine
 10
19.698595
 20
38.119310
 30
0.0
 11
20.208687
 21
38.119310
 31
0.0
  0
LINE
  5
141
100
AcDbEntity
  8
Layer_1
 62
3
100
AcDbLine
 10
20.208687
 20
38.119310
 30
0.0
 11
20.718779
 21
38.119310
 31
0.0
  0
LINE
  5
142
100
AcDbEntity
  8
Layer_1
 62
3
100
AcDbLine
 10
20.718779
 20
38.119310
 30
0.0
 11
21.228871
 21
38.119310
 31
0.0
  0
LINE
  5
143
100
AcDbEntity
  8
Layer_1
 62
3
100
AcDbLine
 10
21.228871
 20
38.119310
 30
0.0
 11
21.738962
 21
38.119310
 31
0.0
  0
LINE
  5
144
100
AcDbEntity
  8
Layer_1
 62
3
100
AcDbLine
 10
21.738962
 20
38.119310
 30
0.0
 11
22.249054
 21
38.119310
 31
0.0
  0
LINE
  5
145
100
AcDbEntity
  8
Layer_1
 62
3
100
AcDbLine
 10
22.249054
 20
38.119310
 30
0.0
 11
22.759146
 21
38.119310
 31
0.0
  0
LINE
  5
146
100
AcDbEntity
  8
Layer_1
 62
3
100
AcDbLine
 10
22.759146
 20
38.119310
 30
0.0
 11
23.269238
 21
38.119310
 31
0.0
  0
LINE
  5
147
100
AcDbEntity
  8
Layer_1
 62
3
100
AcDbLine
 10
23.269238
 20
38.119310
 30
0.0
 11
23.779330
 21
38.119310
 31
0.0
  0
LINE
  5
148
100
AcDbEntity
  8
Layer_1
 62
3
100
AcDbLine
 10
23.779330
 20
38.119310
 30
0.0
 11
23.988757
 21
38.049610
 31
0.0
  0
LINE
  5
149
100
AcDbEntity
  8
Layer_1
 62
3
100
AcDbLine
 10
23.988757
 20
38.049610
 30
0.0
 11
24.183581
 21
37.850100
 31
0.0
  0
LINE
  5
14a
100
AcDbEntity
  8
Layer_1
 62
3
100
AcDbLine
 10
24.183581
 20
37.850100
 30
0.0
 11
24.359698
 21
37.533930
 31
0.0
  0
LINE
  5
14b
100
AcDbEntity
  8
Layer_1
 62
3
100
AcDbLine
 10
24.359698
 20
37.533930
 30
0.0
 11
24.513001
 21
37.115070
 31
0.0
  0
LINE
  5
14c
100
AcDbEntity
  8
Layer_1
 62
3
100
AcDbLine
 10
24.513001
 20
37.115070
 30
0.0
 11
24.639384
 21
36.606990
 31
0.0
  0
LINE
  5
14d
100
AcDbEntity
  8
Layer_1
 62
3
100
AcDbLine
 10
24.639384
 20
36.606990
 30
0.0
 11
24.734744
 21
36.023300
 31
0.0
  0
LINE
  5
14e
100
AcDbEntity
  8
Layer_1
 62
3
100
AcDbLine
 10
24.734744
 20
36.023300
 30
0.0
 11
24.794964
 21
35.377610
 31
0.0
  0
LINE
  5
14f
100
AcDbEntity
  8
Layer_1
 62
3
100
AcDbLine
 10
24.794964
 20
35.377610
 30
0.0
 11
24.815954
 21
34.683510
 31
0.0
  0
LINE
  5
150
100
AcDbEntity
  8
Layer_1
 62
3
100
AcDbLine
 10
24.815954
 20
34.683510
 30
0.0
 11
24.815954
 21
32.992940
 31
0.0
  0
LINE
  5
151
100
AcDbEntity
  8
Layer_1
 62
3
100
AcDbLine
 10
24.815954
 20
32.992940
 30
0.0
 11
24.815954
 21
31.302350
 31
0.0
  0
LINE
  5
152
100
AcDbEntity
  8
Layer_1
 62
3
100
AcDbLine
 10
24.815954
 20
31.302350
 30
0.0
 11
24.815954
 21
29.611770
 31
0.0
  0
LINE
  5
153
100
AcDbEntity
  8
Layer_1
 62
3
100
AcDbLine
 10
24.815954
 20
29.611770
 30
0.0
 11
24.815954
 21
27.921210
 31
0.0
  0
LINE
  5
154
100
AcDbEntity
  8
Layer_1
 62
3
100
AcDbLine
 10
24.815954
 20
27.921210
 30
0.0
 11
24.815954
 21
26.230650
 31
0.0
  0
LINE
  5
155
100
AcDbEntity
  8
Layer_1
 62
3
100
AcDbLine
 10
24.815954
 20
26.230650
 30
0.0
 11
24.815954
 21
24.540050
 31
0.0
  0
LINE
  5
156
100
AcDbEntity
  8
Layer_1
 62
3
100
AcDbLine
 10
24.815954
 20
24.540050
 30
0.0
 11
24.815954
 21
22.849480
 31
0.0
  0
LINE
  5
157
100
AcDbEntity
  8
Layer_1
 62
3
100
AcDbLine
 10
24.815954
 20
22.849480
 30
0.0
 11
24.815954
 21
21.158910
 31
0.0
  0
LINE
  5
158
100
AcDbEntity
  8
Layer_1
 62
3
100
AcDbLine
 10
24.815954
 20
21.158910
 30
0.0
 11
24.794964
 21
20.464810
 31
0.0
  0
LINE
  5
159
100
AcDbEntity
  8
Layer_1
 62
3
100
AcDbLine
 10
24.794964
 20
20.464810
 30
0.0
 11
24.734744
 21
19.819120
 31
0.0
  0
LINE
  5
15a
100
AcDbEntity
  8
Layer_1
 62
3
100
AcDbLine
 10
24.734744
 20
19.819120
 30
0.0
 11
24.639384
 21
19.235430
 31
0.0
  0
LINE
  5
15b
100
AcDbEntity
  8
Layer_1
 62
3
100
AcDbLine
 10
24.639384
 20
19.235430
 30
0.0
 11
24.513001
 21
18.727350
 31
0.0
  0
LINE
  5
15c
100
AcDbEntity
  8
Layer_1
 62
3
100
AcDbLine
 10
24.513001
 20
18.727350
 30
0.0
 11
24.359698
 21
18.308490
 31
0.0
  0
LINE
  5
15d
100
AcDbEntity
  8
Layer_1
 62
3
100
AcDbLine
 10
24.359698
 20
18.308490
 30
0.0
 11
24.183581
 21
17.992320
 31
0.0
  0
LINE
  5
15e
100
AcDbEntity
  8
Layer_1
 62
3
100
AcDbLine
 10
24.183581
 20
17.992320
 30
0.0
 11
23.988757
 21
17.792810
 31
0.0
  0
LINE
  5
15f
100
AcDbEntity
  8
Layer_1
 62
3
100
AcDbLine
 10
23.988757
 20
17.792810
 30
0.0
 11
23.779330
 21
17.723110
 31
0.0
  0
LINE
  5
160
100
AcDbEntity
  8
Layer_1
 62
3
100
AcDbLine
 10
23.779330
 20
17.723110
 30
0.0
 11
23.269238
 21
17.723110
 31
0.0
  0
LINE
  5
161
100
AcDbEntity
  8
Layer_1
 62
3
100
AcDbLine
 10
23.269238
 20
17.723110
 30
0.0
 11
22.759146
 21
17.723110
 31
0.0
  0
LINE
  5
162
100
AcDbEntity
  8
Layer_1
 62
3
100
AcDbLine
 10
22.759146
 20
17.723110
 30
0.0
 11
22.249054
 21
17.723110
 31
0.0
  0
LINE
  5
163
100
AcDbEntity
  8
Layer_1
 62
3
100
AcDbLine
 10
22.249054
 20
17.723110
 30
0.0
 11
21.738962
 21
17.723110
 31
0.0
  0
LINE
  5
164
100
AcDbEntity
  8
Layer_1
 62
3
100
AcDbLine
 10
21.738962
 20
17.723110
 30
0.0
 11
21.228871
 21
17.723110
 31
0.0
  0
LINE
  5
165
100
AcDbEntity
  8
Layer_1
 62
3
100
AcDbLine
 10
21.228871
 20
17.723110
 30
0.0
 11
20.718779
 21
17.723110
 31
0.0
  0
LINE
  5
166
100
AcDbEntity
  8
Layer_1
 62
3
100
AcDbLine
 10
20.718779
 20
17.723110
 30
0.0
 11
20.208687
 21
17.723110
 31
0.0
  0
LINE
  5
167
100
AcDbEntity
  8
Layer_1
 62
3
100
AcDbLine
 10
20.208687
 20
17.723110
 30
0.0
 11
19.698595
 21
17.723110
 31
0.0
  0
LINE
  5
168
100
AcDbEntity
  8
Layer_1
 62
3
100
AcDbLine
 10
19.698595
 20
17.723110
 30
0.0
 11
19.489168
 21
17.792810
 31
0.0
  0
LINE
  5
169
100
AcDbEntity
  8
Layer_1
 62
3
100
AcDbLine
 10
19.489168
 20
17.792810
 30
0.0
 11
19.294344
 21
17.992320
 31
0.0
  0
LINE
  5
16a
100
AcDbEntity
  8
Layer_1
 62
3
100
AcDbLine
 10
19.294344
 20
17.992320
 30
0.0
 11
19.118227
 21
18.308490
 31
0.0
  0
LINE
  5
16b
100
AcDbEntity
  8
Layer_1
 62
3
100
AcDbLine
 10
19.118227
 20
18.308490
 30
0.0
 11
18.964924
 21
18.727350
 31
0.0
  0
LINE
  5
16c
100
AcDbEntity
  8
Layer_1
 62
3
100
AcDbLine
 10
18.964924
 20
18.727350
 30
0.0
 11
18.838541
 21
19.235430
 31
0.0
  0
LINE
  5
16d
100
AcDbEntity
  8
Layer_1
 62
3
100
AcDbLine
 10
18.838541
 20
19.235430
 30
0.0
 11
18.743181
 21
19.819120
 31
0.0
  0
LINE
  5
16e
100
AcDbEntity
  8
Layer_1
 62
3
100
AcDbLine
 10
18.743181
 20
19.819120
 30
0.0
 11
18.682961
 21
20.464810
 31
0.0
  0
LINE
  5
16f
100
AcDbEntity
  8
Layer_1
 62
3
100
AcDbLine
 10
18.682961
 20
20.464810
 30
0.0
 11
18.661971
 21
21.158910
 31
0.0
  0
LINE
  5
170
100
AcDbEntity
  8
Layer_1
 62
3
100
AcDbLine
 10
18.661971
 20
21.158910
 30
0.0
 11
18.661971
 21
22.849480
 31
0.0
  0
LINE
  5
171
100
AcDbEntity
  8
Layer_1
 62
3
100
AcDbLine
 10
18.661971
 20
22.849480
 30
0.0
 11
18.661971
 21
24.540050
 31
0.0
  0
LINE
  5
172
100
AcDbEntity
  8
Layer_1
 62
3
100
AcDbLine
 10
18.661971
 20
24.540050
 30
0.0
 11
18.661971
 21
26.230650
 31
0.0
  0
LINE
  5
173
100
AcDbEntity
  8
Layer_1
 62
3
100
AcDbLine
 10
18.661971
 20
26.230650
 30
0.0
 11
18.661971
 21
27.921210
 31
0.0
  0
LINE
  5
174
100
AcDbEntity
  8
Layer_1
 62
3
100
AcDbLine
 10
18.661971
 20
27.921210
 30
0.0
 11
18.661971
 21
29.611770
 31
0.0
  0
LINE
  5
175
100
AcDbEntity
  8
Layer_1
 62
3
100
AcDbLine
 10
18.661971
 20
29.611770
 30
0.0
 11
18.661971
 21
31.302350
 31
0.0
  0
LINE
  5
176
100
AcDbEntity
  8
Layer_1
 62
3
100
AcDbLine
 10
18.661971
 20
31.302350
 30
0.0
 11
18.661971
 21
32.992940
 31
0.0
  0
LINE
  5
177
100
AcDbEntity
  8
Layer_1
 62
3
100
AcDbLine
 10
18.661971
 20
32.992940
 30
0.0
 11
18.661971
 21
34.683510
 31
0.0
  0
LINE
  5
178
100
AcDbEntity
  8
Layer_1
 62
3
100
AcDbLine
 10
18.661971
 20
34.683510
 30
0.0
 11
18.682961
 21
35.377610
 31
0.0
  0
LINE
  5
179
100
AcDbEntity
  8
Layer_1
 62
3
100
AcDbLine
 10
18.682961
 20
35.377610
 30
0.0
 11
18.743181
 21
36.023300
 31
0.0
  0
LINE
  5
17a
100
AcDbEntity
  8
Layer_1
 62
3
100
AcDbLine
 10
18.743181
 20
36.023300
 30
0.0
 11
18.838541
 21
36.606990
 31
0.0
  0
LINE
  5
17b
100
AcDbEntity
  8
Layer_1
 62
3
100
AcDbLine
 10
18.838541
 20
36.606990
 30
0.0
 11
18.964924
 21
37.115070
 31
0.0
  0
LINE
  5
17c
100
AcDbEntity
  8
Layer_1
 62
3
100
AcDbLine
 10
18.964924
 20
37.115070
 30
0.0
 11
19.118227
 21
37.533930
 31
0.0
  0
LINE
  5
17d
100
AcDbEntity
  8
Layer_1
 62
3
100
AcDbLine
 10
19.118227
 20
37.533930
 30
0.0
 11
19.294344
 21
37.850100
 31
0.0
  0
LINE
  5
17e
100
AcDbEntity
  8
Layer_1
 62
3
100
AcDbLine
 10
19.294344
 20
37.850100
 30
0.0
 11
19.489168
 21
38.049610
 31
0.0
  0
LINE
  5
17f
100
AcDbEntity
  8
Layer_1
 62
3
100
AcDbLine
 10
19.489168
 20
38.049610
 30
0.0
 11
19.698595
 21
38.119310
 31
0.0
  0
LINE
  5
180
100
AcDbEntity
  8
Layer_1
 62
3
100
AcDbLine
 10
18.197097
 20
4.980530
 30
0.0
 11
18.114357
 21
4.159760
 31
0.0
  0
LINE
  5
181
100
AcDbEntity
  8
Layer_1
 62
3
100
AcDbLine
 10
18.114357
 20
4.159760
 30
0.0
 11
17.877051
 21
3.395290
 31
0.0
  0
LINE
  5
182
100
AcDbEntity
  8
Layer_1
 62
3
100
AcDbLine
 10
17.877051
 20
3.395290
 30
0.0
 11
17.501559
 21
2.703490
 31
0.0
  0
LINE
  5
183
100
AcDbEntity
  8
Layer_1
 62
3
100
AcDbLine
 10
17.501559
 20
2.703490
 30
0.0
 11
17.004257
 21
2.100760
 31
0.0
  0
LINE
  5
184
100
AcDbEntity
  8
Layer_1
 62
3
100
AcDbLine
 10
17.004257
 20
2.100760
 30
0.0
 11
16.401521
 21
1.603460
 31
0.0
  0
LINE
  5
185
100
AcDbEntity
  8
Layer_1
 62
3
100
AcDbLine
 10
16.401521
 20
1.603460
 30
0.0
 11
15.709730
 21
1.227970
 31
0.0
  0
LINE
  5
186
100
AcDbEntity
  8
Layer_1
 62
3
100
AcDbLine
 10
15.709730
 20
1.227970
 30
0.0
 11
14.945259
 21
0.990660
 31
0.0
  0
LINE
  5
187
100
AcDbEntity
  8
Layer_1
 62
3
100
AcDbLine
 10
14.945259
 20
0.990660
 30
0.0
 11
14.124486
 21
0.907960
 31
0.0
  0
LINE
  5
188
100
AcDbEntity
  8
Layer_1
 62
3
100
AcDbLine
 10
14.124486
 20
0.907960
 30
0.0
 11
13.303713
 21
0.990660
 31
0.0
  0
LINE
  5
189
100
AcDbEntity
  8
Layer_1
 62
3
100
AcDbLine
 10
13.303713
 20
0.990660
 30
0.0
 11
12.539242
 21
1.227970
 31
0.0
  0
LINE
  5
18a
100
AcDbEntity
  8
Layer_1
 62
3
100
AcDbLine
 10
12.539242
 20
1.227970
 30
0.0
 11
11.847451
 21
1.603460
 31
0.0
  0
LINE
  5
18b
100
AcDbEntity
  8
Layer_1
 62
3
100
AcDbLine
 10
11.847451
 20
1.603460
 30
0.0
 11
11.244715
 21
2.100760
 31
0.0
  0
LINE
  5
18c
100
AcDbEntity
  8
Layer_1
 62
3
100
AcDbLine
 10
11.244715
 20
2.100760
 30
0.0
 11
10.747413
 21
2.703490
 31
0.0
  0
LINE
  5
18d
100
AcDbEntity
  8
Layer_1
 62
3
100
AcDbLine
 10
10.747413
 20
2.703490
 30
0.0
 11
10.371921
 21
3.395290
 31
0.0
  0
LINE
  5
18e
100
AcDbEntity
  8
Layer_1
 62
3
100
AcDbLine
 10
10.371921
 20
3.395290
 30
0.0
 11
10.134615
 21
4.159760
 31
0.0
  0
LINE
  5
18f
100
AcDbEntity
  8
Layer_1
 62
3
100
AcDbLine
 10
10.134615
 20
4.159760
 30
0.0
 11
10.051875
 21
4.980530
 31
0.0
  0
LINE
  5
190
100
AcDbEntity
  8
Layer_1
 62
3
100
AcDbLine
 10
10.051875
 20
4.980530
 30
0.0
 11
10.134615
 21
5.801300
 31
0.0
  0
LINE
  5
191
100
AcDbEntity
  8
Layer_1
 62
3
100
AcDbLine
 10
10.134615
 20
5.801300
 30
0.0
 11
10.371921
 21
6.565770
 31
0.0
  0
LINE
  5
192
100
AcDbEntity
  8
Layer_1
 62
3
100
AcDbLine
 10
10.371921
 20
6.565770
 30
0.0
 11
10.747413
 21
7.257570
 31
0.0
  0
LINE
  5
193
100
AcDbEntity
  8
Layer_1
 62
3
100
AcDbLine
 10
10.747413
 20
7.257570
 30
0.0
 11
11.244715
 21
7.860300
 31
0.0
  0
LINE
  5
194
100
AcDbEntity
  8
Layer_1
 62
3
100
AcDbLine
 10
11.244715
 20
7.860300
 30
0.0
 11
11.847451
 21
8.357600
 31
0.0
  0
LINE
  5
195
100
AcDbEntity
  8
Layer_1
 62
3
100
AcDbLine
 10
11.847451
 20
8.357600
 30
0.0
 11
12.539242
 21
8.733090
 31
0.0
  0
LINE
  5
196
100
AcDbEntity
  8
Layer_1
 62
3
100
AcDbLine
 10
12.539242
 20
8.733090
 30
0.0
 11
13.303713
 21
8.970400
 31
0.0
  0
LINE
  5
197
100
AcDbEntity
  8
Layer_1
 62
3
100
AcDbLine
 10
13.303713
 20
8.970400
 30
0.0
 11
14.124486
 21
9.053100
 31
0.0
  0
LINE
  5
198
100
AcDbEntity
  8
Layer_1
 62
3
100
AcDbLine
 10
14.124486
 20
9.053100
 30
0.0
 11
14.945259
 21
8.970400
 31
0.0
  0
LINE
  5
199
100
AcDbEntity
  8
Layer_1
 62
3
100
AcDbLine
 10
14.945259
 20
8.970400
 30
0.0
 11
15.709730
 21
8.733090
 31
0.0
  0
LINE
  5
19a
100
AcDbEntity
  8
Layer_1
 62
3
100
AcDbLine
 10
15.709730
 20
8.733090
 30
0.0
 11
16.401521
 21
8.357600
 31
0.0
  0
LINE
  5
19b
100
AcDbEntity
  8
Layer_1
 62
3
100
AcDbLine
 10
16.401521
 20
8.357600
 30
0.0
 11
17.004257
 21
7.860300
 31
0.0
  0
LINE
  5
19c
100
AcDbEntity
  8
Layer_1
 62
3
100
AcDbLine
 10
17.004257
 20
7.860300
 30
0.0
 11
17.501559
 21
7.257570
 31
0.0
  0
LINE
  5
19d
100
AcDbEntity
  8
Layer_1
 62
3
100
AcDbLine
 10
17.501559
 20
7.257570
 30
0.0
 11
17.877051
 21
6.565770
 31
0.0
  0
LINE
  5
19e
100
AcDbEntity
  8
Layer_1
 62
3
100
AcDbLine
 10
17.877051
 20
6.565770
 30
0.0
 11
18.114357
 21
5.801300
 31
0.0
  0
LINE
  5
19f
100
AcDbEntity
  8
Layer_1
 62
3
100
AcDbLine
 10
18.114357
 20
5.801300
 30
0.0
 11
18.197097
 21
4.980530
 31
0.0
  0
LINE
  5
1a0
100
AcDbEntity
  8
Layer_1
 62
3
100
AcDbLine
 10
15.752936
 20
11.227940
 30
0.0
 11
15.719856
 21
10.899750
 31
0.0
  0
LINE
  5
1a1
100
AcDbEntity
  8
Layer_1
 62
3
100
AcDbLine
 10
15.719856
 20
10.899750
 30
0.0
 11
15.624966
 21
10.594070
 31
0.0
  0
LINE
  5
1a2
100
AcDbEntity
  8
Layer_1
 62
3
100
AcDbLine
 10
15.624966
 20
10.594070
 30
0.0
 11
15.474824
 21
10.317460
 31
0.0
  0
LINE
  5
1a3
100
AcDbEntity
  8
Layer_1
 62
3
100
AcDbLine
 10
15.474824
 20
10.317460
 30
0.0
 11
15.275976
 21
10.076450
 31
0.0
  0
LINE
  5
1a4
100
AcDbEntity
  8
Layer_1
 62
3
100
AcDbLine
 10
15.275976
 20
10.076450
 30
0.0
 11
15.034969
 21
9.877600
 31
0.0
  0
LINE
  5
1a5
100
AcDbEntity
  8
Layer_1
 62
3
100
AcDbLine
 10
15.034969
 20
9.877600
 30
0.0
 11
14.758353
 21
9.727460
 31
0.0
  0
LINE
  5
1a6
100
AcDbEntity
  8
Layer_1
 62
3
100
AcDbLine
 10
14.758353
 20
9.727460
 30
0.0
 11
14.452677
 21
9.632560
 31
0.0
  0
LINE
  5
1a7
100
AcDbEntity
  8
Layer_1
 62
3
100
AcDbLine
 10
14.452677
 20
9.632560
 30
0.0
 11
14.124487
 21
9.599460
 31
0.0
  0
LINE
  5
1a8
100
AcDbEntity
  8
Layer_1
 62
3
100
AcDbLine
 10
14.124487
 20
9.599460
 30
0.0
 11
13.796297
 21
9.632560
 31
0.0
  0
LINE
  5
1a9
100
AcDbEntity
  8
Layer_1
 62
3
100
AcDbLine
 10
13.796297
 20
9.632560
 30
0.0
 11
13.490621
 21
9.727460
 31
0.0
  0
LINE
  5
1aa
100
AcDbEntity
  8
Layer_1
 62
3
100
AcDbLine
 10
13.490621
 20
9.727460
 30
0.0
 11
13.214005
 21
9.877600
 31
0.0
  0
LINE
  5
1ab
100
AcDbEntity
  8
Layer_1
 62
3
100
AcDbLine
 10
13.214005
 20
9.877600
 30
0.0
 11
12.972998
 21
10.076450
 31
0.0
  0
LINE
  5
1ac
100
AcDbEntity
  8
Layer_1
 62
3
100
AcDbLine
 10
12.972998
 20
10.076450
 30
0.0
 11
12.774150
 21
10.317460
 31
0.0
  0
LINE
  5
1ad
100
AcDbEntity
  8
Layer_1
 62
3
100
AcDbLine
 10
12.774150
 20
10.317460
 30
0.0
 11
12.624008
 21
10.594070
 31
0.0
  0
LINE
  5
1ae
100
AcDbEntity
  8
Layer_1
 62
3
100
AcDbLine
 10
12.624008
 20
10.594070
 30
0.0
 11
12.529118
 21
10.899750
 31
0.0
  0
LINE
  5
1af
100
AcDbEntity
  8
Layer_1
 62
3
100
AcDbLine
 10
12.529118
 20
10.899750
 30
0.0
 11
12.496038
 21
11.227940
 31
0.0
  0
LINE
  5
1b0
100
AcDbEntity
  8
Layer_1
 62
3
100
AcDbLine
 10
12.496038
 20
11.227940
 30
0.0
 11
12.529118
 21
11.556130
 31
0.0
  0
LINE
  5
1b1
100
AcDbEntity
  8
Layer_1
 62
3
100
AcDbLine
 10
12.529118
 20
11.556130
 30
0.0
 11
12.624008
 21
11.861810
 31
0.0
  0
LINE
  5
1b2
100
AcDbEntity
  8
Layer_1
 62
3
100
AcDbLine
 10
12.624008
 20
11.861810
 30
0.0
 11
12.774150
 21
12.138420
 31
0.0
  0
LINE
  5
1b3
100
AcDbEntity
  8
Layer_1
 62
3
100
AcDbLine
 10
12.774150
 20
12.138420
 30
0.0
 11
12.972998
 21
12.379430
 31
0.0
  0
LINE
  5
1b4
100
AcDbEntity
  8
Layer_1
 62
3
100
AcDbLine
 10
12.972998
 20
12.379430
 30
0.0
 11
13.214005
 21
12.578280
 31
0.0
  0
LINE
  5
1b5
100
AcDbEntity
  8
Layer_1
 62
3
100
AcDbLine
 10
13.214005
 20
12.578280
 30
0.0
 11
13.490620
 21
12.728420
 31
0.0
  0
LINE
  5
1b6
100
AcDbEntity
  8
Layer_1
 62
3
100
AcDbLine
 10
13.490620
 20
12.728420
 30
0.0
 11
13.796297
 21
12.823320
 31
0.0
  0
LINE
  5
1b7
100
AcDbEntity
  8
Layer_1
 62
3
100
AcDbLine
 10
13.796297
 20
12.823320
 30
0.0
 11
14.124487
 21
12.856420
 31
0.0
  0
LINE
  5
1b8
100
AcDbEntity
  8
Layer_1
 62
3
100
AcDbLine
 10
14.124487
 20
12.856420
 30
0.0
 11
14.452677
 21
12.823320
 31
0.0
  0
LINE
  5
1b9
100
AcDbEntity
  8
Layer_1
 62
3
100
AcDbLine
 10
14.452677
 20
12.823320
 30
0.0
 11
14.758354
 21
12.728420
 31
0.0
  0
LINE
  5
1ba
100
AcDbEntity
  8
Layer_1
 62
3
100
AcDbLine
 10
14.758354
 20
12.728420
 30
0.0
 11
15.034969
 21
12.578280
 31
0.0
  0
LINE
  5
1bb
100
AcDbEntity
  8
Layer_1
 62
3
100
AcDbLine
 10
15.034969
 20
12.578280
 30
0.0
 11
15.275976
 21
12.379430
 31
0.0
  0
LINE
  5
1bc
100
AcDbEntity
  8
Layer_1
 62
3
100
AcDbLine
 10
15.275976
 20
12.379430
 30
0.0
 11
15.474824
 21
12.138420
 31
0.0
  0
LINE
  5
1bd
100
AcDbEntity
  8
Layer_1
 62
3
100
AcDbLine
 10
15.474824
 20
12.138420
 30
0.0
 11
15.624966
 21
11.861810
 31
0.0
  0
LINE
  5
1be
100
AcDbEntity
  8
Layer_1
 62
3
100
AcDbLine
 10
15.624966
 20
11.861810
 30
0.0
 11
15.719856
 21
11.556130
 31
0.0
  0
LINE
  5
1bf
100
AcDbEntity
  8
Layer_1
 62
3
100
AcDbLine
 10
15.719856
 20
11.556130
 30
0.0
 11
15.752936
 21
11.227940
 31
0.0
  0
LINE
  5
1c0
100
AcDbEntity
  8
Layer_1
 62
3
100
AcDbLine
 10
7.770562
 20
27.993870
 30
0.0
 11
7.737482
 21
27.665680
 31
0.0
  0
LINE
  5
1c1
100
AcDbEntity
  8
Layer_1
 62
3
100
AcDbLine
 10
7.737482
 20
27.665680
 30
0.0
 11
7.642592
 21
27.360000
 31
0.0
  0
LINE
  5
1c2
100
AcDbEntity
  8
Layer_1
 62
3
100
AcDbLine
 10
7.642592
 20
27.360000
 30
0.0
 11
7.492450
 21
27.083390
 31
0.0
  0
LINE
  5
1c3
100
AcDbEntity
  8
Layer_1
 62
3
100
AcDbLine
 10
7.492450
 20
27.083390
 30
0.0
 11
7.293602
 21
26.842380
 31
0.0
  0
LINE
  5
1c4
100
AcDbEntity
  8
Layer_1
 62
3
100
AcDbLine
 10
7.293602
 20
26.842380
 30
0.0
 11
7.052595
 21
26.643530
 31
0.0
  0
LINE
  5
1c5
100
AcDbEntity
  8
Layer_1
 62
3
100
AcDbLine
 10
7.052595
 20
26.643530
 30
0.0
 11
6.775979
 21
26.493390
 31
0.0
  0
LINE
  5
1c6
100
AcDbEntity
  8
Layer_1
 62
3
100
AcDbLine
 10
6.775979
 20
26.493390
 30
0.0
 11
6.470303
 21
26.398490
 31
0.0
  0
LINE
  5
1c7
100
AcDbEntity
  8
Layer_1
 62
3
100
AcDbLine
 10
6.470303
 20
26.398490
 30
0.0
 11
6.142113
 21
26.365390
 31
0.0
  0
LINE
  5
1c8
100
AcDbEntity
  8
Layer_1
 62
3
100
AcDbLine
 10
6.142113
 20
26.365390
 30
0.0
 11
5.813923
 21
26.398490
 31
0.0
  0
LINE
  5
1c9
100
AcDbEntity
  8
Layer_1
 62
3
100
AcDbLine
 10
5.813923
 20
26.398490
 30
0.0
 11
5.508247
 21
26.493390
 31
0.0
  0
LINE
  5
1ca
100
AcDbEntity
  8
Layer_1
 62
3
100
AcDbLine
 10
5.508247
 20
26.493390
 30
0.0
 11
5.231631
 21
26.643530
 31
0.0
  0
LINE
  5
1cb
100
AcDbEntity
  8
Layer_1
 62
3
100
AcDbLine
 10
5.231631
 20
26.643530
 30
0.0
 11
4.990624
 21
26.842380
 31
0.0
  0
LINE
  5
1cc
100
AcDbEntity
  8
Layer_1
 62
3
100
AcDbLine
 10
4.990624
 20
26.842380
 30
0.0
 11
4.791776
 21
27.083390
 31
0.0
  0
LINE
  5
1cd
100
AcDbEntity
  8
Layer_1
 62
3
100
AcDbLine
 10
4.791776
 20
27.083390
 30
0.0
 11
4.641634
 21
27.360000
 31
0.0
  0
LINE
  5
1ce
100
AcDbEntity
  8
Layer_1
 62
3
100
AcDbLine
 10
4.641634
 20
27.360000
 30
0.0
 11
4.546744
 21
27.665680
 31
0.0
  0
LINE
  5
1cf
100
AcDbEntity
  8
Layer_1
 62
3
100
AcDbLine
 10
4.546744
 20
27.665680
 30
0.0
 11
4.513664
 21
27.993870
 31
0.0
  0
LINE
  5
1d0
100
AcDbEntity
  8
Layer_1
 62
3
100
AcDbLine
 10
4.513664
 20
27.993870
 30
0.0
 11
4.546744
 21
28.322060
 31
0.0
  0
LINE
  5
1d1
100
AcDbEntity
  8
Layer_1
 62
3
100
AcDbLine
 10
4.546744
 20
28.322060
 30
0.0
 11
4.641634
 21
28.627740
 31
0.0
  0
LINE
  5
1d2
100
AcDbEntity
  8
Layer_1
 62
3
100
AcDbLine
 10
4.641634
 20
28.627740
 30
0.0
 11
4.791776
 21
28.904350
 31
0.0
  0
LINE
  5
1d3
100
AcDbEntity
  8
Layer_1
 62
3
100
AcDbLine
 10
4.791776
 20
28.904350
 30
0.0
 11
4.990624
 21
29.145360
 31
0.0
  0
LINE
  5
1d4
100
AcDbEntity
  8
Layer_1
 62
3
100
AcDbLine
 10
4.990624
 20
29.145360
 30
0.0
 11
5.231631
 21
29.344210
 31
0.0
  0
LINE
  5
1d5
100
AcDbEntity
  8
Layer_1
 62
3
100
AcDbLine
 10
5.231631
 20
29.344210
 30
0.0
 11
5.508246
 21
29.494350
 31
0.0
  0
LINE
  5
1d6
100
AcDbEntity
  8
Layer_1
 62
3
100
AcDbLine
 10
5.508246
 20
29.494350
 30
0.0
 11
5.813923
 21
29.589250
 31
0.0
  0
LINE
  5
1d7
100
AcDbEntity
  8
Layer_1
 62
3
100
AcDbLine
 10
5.813923
 20
29.589250
 30
0.0
 11
6.142113
 21
29.622350
 31
0.0
  0
LINE
  5
1d8
100
AcDbEntity
  8
Layer_1
 62
3
100
AcDbLine
 10
6.142113
 20
29.622350
 30
0.0
 11
6.470303
 21
29.589250
 31
0.0
  0
LINE
  5
1d9
100
AcDbEntity
  8
Layer_1
 62
3
100
AcDbLine
 10
6.470303
 20
29.589250
 30
0.0
 11
6.775980
 21
29.494350
 31
0.0
  0
LINE
  5
1da
100
AcDbEntity
  8
Layer_1
 62
3
100
AcDbLine
 10
6.775980
 20
29.494350
 30
0.0
 11
7.052595
 21
29.344210
 31
0.0
  0
LINE
  5
1db
100
AcDbEntity
  8
Layer_1
 62
3
100
AcDbLine
 10
7.052595
 20
29.344210
 30
0.0
 11
7.293602
 21
29.145360
 31
0.0
  0
LINE
  5
1dc
100
AcDbEntity
  8
Layer_1
 62
3
100
AcDbLine
 10
7.293602
 20
29.145360
 30
0.0
 11
7.492450
 21
28.904350
 31
0.0
  0
LINE
  5
1dd
100
AcDbEntity
  8
Layer_1
 62
3
100
AcDbLine
 10
7.492450
 20
28.904350
 30
0.0
 11
7.642592
 21
28.627740
 31
0.0
  0
LINE
  5
1de
100
AcDbEntity
  8
Layer_1
 62
3
100
AcDbLine
 10
7.642592
 20
28.627740
 30
0.0
 11
7.737482
 21
28.322060
 31
0.0
  0
LINE
  5
1df
100
AcDbEntity
  8
Layer_1
 62
3
100
AcDbLine
 10
7.737482
 20
28.322060
 30
0.0
 11
7.770562
 21
27.993870
 31
0.0
  0
LINE
  5
1e0
100
AcDbEntity
  8
Layer_1
 62
3
100
AcDbLine
 10
23.405831
 20
27.993870
 30
0.0
 11
23.372751
 21
27.665680
 31
0.0
  0
LINE
  5
1e1
100
AcDbEntity
  8
Layer_1
 62
3
100
AcDbLine
 10
23.372751
 20
27.665680
 30
0.0
 11
23.277861
 21
27.360000
 31
0.0
  0
LINE
  5
1e2
100
AcDbEntity
  8
Layer_1
 62
3
100
AcDbLine
 10
23.277861
 20
27.360000
 30
0.0
 11
23.127719
 21
27.083390
 31
0.0
  0
LINE
  5
1e3
100
AcDbEntity
  8
Layer_1
 62
3
100
AcDbLine
 10
23.127719
 20
27.083390
 30
0.0
 11
22.928871
 21
26.842380
 31
0.0
  0
LINE
  5
1e4
100
AcDbEntity
  8
Layer_1
 62
3
100
AcDbLine
 10
22.928871
 20
26.842380
 30
0.0
 11
22.687864
 21
26.643530
 31
0.0
  0
LINE
  5
1e5
100
AcDbEntity
  8
Layer_1
 62
3
100
AcDbLine
 10
22.687864
 20
26.643530
 30
0.0
 11
22.411248
 21
26.493390
 31
0.0
  0
LINE
  5
1e6
100
AcDbEntity
  8
Layer_1
 62
3
100
AcDbLine
 10
22.411248
 20
26.493390
 30
0.0
 11
22.105572
 21
26.398490
 31
0.0
  0
LINE
  5
1e7
100
AcDbEntity
  8
Layer_1
 62
3
100
AcDbLine
 10
22.105572
 20
26.398490
 30
0.0
 11
21.777382
 21
26.365390
 31
0.0
  0
LINE
  5
1e8
100
AcDbEntity
  8
Layer_1
 62
3
100
AcDbLine
 10
21.777382
 20
26.365390
 30
0.0
 11
21.449192
 21
26.398490
 31
0.0
  0
LINE
  5
1e9
100
AcDbEntity
  8
Layer_1
 62
3
100
AcDbLine
 10
21.449192
 20
26.398490
 30
0.0
 11
21.143516
 21
26.493390
 31
0.0
  0
LINE
  5
1ea
100
AcDbEntity
  8
Layer_1
 62
3
100
AcDbLine
 10
21.143516
 20
26.493390
 30
0.0
 11
20.866900
 21
26.643530
 31
0.0
  0
LINE
  5
1eb
100
AcDbEntity
  8
Layer_1
 62
3
100
AcDbLine
 10
20.866900
 20
26.643530
 30
0.0
 11
20.625893
 21
26.842380
 31
0.0
  0
LINE
  5
1ec
100
AcDbEntity
  8
Layer_1
 62
3
100
AcDbLine
 10
20.625893
 20
26.842380
 30
0.0
 11
20.427045
 21
27.083390
 31
0.0
  0
LINE
  5
1ed
100
AcDbEntity
  8
Layer_1
 62
3
100
AcDbLine
 10
20.427045
 20
27.083390
 30
0.0
 11
20.276903
 21
27.360000
 31
0.0
  0
LINE
  5
1ee
100
AcDbEntity
  8
Layer_1
 62
3
100
AcDbLine
 10
20.276903
 20
27.360000
 30
0.0
 11
20.182013
 21
27.665680
 31
0.0
  0
LINE
  5
1ef
100
AcDbEntity
  8
Layer_1
 62
3
100
AcDbLine
 10
20.182013
 20
27.665680
 30
0.0
 11
20.148933
 21
27.993870
 31
0.0
  0
LINE
  5
1f0
100
AcDbEntity
  8
Layer_1
 62
3
100
AcDbLine
 10
20.148933
 20
27.993870
 30
0.0
 11
20.182013
 21
28.322060
 31
0.0
  0
LINE
  5
1f1
100
AcDbEntity
  8
Layer_1
 62
3
100
AcDbLine
 10
20.182013
 20
28.322060
 30
0.0
 11
20.276903
 21
28.627740
 31
0.0
  0
LINE
  5
1f2
100
AcDbEntity
  8
Layer_1
 62
3
100
AcDbLine
 10
20.276903
 20
28.627740
 30
0.0
 11
20.427045
 21
28.904350
 31
0.0
  0
LINE
  5
1f3
100
AcDbEntity
  8
Layer_1
 62
3
100
AcDbLine
 10
20.427045
 20
28.904350
 30
0.0
 11
20.625893
 21
29.145360
 31
0.0
  0
LINE
  5
1f4
100
AcDbEntity
  8
Layer_1
 62
3
100
AcDbLine
 10
20.625893
 20
29.145360
 30
0.0
 11
20.866900
 21
29.344210
 31
0.0
  0
LINE
  5
1f5
100
AcDbEntity
  8
Layer_1
 62
3
100
AcDbLine
 10
20.866900
 20
29.344210
 30
0.0
 11
21.143515
 21
29.494350
 31
0.0
  0
LINE
  5
1f6
100
AcDbEntity
  8
Layer_1
 62
3
100
AcDbLine
 10
21.143515
 20
29.494350
 30
0.0
 11
21.449192
 21
29.589250
 31
0.0
  0
LINE
  5
1f7
100
AcDbEntity
  8
Layer_1
 62
3
100
AcDbLine
 10
21.449192
 20
29.589250
 30
0.0
 11
21.777382
 21
29.622350
 31
0.0
  0
LINE
  5
1f8
100
AcDbEntity
  8
Layer_1
 62
3
100
AcDbLine
 10
21.777382
 20
29.622350
 30
0.0
 11
22.105572
 21
29.589250
 31
0.0
  0
LINE
  5
1f9
100
AcDbEntity
  8
Layer_1
 62
3
100
AcDbLine
 10
22.105572
 20
29.589250
 30
0.0
 11
22.411249
 21
29.494350
 31
0.0
  0
LINE
  5
1fa
100
AcDbEntity
  8
Layer_1
 62
3
100
AcDbLine
 10
22.411249
 20
29.494350
 30
0.0
 11
22.687864
 21
29.344210
 31
0.0
  0
LINE
  5
1fb
100
AcDbEntity
  8
Layer_1
 62
3
100
AcDbLine
 10
22.687864
 20
29.344210
 30
0.0
 11
22.928871
 21
29.145360
 31
0.0
  0
LINE
  5
1fc
100
AcDbEntity
  8
Layer_1
 62
3
100
AcDbLine
 10
22.928871
 20
29.145360
 30
0.0
 11
23.127719
 21
28.904350
 31
0.0
  0
LINE
  5
1fd
100
AcDbEntity
  8
Layer_1
 62
3
100
AcDbLine
 10
23.127719
 20
28.904350
 30
0.0
 11
23.277861
 21
28.627740
 31
0.0
  0
LINE
  5
1fe
100
AcDbEntity
  8
Layer_1
 62
3
100
AcDbLine
 10
23.277861
 20
28.627740
 30
0.0
 11
23.372751
 21
28.322060
 31
0.0
  0
LINE
  5
1ff
100
AcDbEntity
  8
Layer_1
 62
3
100
AcDbLine
 10
23.372751
 20
28.322060
 30
0.0
 11
23.405831
 21
27.993870
 31
0.0
  0
ENDSEC
  0
SECTION
  2
OBJECTS
  0
DICTIONARY
  5
C
330
0
100
AcDbDictionary
  3
ACAD_GROUP
350
D
  3
ACAD_MLINESTYLE
350
17
  0
DICTIONARY
  5
D
330
C
100
AcDbDictionary
  0
DICTIONARY
  5
1A
330
C
100
AcDbDictionary
  0
DICTIONARY
  5
17
330
C
100
AcDbDictionary
  3
STANDARD
350
18
  0
DICTIONARY
  5
19
330
C
100
AcDbDictionary
  0
ENDSEC
  0
EOF
