<?xml version="1.0" encoding="UTF-8" standalone="no"?>
<!-- Created with Inkscape (http://www.inkscape.org/) -->

<svg
   xmlns:dc="http://purl.org/dc/elements/1.1/"
   xmlns:cc="http://creativecommons.org/ns#"
   xmlns:rdf="http://www.w3.org/1999/02/22-rdf-syntax-ns#"
   xmlns:svg="http://www.w3.org/2000/svg"
   xmlns="http://www.w3.org/2000/svg"
   xmlns:sodipodi="http://sodipodi.sourceforge.net/DTD/sodipodi-0.dtd"
   xmlns:inkscape="http://www.inkscape.org/namespaces/inkscape"
   width="210mm"
   height="297mm"
   viewBox="0 0 210 297"
   version="1.1"
   id="svg1587"
   inkscape:version="0.92.5 (0.92.5+68)"
   sodipodi:docname="TinyCase_cover.svg">
  <defs
     id="defs1581" />
  <sodipodi:namedview
     id="base"
     pagecolor="#ffffff"
     bordercolor="#666666"
     borderopacity="1.0"
     inkscape:pageopacity="0.0"
     inkscape:pageshadow="2"
     inkscape:zoom="2.8"
     inkscape:cx="64.23928"
     inkscape:cy="56.824332"
     inkscape:document-units="mm"
     inkscape:current-layer="layer1"
     showgrid="false"
     inkscape:window-width="1855"
     inkscape:window-height="1056"
     inkscape:window-x="65"
     inkscape:window-y="24"
     inkscape:window-maximized="1" />
  <metadata
     id="metadata1584">
    <rdf:RDF>
      <cc:Work
         rdf:about="">
        <dc:format>image/svg+xml</dc:format>
        <dc:type
           rdf:resource="http://purl.org/dc/dcmitype/StillImage" />
        <dc:title />
      </cc:Work>
    </rdf:RDF>
  </metadata>
  <g
     inkscape:label="Layer 1"
     inkscape:groupmode="layer"
     id="layer1">
    <path
       style="opacity:1;vector-effect:none;fill:#ffff00;fill-opacity:1;stroke:none;stroke-width:0.25253814;stroke-linecap:round;stroke-linejoin:miter;stroke-miterlimit:4;stroke-dasharray:none;stroke-dashoffset:0;stroke-opacity:1;paint-order:normal"
       d="m 4.2691714,295.32315 -0.1830509,-0.0526 -0.1775106,-0.0649 -0.171778,-0.0771 -0.1658532,-0.089 -0.1597364,-0.10075 -0.1534273,-0.11231 -0.1469261,-0.12366 -0.1402328,-0.13481 -0.1333472,-0.14578 -0.1262696,-0.15654 -0.1189998,-0.1671 -0.1115377,-0.17748 -0.1038836,-0.18764 -0.096037,-0.19762 -0.087999,-0.20739 -0.079768,-0.21698 -0.011391,-0.0334 -0.011391,-0.0334 -0.011391,-0.0334 -0.011391,-0.0334 -0.011391,-0.0334 -0.011391,-0.0334 -0.011391,-0.0334 -0.011391,-0.0334 -0.011391,-0.0334 -0.011391,-0.0334 -0.011391,-0.0334 -0.011391,-0.0334 -0.011391,-0.0334 -0.011391,-0.0334 -0.011391,-0.0334 -0.011391,-0.0334 -0.00115,-1.02105 -0.00115,-1.02106 -0.00115,-1.02105 -0.00115,-1.02106 -0.00115,-1.02105 -0.00115,-1.02105 -0.00115,-1.02106 -0.00115,-1.02105 -0.00115,-1.02105 -0.00115,-1.02106 -0.00115,-1.02105 -0.00115,-1.02106 -0.00115,-1.02105 -0.00115,-1.02105 -0.00115,-1.02106 -0.00115,-1.02105 -0.00381,-3.17797 -0.00327,-2.75573 -0.00198,-2.36509 4.37e-5,-2.00605 0.00281,-1.6786 0.00632,-1.38275 0.010567,-1.11851 0.015557,-0.88585 0.021289,-0.68479 0.027762,-0.51534 0.034976,-0.37749 0.042932,-0.27122 0.051628,-0.19656 0.061066,-0.1535 0.071246,-0.14204 0.082166,-0.16216 0.063566,-0.1265 0.066864,-0.12195 0.070174,-0.1174 0.073498,-0.11287 0.076835,-0.10836 0.080186,-0.10385 0.083549,-0.0994 0.086925,-0.0949 0.090315,-0.0904 0.093718,-0.086 0.097134,-0.0816 0.1005633,-0.0771 0.1040056,-0.0727 0.1074611,-0.0683 0.1109297,-0.0639 0.1144116,-0.0596 0.031913,-0.0158 0.031913,-0.0158 0.031913,-0.0158 0.031913,-0.0158 0.031913,-0.0158 0.031913,-0.0158 0.031913,-0.0158 0.031913,-0.0158 0.031913,-0.0158 0.031913,-0.0158 0.031913,-0.0158 0.031913,-0.0158 0.031913,-0.0158 0.031913,-0.0158 0.031913,-0.0158 0.031913,-0.0158 0.599269,-0.001 0.599269,-0.001 0.599269,-0.001 0.599269,-0.001 0.599269,-0.001 0.599269,-0.001 0.599269,-0.001 0.599269,-0.001 0.599269,-0.001 0.5992686,-0.001 0.599269,-0.001 0.599269,-0.001 0.599269,-0.001 0.599269,-0.001 0.599269,-0.001 0.599269,-0.001 1.527145,-0.003 1.359268,-0.002 1.201516,-0.001 1.053891,-3.8e-4 0.91639,5.6e-4 0.789014,0.002 0.671764,0.003 0.56464,0.004 0.467639,0.005 0.380765,0.007 0.304016,0.008 0.237393,0.01 0.180894,0.0114 0.13452,0.0132 0.09827,0.015 0.07215,0.017 0.189428,0.0625 0.183729,0.0768 0.177672,0.0907 0.171257,0.1042 0.164482,0.11728 0.15735,0.12993 0.149858,0.14217 0.142007,0.154 0.133799,0.16541 0.125231,0.17641 0.116304,0.18699 0.107019,0.19715 0.09737,0.2069 0.08737,0.21624 0.07701,0.22515 0.06629,0.23366 0.02219,0.0952 0.01949,0.11641 0.01696,0.16035 0.01462,0.22708 0.01244,0.31659 0.01044,0.42887 0.0086,0.56393 0.007,0.72177 0.0055,0.90239 0.0042,1.10579 0.0031,1.33197 0.0021,1.58093 0.0013,1.85266 7.44e-4,2.14718 3.18e-4,2.46447 6.7e-5,2.80454 -5.7e-5,2.82498 -2.95e-4,2.47958 -7.15e-4,2.15753 -0.0013,1.85885 -0.0021,1.58351 -0.0031,1.33154 -0.0042,1.10292 -0.0056,0.89767 -0.0071,0.71577 -0.0088,0.55722 -0.01067,0.42204 -0.01275,0.31022 -0.015,0.22174 -0.01743,0.15664 -0.02005,0.11488 -0.02286,0.0965 -0.05545,0.19874 -0.06291,0.19201 -0.07027,0.18513 -0.07753,0.17812 -0.08468,0.17097 -0.09173,0.16369 -0.09868,0.15625 -0.105523,0.1487 -0.112262,0.14099 -0.118897,0.13315 -0.125428,0.12517 -0.131855,0.11706 -0.138178,0.1088 -0.144397,0.10041 -0.150512,0.0919 -0.156525,0.0832 -0.03176,0.0157 -0.03176,0.0157 -0.03176,0.0157 -0.03176,0.0157 -0.03176,0.0157 -0.03176,0.0157 -0.03176,0.0157 -0.03176,0.0157 -0.03176,0.0157 -0.03176,0.0157 -0.03176,0.0157 -0.03176,0.0157 -0.03176,0.0157 -0.03176,0.0157 -0.03176,0.0157 -0.03176,0.0157 -0.597398,7.3e-4 -0.597399,7.2e-4 -0.597398,7.3e-4 -0.597399,7.2e-4 -0.597398,7.3e-4 -0.597399,7.2e-4 -0.597399,7.3e-4 -0.597398,7.2e-4 -0.597399,7.3e-4 -0.597398,7.2e-4 -0.597399,7.3e-4 -0.597398,7.2e-4 -0.597399,7.3e-4 -0.597398,7.2e-4 -0.597399,7.3e-4 -0.597399,7.2e-4 -1.33512,0.001 -1.216774,7.7e-4 -1.103308,1.1e-4 -0.9947198,-5.8e-4 -0.8910098,-0.001 -0.7921787,-0.002 -0.698226,-0.003 -0.609152,-0.004 -0.5249564,-0.005 -0.4456394,-0.005 -0.3712011,-0.006 -0.3016411,-0.007 -0.2369598,-0.008 -0.1771571,-0.009 -0.1222328,-0.0105 -0.072187,-0.0116 0,10e-6 0,0 -10e-8,1e-5 0,0 0,10e-6 0,0 -1e-7,1e-5 0,0 0,10e-6 0,1e-5 -1e-7,0 0,10e-6 0,0 0,1e-5 -10e-8,0 z"
       id="path854"
       inkscape:connector-curvature="0"
       sodipodi:nodetypes="ccccccccccccccccccccccccccccccccccccccccccccccccccccccccccccccccccccccccccccccccccccccccccccccccccccccccccccccccccccccccccccccccccccccccccccccccccccccccccccccccccccccccccccccccccccccccccccccccccccccccccccccccccccccccccccccccccccccccccccccccccccccccccccccccc" />
  </g>
</svg>
