  0
SECTION
  2
HEADER
  9
$ACADVER
  1
AC1014
  9
$HANDSEED
  5
FFFF
  9
$MEASUREMENT
 70
     1
  0
ENDSEC
  0
SECTION
  2
TABLES
  0
TABLE
  2
VPORT
  5
8
330
0
100
AcDbSymbolTable
 70
     4
  0
VPORT
  5
2E
330
8
100
AcDbSymbolTableRecord
100
AcDbViewportTableRecord
  2
*ACTIVE
 70
     0
 10
0.0
 20
0.0
 11
1.0
 21
1.0
 12
210.0
 22
148.5
 13
0.0
 23
0.0
 14
10.0
 24
10.0
 15
10.0
 25
10.0
 16
0.0
 26
0.0
 36
1.0
 17
0.0
 27
0.0
 37
0.0
 40
341.0
 41
1.24
 42
50.0
 43
0.0
 44
0.0
 50
0.0
 51
0.0
 71
     0
 72
   100
 73
     1
 74
     3
 75
     0
 76
     0
 77
     0
 78
     0
  0
ENDTAB
  0
TABLE
  2
LTYPE
  5
5
330
0
100
AcDbSymbolTable
 70
     1
  0
LTYPE
  5
14
330
5
100
AcDbSymbolTableRecord
100
AcDbLinetypeTableRecord
  2
BYBLOCK
 70
     0
  3

 72
    65
 73
     0
 40
0.0
  0
LTYPE
  5
15
330
5
100
AcDbSymbolTableRecord
100
AcDbLinetypeTableRecord
  2
BYLAYER
 70
     0
  3

 72
    65
 73
     0
 40
0.0
  0
LTYPE
  5
16
330
5
100
AcDbSymbolTableRecord
100
AcDbLinetypeTableRecord
  2
CONTINUOUS
 70
     0
  3
Solid line
 72
    65
 73
     0
 40
0.0
  0
ENDTAB
  0
TABLE
  2
LAYER
  5
2
100
AcDbSymbolTable
 70
2
  0
LAYER
  5
50
100
AcDbSymbolTableRecord
100
AcDbLayerTableRecord
  2
0
 70
0
  6
CONTINUOUS
  0
LAYER
  5
51
100
AcDbSymbolTableRecord
100
AcDbLayerTableRecord
  2
Layer_1
 70
0
  6
CONTINUOUS
  0
ENDTAB
  0
TABLE
  2
STYLE
  5
3
330
0
100
AcDbSymbolTable
 70
     1
  0
STYLE
  5
11
330
3
100
AcDbSymbolTableRecord
100
AcDbTextStyleTableRecord
  2
STANDARD
 70
     0
 40
0.0
 41
1.0
 50
0.0
 71
     0
 42
2.5
  3
txt
  4

  0
ENDTAB
  0
TABLE
  2
VIEW
  5
6
330
0
100
AcDbSymbolTable
 70
     0
  0
ENDTAB
  0
TABLE
  2
UCS
  5
7
330
0
100
AcDbSymbolTable
 70
     0
  0
ENDTAB
  0
TABLE
  2
APPID
  5
9
330
0
100
AcDbSymbolTable
 70
     2
  0
APPID
  5
12
330
9
100
AcDbSymbolTableRecord
100
AcDbRegAppTableRecord
  2
ACAD
 70
     0
  0
ENDTAB
  0
TABLE
  2
DIMSTYLE
  5
A
330
0
100
AcDbSymbolTable
 70
     1
  0
DIMSTYLE
105
27
330
A
100
AcDbSymbolTableRecord
100
AcDbDimStyleTableRecord
  2
ISO-25
 70
     0
  3

  4

  5

  6

  7

 40
1.0
 41
2.5
 42
0.625
 43
3.75
 44
1.25
 45
0.0
 46
0.0
 47
0.0
 48
0.0
140
2.5
141
2.5
142
0.0
143
0.03937007874016
144
1.0
145
0.0
146
1.0
147
0.625
 71
     0
 72
     0
 73
     0
 74
     0
 75
     0
 76
     0
 77
     1
 78
     8
170
     0
171
     3
172
     1
173
     0
174
     0
175
     0
176
     0
177
     0
178
     0
270
     2
271
     2
272
     2
273
     2
274
     3
340
11
275
     0
280
     0
281
     0
282
     0
283
     0
284
     8
285
     0
286
     0
287
     3
288
     0
  0
ENDTAB
  0
TABLE
  2
BLOCK_RECORD
  5
1
330
0
100
AcDbSymbolTable
 70
     1
  0
BLOCK_RECORD
  5
1F
330
1
100
AcDbSymbolTableRecord
100
AcDbBlockTableRecord
  2
*MODEL_SPACE
  0
BLOCK_RECORD
  5
1B
330
1
100
AcDbSymbolTableRecord
100
AcDbBlockTableRecord
  2
*PAPER_SPACE
  0
ENDTAB
  0
ENDSEC
  0
SECTION
  2
BLOCKS
  0
BLOCK
  5
20
330
1F
100
AcDbEntity
  8
0
100
AcDbBlockBegin
  2
*MODEL_SPACE
 70
     0
 10
0.0
 20
0.0
 30
0.0
  3
*MODEL_SPACE
  1

  0
ENDBLK
  5
21
330
1F
100
AcDbEntity
  8
0
100
AcDbBlockEnd
  0
BLOCK
  5
1C
330
1B
100
AcDbEntity
 67
     1
  8
0
100
AcDbBlockBegin
  2
*PAPER_SPACE
  1

  0
ENDBLK
  5
1D
330
1B
100
AcDbEntity
 67
     1
  8
0
100
AcDbBlockEnd
  0
ENDSEC
  0
SECTION
  2
ENTITIES
  0
LINE
  5
100
100
AcDbEntity
  8
Layer_1
 62
7
100
AcDbLine
 10
4.269171
 20
1.676850
 30
0.0
 11
4.086121
 21
1.729450
 31
0.0
  0
LINE
  5
101
100
AcDbEntity
  8
Layer_1
 62
7
100
AcDbLine
 10
4.086121
 20
1.729450
 30
0.0
 11
3.908610
 21
1.794350
 31
0.0
  0
LINE
  5
102
100
AcDbEntity
  8
Layer_1
 62
7
100
AcDbLine
 10
3.908610
 20
1.794350
 30
0.0
 11
3.736832
 21
1.871450
 31
0.0
  0
LINE
  5
103
100
AcDbEntity
  8
Layer_1
 62
7
100
AcDbLine
 10
3.736832
 20
1.871450
 30
0.0
 11
3.570979
 21
1.960450
 31
0.0
  0
LINE
  5
104
100
AcDbEntity
  8
Layer_1
 62
7
100
AcDbLine
 10
3.570979
 20
1.960450
 30
0.0
 11
3.411242
 21
2.061200
 31
0.0
  0
LINE
  5
105
100
AcDbEntity
  8
Layer_1
 62
7
100
AcDbLine
 10
3.411242
 20
2.061200
 30
0.0
 11
3.257815
 21
2.173510
 31
0.0
  0
LINE
  5
106
100
AcDbEntity
  8
Layer_1
 62
7
100
AcDbLine
 10
3.257815
 20
2.173510
 30
0.0
 11
3.110889
 21
2.297170
 31
0.0
  0
LINE
  5
107
100
AcDbEntity
  8
Layer_1
 62
7
100
AcDbLine
 10
3.110889
 20
2.297170
 30
0.0
 11
2.970656
 21
2.431980
 31
0.0
  0
LINE
  5
108
100
AcDbEntity
  8
Layer_1
 62
7
100
AcDbLine
 10
2.970656
 20
2.431980
 30
0.0
 11
2.837309
 21
2.577760
 31
0.0
  0
LINE
  5
109
100
AcDbEntity
  8
Layer_1
 62
7
100
AcDbLine
 10
2.837309
 20
2.577760
 30
0.0
 11
2.711039
 21
2.734300
 31
0.0
  0
LINE
  5
10a
100
AcDbEntity
  8
Layer_1
 62
7
100
AcDbLine
 10
2.711039
 20
2.734300
 30
0.0
 11
2.592040
 21
2.901400
 31
0.0
  0
LINE
  5
10b
100
AcDbEntity
  8
Layer_1
 62
7
100
AcDbLine
 10
2.592040
 20
2.901400
 30
0.0
 11
2.480502
 21
3.078880
 31
0.0
  0
LINE
  5
10c
100
AcDbEntity
  8
Layer_1
 62
7
100
AcDbLine
 10
2.480502
 20
3.078880
 30
0.0
 11
2.376618
 21
3.266520
 31
0.0
  0
LINE
  5
10d
100
AcDbEntity
  8
Layer_1
 62
7
100
AcDbLine
 10
2.376618
 20
3.266520
 30
0.0
 11
2.280581
 21
3.464140
 31
0.0
  0
LINE
  5
10e
100
AcDbEntity
  8
Layer_1
 62
7
100
AcDbLine
 10
2.280581
 20
3.464140
 30
0.0
 11
2.192582
 21
3.671530
 31
0.0
  0
LINE
  5
10f
100
AcDbEntity
  8
Layer_1
 62
7
100
AcDbLine
 10
2.192582
 20
3.671530
 30
0.0
 11
2.112814
 21
3.888510
 31
0.0
  0
LINE
  5
110
100
AcDbEntity
  8
Layer_1
 62
7
100
AcDbLine
 10
2.112814
 20
3.888510
 30
0.0
 11
2.101423
 21
3.921910
 31
0.0
  0
LINE
  5
111
100
AcDbEntity
  8
Layer_1
 62
7
100
AcDbLine
 10
2.101423
 20
3.921910
 30
0.0
 11
2.090032
 21
3.955310
 31
0.0
  0
LINE
  5
112
100
AcDbEntity
  8
Layer_1
 62
7
100
AcDbLine
 10
2.090032
 20
3.955310
 30
0.0
 11
2.078641
 21
3.988710
 31
0.0
  0
LINE
  5
113
100
AcDbEntity
  8
Layer_1
 62
7
100
AcDbLine
 10
2.078641
 20
3.988710
 30
0.0
 11
2.067250
 21
4.022110
 31
0.0
  0
LINE
  5
114
100
AcDbEntity
  8
Layer_1
 62
7
100
AcDbLine
 10
2.067250
 20
4.022110
 30
0.0
 11
2.055859
 21
4.055510
 31
0.0
  0
LINE
  5
115
100
AcDbEntity
  8
Layer_1
 62
7
100
AcDbLine
 10
2.055859
 20
4.055510
 30
0.0
 11
2.044468
 21
4.088910
 31
0.0
  0
LINE
  5
116
100
AcDbEntity
  8
Layer_1
 62
7
100
AcDbLine
 10
2.044468
 20
4.088910
 30
0.0
 11
2.033077
 21
4.122310
 31
0.0
  0
LINE
  5
117
100
AcDbEntity
  8
Layer_1
 62
7
100
AcDbLine
 10
2.033077
 20
4.122310
 30
0.0
 11
2.021686
 21
4.155710
 31
0.0
  0
LINE
  5
118
100
AcDbEntity
  8
Layer_1
 62
7
100
AcDbLine
 10
2.021686
 20
4.155710
 30
0.0
 11
2.010295
 21
4.189110
 31
0.0
  0
LINE
  5
119
100
AcDbEntity
  8
Layer_1
 62
7
100
AcDbLine
 10
2.010295
 20
4.189110
 30
0.0
 11
1.998904
 21
4.222510
 31
0.0
  0
LINE
  5
11a
100
AcDbEntity
  8
Layer_1
 62
7
100
AcDbLine
 10
1.998904
 20
4.222510
 30
0.0
 11
1.987513
 21
4.255910
 31
0.0
  0
LINE
  5
11b
100
AcDbEntity
  8
Layer_1
 62
7
100
AcDbLine
 10
1.987513
 20
4.255910
 30
0.0
 11
1.976122
 21
4.289310
 31
0.0
  0
LINE
  5
11c
100
AcDbEntity
  8
Layer_1
 62
7
100
AcDbLine
 10
1.976122
 20
4.289310
 30
0.0
 11
1.964731
 21
4.322710
 31
0.0
  0
LINE
  5
11d
100
AcDbEntity
  8
Layer_1
 62
7
100
AcDbLine
 10
1.964731
 20
4.322710
 30
0.0
 11
1.953340
 21
4.356110
 31
0.0
  0
LINE
  5
11e
100
AcDbEntity
  8
Layer_1
 62
7
100
AcDbLine
 10
1.953340
 20
4.356110
 30
0.0
 11
1.941949
 21
4.389510
 31
0.0
  0
LINE
  5
11f
100
AcDbEntity
  8
Layer_1
 62
7
100
AcDbLine
 10
1.941949
 20
4.389510
 30
0.0
 11
1.930558
 21
4.422910
 31
0.0
  0
LINE
  5
120
100
AcDbEntity
  8
Layer_1
 62
7
100
AcDbLine
 10
1.930558
 20
4.422910
 30
0.0
 11
1.929408
 21
5.443960
 31
0.0
  0
LINE
  5
121
100
AcDbEntity
  8
Layer_1
 62
7
100
AcDbLine
 10
1.929408
 20
5.443960
 30
0.0
 11
1.928258
 21
6.465020
 31
0.0
  0
LINE
  5
122
100
AcDbEntity
  8
Layer_1
 62
7
100
AcDbLine
 10
1.928258
 20
6.465020
 30
0.0
 11
1.927108
 21
7.486070
 31
0.0
  0
LINE
  5
123
100
AcDbEntity
  8
Layer_1
 62
7
100
AcDbLine
 10
1.927108
 20
7.486070
 30
0.0
 11
1.925958
 21
8.507130
 31
0.0
  0
LINE
  5
124
100
AcDbEntity
  8
Layer_1
 62
7
100
AcDbLine
 10
1.925958
 20
8.507130
 30
0.0
 11
1.924808
 21
9.528180
 31
0.0
  0
LINE
  5
125
100
AcDbEntity
  8
Layer_1
 62
7
100
AcDbLine
 10
1.924808
 20
9.528180
 30
0.0
 11
1.923658
 21
10.549230
 31
0.0
  0
LINE
  5
126
100
AcDbEntity
  8
Layer_1
 62
7
100
AcDbLine
 10
1.923658
 20
10.549230
 30
0.0
 11
1.922508
 21
11.570290
 31
0.0
  0
LINE
  5
127
100
AcDbEntity
  8
Layer_1
 62
7
100
AcDbLine
 10
1.922508
 20
11.570290
 30
0.0
 11
1.921358
 21
12.591340
 31
0.0
  0
LINE
  5
128
100
AcDbEntity
  8
Layer_1
 62
7
100
AcDbLine
 10
1.921358
 20
12.591340
 30
0.0
 11
1.920208
 21
13.612390
 31
0.0
  0
LINE
  5
129
100
AcDbEntity
  8
Layer_1
 62
7
100
AcDbLine
 10
1.920208
 20
13.612390
 30
0.0
 11
1.919058
 21
14.633450
 31
0.0
  0
LINE
  5
12a
100
AcDbEntity
  8
Layer_1
 62
7
100
AcDbLine
 10
1.919058
 20
14.633450
 30
0.0
 11
1.917908
 21
15.654500
 31
0.0
  0
LINE
  5
12b
100
AcDbEntity
  8
Layer_1
 62
7
100
AcDbLine
 10
1.917908
 20
15.654500
 30
0.0
 11
1.916758
 21
16.675560
 31
0.0
  0
LINE
  5
12c
100
AcDbEntity
  8
Layer_1
 62
7
100
AcDbLine
 10
1.916758
 20
16.675560
 30
0.0
 11
1.915608
 21
17.696610
 31
0.0
  0
LINE
  5
12d
100
AcDbEntity
  8
Layer_1
 62
7
100
AcDbLine
 10
1.915608
 20
17.696610
 30
0.0
 11
1.914458
 21
18.717660
 31
0.0
  0
LINE
  5
12e
100
AcDbEntity
  8
Layer_1
 62
7
100
AcDbLine
 10
1.914458
 20
18.717660
 30
0.0
 11
1.913308
 21
19.738720
 31
0.0
  0
LINE
  5
12f
100
AcDbEntity
  8
Layer_1
 62
7
100
AcDbLine
 10
1.913308
 20
19.738720
 30
0.0
 11
1.912158
 21
20.759770
 31
0.0
  0
LINE
  5
130
100
AcDbEntity
  8
Layer_1
 62
7
100
AcDbLine
 10
1.912158
 20
20.759770
 30
0.0
 11
1.908348
 21
23.937740
 31
0.0
  0
LINE
  5
131
100
AcDbEntity
  8
Layer_1
 62
7
100
AcDbLine
 10
1.908348
 20
23.937740
 30
0.0
 11
1.905078
 21
26.693470
 31
0.0
  0
LINE
  5
132
100
AcDbEntity
  8
Layer_1
 62
7
100
AcDbLine
 10
1.905078
 20
26.693470
 30
0.0
 11
1.903098
 21
29.058560
 31
0.0
  0
LINE
  5
133
100
AcDbEntity
  8
Layer_1
 62
7
100
AcDbLine
 10
1.903098
 20
29.058560
 30
0.0
 11
1.903142
 21
31.064610
 31
0.0
  0
LINE
  5
134
100
AcDbEntity
  8
Layer_1
 62
7
100
AcDbLine
 10
1.903142
 20
31.064610
 30
0.0
 11
1.905952
 21
32.743210
 31
0.0
  0
LINE
  5
135
100
AcDbEntity
  8
Layer_1
 62
7
100
AcDbLine
 10
1.905952
 20
32.743210
 30
0.0
 11
1.912272
 21
34.125960
 31
0.0
  0
LINE
  5
136
100
AcDbEntity
  8
Layer_1
 62
7
100
AcDbLine
 10
1.912272
 20
34.125960
 30
0.0
 11
1.922839
 21
35.244470
 31
0.0
  0
LINE
  5
137
100
AcDbEntity
  8
Layer_1
 62
7
100
AcDbLine
 10
1.922839
 20
35.244470
 30
0.0
 11
1.938396
 21
36.130320
 31
0.0
  0
LINE
  5
138
100
AcDbEntity
  8
Layer_1
 62
7
100
AcDbLine
 10
1.938396
 20
36.130320
 30
0.0
 11
1.959685
 21
36.815110
 31
0.0
  0
LINE
  5
139
100
AcDbEntity
  8
Layer_1
 62
7
100
AcDbLine
 10
1.959685
 20
36.815110
 30
0.0
 11
1.987447
 21
37.330450
 31
0.0
  0
LINE
  5
13a
100
AcDbEntity
  8
Layer_1
 62
7
100
AcDbLine
 10
1.987447
 20
37.330450
 30
0.0
 11
2.022423
 21
37.707940
 31
0.0
  0
LINE
  5
13b
100
AcDbEntity
  8
Layer_1
 62
7
100
AcDbLine
 10
2.022423
 20
37.707940
 30
0.0
 11
2.065355
 21
37.979160
 31
0.0
  0
LINE
  5
13c
100
AcDbEntity
  8
Layer_1
 62
7
100
AcDbLine
 10
2.065355
 20
37.979160
 30
0.0
 11
2.116983
 21
38.175720
 31
0.0
  0
LINE
  5
13d
100
AcDbEntity
  8
Layer_1
 62
7
100
AcDbLine
 10
2.116983
 20
38.175720
 30
0.0
 11
2.178049
 21
38.329220
 31
0.0
  0
LINE
  5
13e
100
AcDbEntity
  8
Layer_1
 62
7
100
AcDbLine
 10
2.178049
 20
38.329220
 30
0.0
 11
2.249295
 21
38.471260
 31
0.0
  0
LINE
  5
13f
100
AcDbEntity
  8
Layer_1
 62
7
100
AcDbLine
 10
2.249295
 20
38.471260
 30
0.0
 11
2.331461
 21
38.633420
 31
0.0
  0
LINE
  5
140
100
AcDbEntity
  8
Layer_1
 62
7
100
AcDbLine
 10
2.331461
 20
38.633420
 30
0.0
 11
2.395027
 21
38.759920
 31
0.0
  0
LINE
  5
141
100
AcDbEntity
  8
Layer_1
 62
7
100
AcDbLine
 10
2.395027
 20
38.759920
 30
0.0
 11
2.461891
 21
38.881870
 31
0.0
  0
LINE
  5
142
100
AcDbEntity
  8
Layer_1
 62
7
100
AcDbLine
 10
2.461891
 20
38.881870
 30
0.0
 11
2.532065
 21
38.999270
 31
0.0
  0
LINE
  5
143
100
AcDbEntity
  8
Layer_1
 62
7
100
AcDbLine
 10
2.532065
 20
38.999270
 30
0.0
 11
2.605563
 21
39.112140
 31
0.0
  0
LINE
  5
144
100
AcDbEntity
  8
Layer_1
 62
7
100
AcDbLine
 10
2.605563
 20
39.112140
 30
0.0
 11
2.682398
 21
39.220500
 31
0.0
  0
LINE
  5
145
100
AcDbEntity
  8
Layer_1
 62
7
100
AcDbLine
 10
2.682398
 20
39.220500
 30
0.0
 11
2.762584
 21
39.324350
 31
0.0
  0
LINE
  5
146
100
AcDbEntity
  8
Layer_1
 62
7
100
AcDbLine
 10
2.762584
 20
39.324350
 30
0.0
 11
2.846133
 21
39.423750
 31
0.0
  0
LINE
  5
147
100
AcDbEntity
  8
Layer_1
 62
7
100
AcDbLine
 10
2.846133
 20
39.423750
 30
0.0
 11
2.933058
 21
39.518650
 31
0.0
  0
LINE
  5
148
100
AcDbEntity
  8
Layer_1
 62
7
100
AcDbLine
 10
2.933058
 20
39.518650
 30
0.0
 11
3.023373
 21
39.609050
 31
0.0
  0
LINE
  5
149
100
AcDbEntity
  8
Layer_1
 62
7
100
AcDbLine
 10
3.023373
 20
39.609050
 30
0.0
 11
3.117091
 21
39.695050
 31
0.0
  0
LINE
  5
14a
100
AcDbEntity
  8
Layer_1
 62
7
100
AcDbLine
 10
3.117091
 20
39.695050
 30
0.0
 11
3.214225
 21
39.776650
 31
0.0
  0
LINE
  5
14b
100
AcDbEntity
  8
Layer_1
 62
7
100
AcDbLine
 10
3.214225
 20
39.776650
 30
0.0
 11
3.314788
 21
39.853750
 31
0.0
  0
LINE
  5
14c
100
AcDbEntity
  8
Layer_1
 62
7
100
AcDbLine
 10
3.314788
 20
39.853750
 30
0.0
 11
3.418794
 21
39.926450
 31
0.0
  0
LINE
  5
14d
100
AcDbEntity
  8
Layer_1
 62
7
100
AcDbLine
 10
3.418794
 20
39.926450
 30
0.0
 11
3.526255
 21
39.994750
 31
0.0
  0
LINE
  5
14e
100
AcDbEntity
  8
Layer_1
 62
7
100
AcDbLine
 10
3.526255
 20
39.994750
 30
0.0
 11
3.637185
 21
40.058650
 31
0.0
  0
LINE
  5
14f
100
AcDbEntity
  8
Layer_1
 62
7
100
AcDbLine
 10
3.637185
 20
40.058650
 30
0.0
 11
3.751596
 21
40.118250
 31
0.0
  0
LINE
  5
150
100
AcDbEntity
  8
Layer_1
 62
7
100
AcDbLine
 10
3.751596
 20
40.118250
 30
0.0
 11
3.783509
 21
40.134050
 31
0.0
  0
LINE
  5
151
100
AcDbEntity
  8
Layer_1
 62
7
100
AcDbLine
 10
3.783509
 20
40.134050
 30
0.0
 11
3.815422
 21
40.149850
 31
0.0
  0
LINE
  5
152
100
AcDbEntity
  8
Layer_1
 62
7
100
AcDbLine
 10
3.815422
 20
40.149850
 30
0.0
 11
3.847335
 21
40.165650
 31
0.0
  0
LINE
  5
153
100
AcDbEntity
  8
Layer_1
 62
7
100
AcDbLine
 10
3.847335
 20
40.165650
 30
0.0
 11
3.879248
 21
40.181450
 31
0.0
  0
LINE
  5
154
100
AcDbEntity
  8
Layer_1
 62
7
100
AcDbLine
 10
3.879248
 20
40.181450
 30
0.0
 11
3.911161
 21
40.197250
 31
0.0
  0
LINE
  5
155
100
AcDbEntity
  8
Layer_1
 62
7
100
AcDbLine
 10
3.911161
 20
40.197250
 30
0.0
 11
3.943074
 21
40.213050
 31
0.0
  0
LINE
  5
156
100
AcDbEntity
  8
Layer_1
 62
7
100
AcDbLine
 10
3.943074
 20
40.213050
 30
0.0
 11
3.974987
 21
40.228850
 31
0.0
  0
LINE
  5
157
100
AcDbEntity
  8
Layer_1
 62
7
100
AcDbLine
 10
3.974987
 20
40.228850
 30
0.0
 11
4.006900
 21
40.244650
 31
0.0
  0
LINE
  5
158
100
AcDbEntity
  8
Layer_1
 62
7
100
AcDbLine
 10
4.006900
 20
40.244650
 30
0.0
 11
4.038813
 21
40.260450
 31
0.0
  0
LINE
  5
159
100
AcDbEntity
  8
Layer_1
 62
7
100
AcDbLine
 10
4.038813
 20
40.260450
 30
0.0
 11
4.070726
 21
40.276250
 31
0.0
  0
LINE
  5
15a
100
AcDbEntity
  8
Layer_1
 62
7
100
AcDbLine
 10
4.070726
 20
40.276250
 30
0.0
 11
4.102639
 21
40.292050
 31
0.0
  0
LINE
  5
15b
100
AcDbEntity
  8
Layer_1
 62
7
100
AcDbLine
 10
4.102639
 20
40.292050
 30
0.0
 11
4.134552
 21
40.307850
 31
0.0
  0
LINE
  5
15c
100
AcDbEntity
  8
Layer_1
 62
7
100
AcDbLine
 10
4.134552
 20
40.307850
 30
0.0
 11
4.166465
 21
40.323650
 31
0.0
  0
LINE
  5
15d
100
AcDbEntity
  8
Layer_1
 62
7
100
AcDbLine
 10
4.166465
 20
40.323650
 30
0.0
 11
4.198378
 21
40.339450
 31
0.0
  0
LINE
  5
15e
100
AcDbEntity
  8
Layer_1
 62
7
100
AcDbLine
 10
4.198378
 20
40.339450
 30
0.0
 11
4.230291
 21
40.355250
 31
0.0
  0
LINE
  5
15f
100
AcDbEntity
  8
Layer_1
 62
7
100
AcDbLine
 10
4.230291
 20
40.355250
 30
0.0
 11
4.262204
 21
40.371050
 31
0.0
  0
LINE
  5
160
100
AcDbEntity
  8
Layer_1
 62
7
100
AcDbLine
 10
4.262204
 20
40.371050
 30
0.0
 11
4.861473
 21
40.372050
 31
0.0
  0
LINE
  5
161
100
AcDbEntity
  8
Layer_1
 62
7
100
AcDbLine
 10
4.861473
 20
40.372050
 30
0.0
 11
5.460742
 21
40.373050
 31
0.0
  0
LINE
  5
162
100
AcDbEntity
  8
Layer_1
 62
7
100
AcDbLine
 10
5.460742
 20
40.373050
 30
0.0
 11
6.060011
 21
40.374050
 31
0.0
  0
LINE
  5
163
100
AcDbEntity
  8
Layer_1
 62
7
100
AcDbLine
 10
6.060011
 20
40.374050
 30
0.0
 11
6.659280
 21
40.375050
 31
0.0
  0
LINE
  5
164
100
AcDbEntity
  8
Layer_1
 62
7
100
AcDbLine
 10
6.659280
 20
40.375050
 30
0.0
 11
7.258549
 21
40.376050
 31
0.0
  0
LINE
  5
165
100
AcDbEntity
  8
Layer_1
 62
7
100
AcDbLine
 10
7.258549
 20
40.376050
 30
0.0
 11
7.857818
 21
40.377050
 31
0.0
  0
LINE
  5
166
100
AcDbEntity
  8
Layer_1
 62
7
100
AcDbLine
 10
7.857818
 20
40.377050
 30
0.0
 11
8.457087
 21
40.378050
 31
0.0
  0
LINE
  5
167
100
AcDbEntity
  8
Layer_1
 62
7
100
AcDbLine
 10
8.457087
 20
40.378050
 30
0.0
 11
9.056356
 21
40.379050
 31
0.0
  0
LINE
  5
168
100
AcDbEntity
  8
Layer_1
 62
7
100
AcDbLine
 10
9.056356
 20
40.379050
 30
0.0
 11
9.655625
 21
40.380050
 31
0.0
  0
LINE
  5
169
100
AcDbEntity
  8
Layer_1
 62
7
100
AcDbLine
 10
9.655625
 20
40.380050
 30
0.0
 11
10.254894
 21
40.381050
 31
0.0
  0
LINE
  5
16a
100
AcDbEntity
  8
Layer_1
 62
7
100
AcDbLine
 10
10.254894
 20
40.381050
 30
0.0
 11
10.854163
 21
40.382050
 31
0.0
  0
LINE
  5
16b
100
AcDbEntity
  8
Layer_1
 62
7
100
AcDbLine
 10
10.854163
 20
40.382050
 30
0.0
 11
11.453432
 21
40.383050
 31
0.0
  0
LINE
  5
16c
100
AcDbEntity
  8
Layer_1
 62
7
100
AcDbLine
 10
11.453432
 20
40.383050
 30
0.0
 11
12.052701
 21
40.384050
 31
0.0
  0
LINE
  5
16d
100
AcDbEntity
  8
Layer_1
 62
7
100
AcDbLine
 10
12.052701
 20
40.384050
 30
0.0
 11
12.651970
 21
40.385050
 31
0.0
  0
LINE
  5
16e
100
AcDbEntity
  8
Layer_1
 62
7
100
AcDbLine
 10
12.651970
 20
40.385050
 30
0.0
 11
13.251239
 21
40.386050
 31
0.0
  0
LINE
  5
16f
100
AcDbEntity
  8
Layer_1
 62
7
100
AcDbLine
 10
13.251239
 20
40.386050
 30
0.0
 11
13.850508
 21
40.387050
 31
0.0
  0
LINE
  5
170
100
AcDbEntity
  8
Layer_1
 62
7
100
AcDbLine
 10
13.850508
 20
40.387050
 30
0.0
 11
15.377653
 21
40.390050
 31
0.0
  0
LINE
  5
171
100
AcDbEntity
  8
Layer_1
 62
7
100
AcDbLine
 10
15.377653
 20
40.390050
 30
0.0
 11
16.736921
 21
40.392050
 31
0.0
  0
LINE
  5
172
100
AcDbEntity
  8
Layer_1
 62
7
100
AcDbLine
 10
16.736921
 20
40.392050
 30
0.0
 11
17.938437
 21
40.393050
 31
0.0
  0
LINE
  5
173
100
AcDbEntity
  8
Layer_1
 62
7
100
AcDbLine
 10
17.938437
 20
40.393050
 30
0.0
 11
18.992328
 21
40.393430
 31
0.0
  0
LINE
  5
174
100
AcDbEntity
  8
Layer_1
 62
7
100
AcDbLine
 10
18.992328
 20
40.393430
 30
0.0
 11
19.908718
 21
40.392870
 31
0.0
  0
LINE
  5
175
100
AcDbEntity
  8
Layer_1
 62
7
100
AcDbLine
 10
19.908718
 20
40.392870
 30
0.0
 11
20.697732
 21
40.390870
 31
0.0
  0
LINE
  5
176
100
AcDbEntity
  8
Layer_1
 62
7
100
AcDbLine
 10
20.697732
 20
40.390870
 30
0.0
 11
21.369496
 21
40.387870
 31
0.0
  0
LINE
  5
177
100
AcDbEntity
  8
Layer_1
 62
7
100
AcDbLine
 10
21.369496
 20
40.387870
 30
0.0
 11
21.934136
 21
40.383870
 31
0.0
  0
LINE
  5
178
100
AcDbEntity
  8
Layer_1
 62
7
100
AcDbLine
 10
21.934136
 20
40.383870
 30
0.0
 11
22.401775
 21
40.378870
 31
0.0
  0
LINE
  5
179
100
AcDbEntity
  8
Layer_1
 62
7
100
AcDbLine
 10
22.401775
 20
40.378870
 30
0.0
 11
22.782540
 21
40.371870
 31
0.0
  0
LINE
  5
17a
100
AcDbEntity
  8
Layer_1
 62
7
100
AcDbLine
 10
22.782540
 20
40.371870
 30
0.0
 11
23.086556
 21
40.363870
 31
0.0
  0
LINE
  5
17b
100
AcDbEntity
  8
Layer_1
 62
7
100
AcDbLine
 10
23.086556
 20
40.363870
 30
0.0
 11
23.323949
 21
40.353870
 31
0.0
  0
LINE
  5
17c
100
AcDbEntity
  8
Layer_1
 62
7
100
AcDbLine
 10
23.323949
 20
40.353870
 30
0.0
 11
23.504843
 21
40.342470
 31
0.0
  0
LINE
  5
17d
100
AcDbEntity
  8
Layer_1
 62
7
100
AcDbLine
 10
23.504843
 20
40.342470
 30
0.0
 11
23.639363
 21
40.329270
 31
0.0
  0
LINE
  5
17e
100
AcDbEntity
  8
Layer_1
 62
7
100
AcDbLine
 10
23.639363
 20
40.329270
 30
0.0
 11
23.737633
 21
40.314270
 31
0.0
  0
LINE
  5
17f
100
AcDbEntity
  8
Layer_1
 62
7
100
AcDbLine
 10
23.737633
 20
40.314270
 30
0.0
 11
23.809783
 21
40.297270
 31
0.0
  0
LINE
  5
180
100
AcDbEntity
  8
Layer_1
 62
7
100
AcDbLine
 10
23.809783
 20
40.297270
 30
0.0
 11
23.999211
 21
40.234770
 31
0.0
  0
LINE
  5
181
100
AcDbEntity
  8
Layer_1
 62
7
100
AcDbLine
 10
23.999211
 20
40.234770
 30
0.0
 11
24.182940
 21
40.157970
 31
0.0
  0
LINE
  5
182
100
AcDbEntity
  8
Layer_1
 62
7
100
AcDbLine
 10
24.182940
 20
40.157970
 30
0.0
 11
24.360612
 21
40.067270
 31
0.0
  0
LINE
  5
183
100
AcDbEntity
  8
Layer_1
 62
7
100
AcDbLine
 10
24.360612
 20
40.067270
 30
0.0
 11
24.531869
 21
39.963070
 31
0.0
  0
LINE
  5
184
100
AcDbEntity
  8
Layer_1
 62
7
100
AcDbLine
 10
24.531869
 20
39.963070
 30
0.0
 11
24.696351
 21
39.845790
 31
0.0
  0
LINE
  5
185
100
AcDbEntity
  8
Layer_1
 62
7
100
AcDbLine
 10
24.696351
 20
39.845790
 30
0.0
 11
24.853701
 21
39.715860
 31
0.0
  0
LINE
  5
186
100
AcDbEntity
  8
Layer_1
 62
7
100
AcDbLine
 10
24.853701
 20
39.715860
 30
0.0
 11
25.003559
 21
39.573690
 31
0.0
  0
LINE
  5
187
100
AcDbEntity
  8
Layer_1
 62
7
100
AcDbLine
 10
25.003559
 20
39.573690
 30
0.0
 11
25.145566
 21
39.419690
 31
0.0
  0
LINE
  5
188
100
AcDbEntity
  8
Layer_1
 62
7
100
AcDbLine
 10
25.145566
 20
39.419690
 30
0.0
 11
25.279365
 21
39.254280
 31
0.0
  0
LINE
  5
189
100
AcDbEntity
  8
Layer_1
 62
7
100
AcDbLine
 10
25.279365
 20
39.254280
 30
0.0
 11
25.404596
 21
39.077870
 31
0.0
  0
LINE
  5
18a
100
AcDbEntity
  8
Layer_1
 62
7
100
AcDbLine
 10
25.404596
 20
39.077870
 30
0.0
 11
25.520900
 21
38.890880
 31
0.0
  0
LINE
  5
18b
100
AcDbEntity
  8
Layer_1
 62
7
100
AcDbLine
 10
25.520900
 20
38.890880
 30
0.0
 11
25.627919
 21
38.693730
 31
0.0
  0
LINE
  5
18c
100
AcDbEntity
  8
Layer_1
 62
7
100
AcDbLine
 10
25.627919
 20
38.693730
 30
0.0
 11
25.725289
 21
38.486830
 31
0.0
  0
LINE
  5
18d
100
AcDbEntity
  8
Layer_1
 62
7
100
AcDbLine
 10
25.725289
 20
38.486830
 30
0.0
 11
25.812659
 21
38.270590
 31
0.0
  0
LINE
  5
18e
100
AcDbEntity
  8
Layer_1
 62
7
100
AcDbLine
 10
25.812659
 20
38.270590
 30
0.0
 11
25.889669
 21
38.045440
 31
0.0
  0
LINE
  5
18f
100
AcDbEntity
  8
Layer_1
 62
7
100
AcDbLine
 10
25.889669
 20
38.045440
 30
0.0
 11
25.955959
 21
37.811780
 31
0.0
  0
LINE
  5
190
100
AcDbEntity
  8
Layer_1
 62
7
100
AcDbLine
 10
25.955959
 20
37.811780
 30
0.0
 11
25.978149
 21
37.716580
 31
0.0
  0
LINE
  5
191
100
AcDbEntity
  8
Layer_1
 62
7
100
AcDbLine
 10
25.978149
 20
37.716580
 30
0.0
 11
25.997639
 21
37.600170
 31
0.0
  0
LINE
  5
192
100
AcDbEntity
  8
Layer_1
 62
7
100
AcDbLine
 10
25.997639
 20
37.600170
 30
0.0
 11
26.014599
 21
37.439820
 31
0.0
  0
LINE
  5
193
100
AcDbEntity
  8
Layer_1
 62
7
100
AcDbLine
 10
26.014599
 20
37.439820
 30
0.0
 11
26.029219
 21
37.212740
 31
0.0
  0
LINE
  5
194
100
AcDbEntity
  8
Layer_1
 62
7
100
AcDbLine
 10
26.029219
 20
37.212740
 30
0.0
 11
26.041659
 21
36.896150
 31
0.0
  0
LINE
  5
195
100
AcDbEntity
  8
Layer_1
 62
7
100
AcDbLine
 10
26.041659
 20
36.896150
 30
0.0
 11
26.052099
 21
36.467280
 31
0.0
  0
LINE
  5
196
100
AcDbEntity
  8
Layer_1
 62
7
100
AcDbLine
 10
26.052099
 20
36.467280
 30
0.0
 11
26.060699
 21
35.903350
 31
0.0
  0
LINE
  5
197
100
AcDbEntity
  8
Layer_1
 62
7
100
AcDbLine
 10
26.060699
 20
35.903350
 30
0.0
 11
26.067699
 21
35.181580
 31
0.0
  0
LINE
  5
198
100
AcDbEntity
  8
Layer_1
 62
7
100
AcDbLine
 10
26.067699
 20
35.181580
 30
0.0
 11
26.073199
 21
34.279190
 31
0.0
  0
LINE
  5
199
100
AcDbEntity
  8
Layer_1
 62
7
100
AcDbLine
 10
26.073199
 20
34.279190
 30
0.0
 11
26.077399
 21
33.173400
 31
0.0
  0
LINE
  5
19a
100
AcDbEntity
  8
Layer_1
 62
7
100
AcDbLine
 10
26.077399
 20
33.173400
 30
0.0
 11
26.080499
 21
31.841430
 31
0.0
  0
LINE
  5
19b
100
AcDbEntity
  8
Layer_1
 62
7
100
AcDbLine
 10
26.080499
 20
31.841430
 30
0.0
 11
26.082599
 21
30.260500
 31
0.0
  0
LINE
  5
19c
100
AcDbEntity
  8
Layer_1
 62
7
100
AcDbLine
 10
26.082599
 20
30.260500
 30
0.0
 11
26.083899
 21
28.407840
 31
0.0
  0
LINE
  5
19d
100
AcDbEntity
  8
Layer_1
 62
7
100
AcDbLine
 10
26.083899
 20
28.407840
 30
0.0
 11
26.084643
 21
26.260660
 31
0.0
  0
LINE
  5
19e
100
AcDbEntity
  8
Layer_1
 62
7
100
AcDbLine
 10
26.084643
 20
26.260660
 30
0.0
 11
26.084961
 21
23.796190
 31
0.0
  0
LINE
  5
19f
100
AcDbEntity
  8
Layer_1
 62
7
100
AcDbLine
 10
26.084961
 20
23.796190
 30
0.0
 11
26.085028
 21
20.991650
 31
0.0
  0
LINE
  5
1a0
100
AcDbEntity
  8
Layer_1
 62
7
100
AcDbLine
 10
26.085028
 20
20.991650
 30
0.0
 11
26.084971
 21
18.166670
 31
0.0
  0
LINE
  5
1a1
100
AcDbEntity
  8
Layer_1
 62
7
100
AcDbLine
 10
26.084971
 20
18.166670
 30
0.0
 11
26.084676
 21
15.687090
 31
0.0
  0
LINE
  5
1a2
100
AcDbEntity
  8
Layer_1
 62
7
100
AcDbLine
 10
26.084676
 20
15.687090
 30
0.0
 11
26.083961
 21
13.529560
 31
0.0
  0
LINE
  5
1a3
100
AcDbEntity
  8
Layer_1
 62
7
100
AcDbLine
 10
26.083961
 20
13.529560
 30
0.0
 11
26.082661
 21
11.670710
 31
0.0
  0
LINE
  5
1a4
100
AcDbEntity
  8
Layer_1
 62
7
100
AcDbLine
 10
26.082661
 20
11.670710
 30
0.0
 11
26.080561
 21
10.087200
 31
0.0
  0
LINE
  5
1a5
100
AcDbEntity
  8
Layer_1
 62
7
100
AcDbLine
 10
26.080561
 20
10.087200
 30
0.0
 11
26.077461
 21
8.755660
 31
0.0
  0
LINE
  5
1a6
100
AcDbEntity
  8
Layer_1
 62
7
100
AcDbLine
 10
26.077461
 20
8.755660
 30
0.0
 11
26.073261
 21
7.652740
 31
0.0
  0
LINE
  5
1a7
100
AcDbEntity
  8
Layer_1
 62
7
100
AcDbLine
 10
26.073261
 20
7.652740
 30
0.0
 11
26.067661
 21
6.755070
 31
0.0
  0
LINE
  5
1a8
100
AcDbEntity
  8
Layer_1
 62
7
100
AcDbLine
 10
26.067661
 20
6.755070
 30
0.0
 11
26.060561
 21
6.039300
 31
0.0
  0
LINE
  5
1a9
100
AcDbEntity
  8
Layer_1
 62
7
100
AcDbLine
 10
26.060561
 20
6.039300
 30
0.0
 11
26.051761
 21
5.482080
 31
0.0
  0
LINE
  5
1aa
100
AcDbEntity
  8
Layer_1
 62
7
100
AcDbLine
 10
26.051761
 20
5.482080
 30
0.0
 11
26.041091
 21
5.060040
 31
0.0
  0
LINE
  5
1ab
100
AcDbEntity
  8
Layer_1
 62
7
100
AcDbLine
 10
26.041091
 20
5.060040
 30
0.0
 11
26.028341
 21
4.749820
 31
0.0
  0
LINE
  5
1ac
100
AcDbEntity
  8
Layer_1
 62
7
100
AcDbLine
 10
26.028341
 20
4.749820
 30
0.0
 11
26.013341
 21
4.528080
 31
0.0
  0
LINE
  5
1ad
100
AcDbEntity
  8
Layer_1
 62
7
100
AcDbLine
 10
26.013341
 20
4.528080
 30
0.0
 11
25.995911
 21
4.371440
 31
0.0
  0
LINE
  5
1ae
100
AcDbEntity
  8
Layer_1
 62
7
100
AcDbLine
 10
25.995911
 20
4.371440
 30
0.0
 11
25.975861
 21
4.256560
 31
0.0
  0
LINE
  5
1af
100
AcDbEntity
  8
Layer_1
 62
7
100
AcDbLine
 10
25.975861
 20
4.256560
 30
0.0
 11
25.953001
 21
4.160060
 31
0.0
  0
LINE
  5
1b0
100
AcDbEntity
  8
Layer_1
 62
7
100
AcDbLine
 10
25.953001
 20
4.160060
 30
0.0
 11
25.897551
 21
3.961320
 31
0.0
  0
LINE
  5
1b1
100
AcDbEntity
  8
Layer_1
 62
7
100
AcDbLine
 10
25.897551
 20
3.961320
 30
0.0
 11
25.834641
 21
3.769310
 31
0.0
  0
LINE
  5
1b2
100
AcDbEntity
  8
Layer_1
 62
7
100
AcDbLine
 10
25.834641
 20
3.769310
 30
0.0
 11
25.764371
 21
3.584180
 31
0.0
  0
LINE
  5
1b3
100
AcDbEntity
  8
Layer_1
 62
7
100
AcDbLine
 10
25.764371
 20
3.584180
 30
0.0
 11
25.686841
 21
3.406060
 31
0.0
  0
LINE
  5
1b4
100
AcDbEntity
  8
Layer_1
 62
7
100
AcDbLine
 10
25.686841
 20
3.406060
 30
0.0
 11
25.602161
 21
3.235090
 31
0.0
  0
LINE
  5
1b5
100
AcDbEntity
  8
Layer_1
 62
7
100
AcDbLine
 10
25.602161
 20
3.235090
 30
0.0
 11
25.510431
 21
3.071400
 31
0.0
  0
LINE
  5
1b6
100
AcDbEntity
  8
Layer_1
 62
7
100
AcDbLine
 10
25.510431
 20
3.071400
 30
0.0
 11
25.411751
 21
2.915150
 31
0.0
  0
LINE
  5
1b7
100
AcDbEntity
  8
Layer_1
 62
7
100
AcDbLine
 10
25.411751
 20
2.915150
 30
0.0
 11
25.306228
 21
2.766450
 31
0.0
  0
LINE
  5
1b8
100
AcDbEntity
  8
Layer_1
 62
7
100
AcDbLine
 10
25.306228
 20
2.766450
 30
0.0
 11
25.193966
 21
2.625460
 31
0.0
  0
LINE
  5
1b9
100
AcDbEntity
  8
Layer_1
 62
7
100
AcDbLine
 10
25.193966
 20
2.625460
 30
0.0
 11
25.075069
 21
2.492310
 31
0.0
  0
LINE
  5
1ba
100
AcDbEntity
  8
Layer_1
 62
7
100
AcDbLine
 10
25.075069
 20
2.492310
 30
0.0
 11
24.949641
 21
2.367140
 31
0.0
  0
LINE
  5
1bb
100
AcDbEntity
  8
Layer_1
 62
7
100
AcDbLine
 10
24.949641
 20
2.367140
 30
0.0
 11
24.817786
 21
2.250080
 31
0.0
  0
LINE
  5
1bc
100
AcDbEntity
  8
Layer_1
 62
7
100
AcDbLine
 10
24.817786
 20
2.250080
 30
0.0
 11
24.679608
 21
2.141280
 31
0.0
  0
LINE
  5
1bd
100
AcDbEntity
  8
Layer_1
 62
7
100
AcDbLine
 10
24.679608
 20
2.141280
 30
0.0
 11
24.535211
 21
2.040870
 31
0.0
  0
LINE
  5
1be
100
AcDbEntity
  8
Layer_1
 62
7
100
AcDbLine
 10
24.535211
 20
2.040870
 30
0.0
 11
24.384699
 21
1.948970
 31
0.0
  0
LINE
  5
1bf
100
AcDbEntity
  8
Layer_1
 62
7
100
AcDbLine
 10
24.384699
 20
1.948970
 30
0.0
 11
24.228174
 21
1.865770
 31
0.0
  0
LINE
  5
1c0
100
AcDbEntity
  8
Layer_1
 62
7
100
AcDbLine
 10
24.228174
 20
1.865770
 30
0.0
 11
24.196414
 21
1.850070
 31
0.0
  0
LINE
  5
1c1
100
AcDbEntity
  8
Layer_1
 62
7
100
AcDbLine
 10
24.196414
 20
1.850070
 30
0.0
 11
24.164654
 21
1.834370
 31
0.0
  0
LINE
  5
1c2
100
AcDbEntity
  8
Layer_1
 62
7
100
AcDbLine
 10
24.164654
 20
1.834370
 30
0.0
 11
24.132894
 21
1.818670
 31
0.0
  0
LINE
  5
1c3
100
AcDbEntity
  8
Layer_1
 62
7
100
AcDbLine
 10
24.132894
 20
1.818670
 30
0.0
 11
24.101134
 21
1.802970
 31
0.0
  0
LINE
  5
1c4
100
AcDbEntity
  8
Layer_1
 62
7
100
AcDbLine
 10
24.101134
 20
1.802970
 30
0.0
 11
24.069374
 21
1.787270
 31
0.0
  0
LINE
  5
1c5
100
AcDbEntity
  8
Layer_1
 62
7
100
AcDbLine
 10
24.069374
 20
1.787270
 30
0.0
 11
24.037614
 21
1.771570
 31
0.0
  0
LINE
  5
1c6
100
AcDbEntity
  8
Layer_1
 62
7
100
AcDbLine
 10
24.037614
 20
1.771570
 30
0.0
 11
24.005854
 21
1.755870
 31
0.0
  0
LINE
  5
1c7
100
AcDbEntity
  8
Layer_1
 62
7
100
AcDbLine
 10
24.005854
 20
1.755870
 30
0.0
 11
23.974094
 21
1.740170
 31
0.0
  0
LINE
  5
1c8
100
AcDbEntity
  8
Layer_1
 62
7
100
AcDbLine
 10
23.974094
 20
1.740170
 30
0.0
 11
23.942334
 21
1.724470
 31
0.0
  0
LINE
  5
1c9
100
AcDbEntity
  8
Layer_1
 62
7
100
AcDbLine
 10
23.942334
 20
1.724470
 30
0.0
 11
23.910574
 21
1.708770
 31
0.0
  0
LINE
  5
1ca
100
AcDbEntity
  8
Layer_1
 62
7
100
AcDbLine
 10
23.910574
 20
1.708770
 30
0.0
 11
23.878814
 21
1.693070
 31
0.0
  0
LINE
  5
1cb
100
AcDbEntity
  8
Layer_1
 62
7
100
AcDbLine
 10
23.878814
 20
1.693070
 30
0.0
 11
23.847054
 21
1.677370
 31
0.0
  0
LINE
  5
1cc
100
AcDbEntity
  8
Layer_1
 62
7
100
AcDbLine
 10
23.847054
 20
1.677370
 30
0.0
 11
23.815294
 21
1.661670
 31
0.0
  0
LINE
  5
1cd
100
AcDbEntity
  8
Layer_1
 62
7
100
AcDbLine
 10
23.815294
 20
1.661670
 30
0.0
 11
23.783534
 21
1.645970
 31
0.0
  0
LINE
  5
1ce
100
AcDbEntity
  8
Layer_1
 62
7
100
AcDbLine
 10
23.783534
 20
1.645970
 30
0.0
 11
23.751774
 21
1.630270
 31
0.0
  0
LINE
  5
1cf
100
AcDbEntity
  8
Layer_1
 62
7
100
AcDbLine
 10
23.751774
 20
1.630270
 30
0.0
 11
23.720014
 21
1.614570
 31
0.0
  0
LINE
  5
1d0
100
AcDbEntity
  8
Layer_1
 62
7
100
AcDbLine
 10
23.720014
 20
1.614570
 30
0.0
 11
23.122616
 21
1.613840
 31
0.0
  0
LINE
  5
1d1
100
AcDbEntity
  8
Layer_1
 62
7
100
AcDbLine
 10
23.122616
 20
1.613840
 30
0.0
 11
22.525217
 21
1.613120
 31
0.0
  0
LINE
  5
1d2
100
AcDbEntity
  8
Layer_1
 62
7
100
AcDbLine
 10
22.525217
 20
1.613120
 30
0.0
 11
21.927819
 21
1.612390
 31
0.0
  0
LINE
  5
1d3
100
AcDbEntity
  8
Layer_1
 62
7
100
AcDbLine
 10
21.927819
 20
1.612390
 30
0.0
 11
21.330420
 21
1.611670
 31
0.0
  0
LINE
  5
1d4
100
AcDbEntity
  8
Layer_1
 62
7
100
AcDbLine
 10
21.330420
 20
1.611670
 30
0.0
 11
20.733022
 21
1.610940
 31
0.0
  0
LINE
  5
1d5
100
AcDbEntity
  8
Layer_1
 62
7
100
AcDbLine
 10
20.733022
 20
1.610940
 30
0.0
 11
20.135623
 21
1.610220
 31
0.0
  0
LINE
  5
1d6
100
AcDbEntity
  8
Layer_1
 62
7
100
AcDbLine
 10
20.135623
 20
1.610220
 30
0.0
 11
19.538224
 21
1.609490
 31
0.0
  0
LINE
  5
1d7
100
AcDbEntity
  8
Layer_1
 62
7
100
AcDbLine
 10
19.538224
 20
1.609490
 30
0.0
 11
18.940826
 21
1.608770
 31
0.0
  0
LINE
  5
1d8
100
AcDbEntity
  8
Layer_1
 62
7
100
AcDbLine
 10
18.940826
 20
1.608770
 30
0.0
 11
18.343427
 21
1.608040
 31
0.0
  0
LINE
  5
1d9
100
AcDbEntity
  8
Layer_1
 62
7
100
AcDbLine
 10
18.343427
 20
1.608040
 30
0.0
 11
17.746029
 21
1.607320
 31
0.0
  0
LINE
  5
1da
100
AcDbEntity
  8
Layer_1
 62
7
100
AcDbLine
 10
17.746029
 20
1.607320
 30
0.0
 11
17.148630
 21
1.606590
 31
0.0
  0
LINE
  5
1db
100
AcDbEntity
  8
Layer_1
 62
7
100
AcDbLine
 10
17.148630
 20
1.606590
 30
0.0
 11
16.551232
 21
1.605870
 31
0.0
  0
LINE
  5
1dc
100
AcDbEntity
  8
Layer_1
 62
7
100
AcDbLine
 10
16.551232
 20
1.605870
 30
0.0
 11
15.953833
 21
1.605140
 31
0.0
  0
LINE
  5
1dd
100
AcDbEntity
  8
Layer_1
 62
7
100
AcDbLine
 10
15.953833
 20
1.605140
 30
0.0
 11
15.356435
 21
1.604420
 31
0.0
  0
LINE
  5
1de
100
AcDbEntity
  8
Layer_1
 62
7
100
AcDbLine
 10
15.356435
 20
1.604420
 30
0.0
 11
14.759036
 21
1.603690
 31
0.0
  0
LINE
  5
1df
100
AcDbEntity
  8
Layer_1
 62
7
100
AcDbLine
 10
14.759036
 20
1.603690
 30
0.0
 11
14.161637
 21
1.602970
 31
0.0
  0
LINE
  5
1e0
100
AcDbEntity
  8
Layer_1
 62
7
100
AcDbLine
 10
14.161637
 20
1.602970
 30
0.0
 11
12.826517
 21
1.601970
 31
0.0
  0
LINE
  5
1e1
100
AcDbEntity
  8
Layer_1
 62
7
100
AcDbLine
 10
12.826517
 20
1.601970
 30
0.0
 11
11.609743
 21
1.601200
 31
0.0
  0
LINE
  5
1e2
100
AcDbEntity
  8
Layer_1
 62
7
100
AcDbLine
 10
11.609743
 20
1.601200
 30
0.0
 11
10.506435
 21
1.601090
 31
0.0
  0
LINE
  5
1e3
100
AcDbEntity
  8
Layer_1
 62
7
100
AcDbLine
 10
10.506435
 20
1.601090
 30
0.0
 11
9.511715
 21
1.601670
 31
0.0
  0
LINE
  5
1e4
100
AcDbEntity
  8
Layer_1
 62
7
100
AcDbLine
 10
9.511715
 20
1.601670
 30
0.0
 11
8.620705
 21
1.602670
 31
0.0
  0
LINE
  5
1e5
100
AcDbEntity
  8
Layer_1
 62
7
100
AcDbLine
 10
8.620705
 20
1.602670
 30
0.0
 11
7.828527
 21
1.604670
 31
0.0
  0
LINE
  5
1e6
100
AcDbEntity
  8
Layer_1
 62
7
100
AcDbLine
 10
7.828527
 20
1.604670
 30
0.0
 11
7.130301
 21
1.607670
 31
0.0
  0
LINE
  5
1e7
100
AcDbEntity
  8
Layer_1
 62
7
100
AcDbLine
 10
7.130301
 20
1.607670
 30
0.0
 11
6.521149
 21
1.611670
 31
0.0
  0
LINE
  5
1e8
100
AcDbEntity
  8
Layer_1
 62
7
100
AcDbLine
 10
6.521149
 20
1.611670
 30
0.0
 11
5.996192
 21
1.616670
 31
0.0
  0
LINE
  5
1e9
100
AcDbEntity
  8
Layer_1
 62
7
100
AcDbLine
 10
5.996192
 20
1.616670
 30
0.0
 11
5.550553
 21
1.621670
 31
0.0
  0
LINE
  5
1ea
100
AcDbEntity
  8
Layer_1
 62
7
100
AcDbLine
 10
5.550553
 20
1.621670
 30
0.0
 11
5.179352
 21
1.627670
 31
0.0
  0
LINE
  5
1eb
100
AcDbEntity
  8
Layer_1
 62
7
100
AcDbLine
 10
5.179352
 20
1.627670
 30
0.0
 11
4.877711
 21
1.634670
 31
0.0
  0
LINE
  5
1ec
100
AcDbEntity
  8
Layer_1
 62
7
100
AcDbLine
 10
4.877711
 20
1.634670
 30
0.0
 11
4.640751
 21
1.642670
 31
0.0
  0
LINE
  5
1ed
100
AcDbEntity
  8
Layer_1
 62
7
100
AcDbLine
 10
4.640751
 20
1.642670
 30
0.0
 11
4.463594
 21
1.651670
 31
0.0
  0
LINE
  5
1ee
100
AcDbEntity
  8
Layer_1
 62
7
100
AcDbLine
 10
4.463594
 20
1.651670
 30
0.0
 11
4.341361
 21
1.662170
 31
0.0
  0
LINE
  5
1ef
100
AcDbEntity
  8
Layer_1
 62
7
100
AcDbLine
 10
4.341361
 20
1.662170
 30
0.0
 11
4.269174
 21
1.673770
 31
0.0
  0
LINE
  5
1f0
100
AcDbEntity
  8
Layer_1
 62
7
100
AcDbLine
 10
4.269174
 20
1.673770
 30
0.0
 11
4.269174
 21
1.673760
 31
0.0
  0
LINE
  5
1f1
100
AcDbEntity
  8
Layer_1
 62
7
100
AcDbLine
 10
4.269174
 20
1.673760
 30
0.0
 11
4.269174
 21
1.673760
 31
0.0
  0
LINE
  5
1f2
100
AcDbEntity
  8
Layer_1
 62
7
100
AcDbLine
 10
4.269174
 20
1.673760
 30
0.0
 11
4.269174
 21
1.673750
 31
0.0
  0
LINE
  5
1f3
100
AcDbEntity
  8
Layer_1
 62
7
100
AcDbLine
 10
4.269174
 20
1.673750
 30
0.0
 11
4.269174
 21
1.673750
 31
0.0
  0
LINE
  5
1f4
100
AcDbEntity
  8
Layer_1
 62
7
100
AcDbLine
 10
4.269174
 20
1.673750
 30
0.0
 11
4.269174
 21
1.673740
 31
0.0
  0
LINE
  5
1f5
100
AcDbEntity
  8
Layer_1
 62
7
100
AcDbLine
 10
4.269174
 20
1.673740
 30
0.0
 11
4.269174
 21
1.673740
 31
0.0
  0
LINE
  5
1f6
100
AcDbEntity
  8
Layer_1
 62
7
100
AcDbLine
 10
4.269174
 20
1.673740
 30
0.0
 11
4.269174
 21
1.673730
 31
0.0
  0
LINE
  5
1f7
100
AcDbEntity
  8
Layer_1
 62
7
100
AcDbLine
 10
4.269174
 20
1.673730
 30
0.0
 11
4.269174
 21
1.673730
 31
0.0
  0
LINE
  5
1f8
100
AcDbEntity
  8
Layer_1
 62
7
100
AcDbLine
 10
4.269174
 20
1.673730
 30
0.0
 11
4.269174
 21
1.673720
 31
0.0
  0
LINE
  5
1f9
100
AcDbEntity
  8
Layer_1
 62
7
100
AcDbLine
 10
4.269174
 20
1.673720
 30
0.0
 11
4.269174
 21
1.673710
 31
0.0
  0
LINE
  5
1fa
100
AcDbEntity
  8
Layer_1
 62
7
100
AcDbLine
 10
4.269174
 20
1.673710
 30
0.0
 11
4.269174
 21
1.673710
 31
0.0
  0
LINE
  5
1fb
100
AcDbEntity
  8
Layer_1
 62
7
100
AcDbLine
 10
4.269174
 20
1.673710
 30
0.0
 11
4.269174
 21
1.673700
 31
0.0
  0
LINE
  5
1fc
100
AcDbEntity
  8
Layer_1
 62
7
100
AcDbLine
 10
4.269174
 20
1.673700
 30
0.0
 11
4.269174
 21
1.673700
 31
0.0
  0
LINE
  5
1fd
100
AcDbEntity
  8
Layer_1
 62
7
100
AcDbLine
 10
4.269174
 20
1.673700
 30
0.0
 11
4.269174
 21
1.673690
 31
0.0
  0
LINE
  5
1fe
100
AcDbEntity
  8
Layer_1
 62
7
100
AcDbLine
 10
4.269174
 20
1.673690
 30
0.0
 11
4.269173
 21
1.673690
 31
0.0
  0
LINE
  5
1ff
100
AcDbEntity
  8
Layer_1
 62
7
100
AcDbLine
 10
4.269173
 20
1.673690
 30
0.0
 11
4.269171
 21
1.676850
 31
0.0
  0
ENDSEC
  0
SECTION
  2
OBJECTS
  0
DICTIONARY
  5
C
330
0
100
AcDbDictionary
  3
ACAD_GROUP
350
D
  3
ACAD_MLINESTYLE
350
17
  0
DICTIONARY
  5
D
330
C
100
AcDbDictionary
  0
DICTIONARY
  5
1A
330
C
100
AcDbDictionary
  0
DICTIONARY
  5
17
330
C
100
AcDbDictionary
  3
STANDARD
350
18
  0
DICTIONARY
  5
19
330
C
100
AcDbDictionary
  0
ENDSEC
  0
EOF
